<?xml version="1.0" encoding="utf-8"?>
<!-- Generator: Adobe Illustrator 22.1.0, SVG Export Plug-In . SVG Version: 6.00 Build 0)  -->
<svg version="1.1" id="Layer_1" xmlns="http://www.w3.org/2000/svg" xmlns:xlink="http://www.w3.org/1999/xlink" x="0px" y="0px"
	 viewBox="0 0 214 30" style="enable-background:new 0 0 214 30;" xml:space="preserve" width="214px" height="30px">
<path d="M54.5,1c-0.1,0-0.1,0.1-0.2,0.2L47.6,15L41.8,0.9h-1.2L36,12.1L30.7,1.2C30.6,1.1,30.6,1,30.5,1s-0.2,0-0.3,0h-2.6v28.1h2.2
	c0.2,0,0.4-0.1,0.5-0.3l5.3-12.9l6.3,12.9c0.1,0.2,0.3,0.3,0.5,0.3h0.3c0.2,0,0.3-0.1,0.5-0.3l4.8-10l4.1,10
	c0.1,0.2,0.2,0.3,0.4,0.3h0.9l-4.8-11.7l0.8-1.6l5.3,12.9c0.1,0.2,0.2,0.3,0.4,0.3h2.3V0.9h-2.6C54.7,0.9,54.6,1,54.5,1 M30,26.5
	V4.8V4.1l5,10.4L30,26.5z M36.6,13.4l4.2-10.1l0.4-1l0.4,1l0.4,0.9L37.6,15L36.6,13.4z M42.5,25.6l-4.4-9.2l4.5-10.9L47,16.4
	L42.5,25.6z M55.1,26.5l-5-12.1l5-10.4V26.5z M3.9,15.9h11.9v-2.1H3.9V3.1h14.3V0.9H1.4V29h16.8v-2.1H3.9V15.9z M135.9,1l-11.5,28.1
	h2.2c0.2,0,0.4-0.1,0.5-0.3l3.3-8.1h14l3.3,8.1c0.1,0.2,0.2,0.3,0.4,0.3h2.2L138.8,1H135.9z M131.1,18.6l5.6-13.9
	c0.1-0.2,0.5-1.4,0.6-1.7c0.1,0.3,0.5,1.4,0.6,1.7l5.6,14h-12.4V18.6z M182.9,29.1h2.5V0.9h-2.5V29.1z M206.6,14.1
	c-2.2-0.8-3.4-1.2-4.8-1.7c-2.3-0.9-3.3-2.1-3.3-4.2c0-3,2.6-4.9,5.1-5.1c1.6-0.2,3.1,0.2,4.6,1.1c0.1,0.1,0.3,0.2,0.3,0.2
	c1,0.8,2.2,0.1,2.7-0.3l0.2-0.2l-0.2-0.2c-0.9-0.9-2-1.6-3.1-2.1s-2.4-0.7-3.9-0.7c-1.6,0-3.2,0.4-4.4,1.1c-2.4,1.3-3.7,3.5-3.7,6.2
	c0,3.4,1.7,5.5,5.5,6.7c1.3,0.4,2,0.7,2.4,0.8c0.8,0.3,0.8,0.3,1.7,0.6c1.4,0.5,2.4,1.1,3.1,1.9c0.7,0.9,1.5,2.3,1.2,4.1
	c-0.5,2.4-2.1,3.9-5,4.5c-2.6,0.5-5.3-0.1-7.3-1.8c-1-0.8-2.2-0.3-2.7,0.1l-0.2,0.2l0.2,0.2c0.9,1,1.9,1.8,3.1,2.5
	c1,0.6,3,1.2,5.3,1.2c1.1,0,2.3-0.2,3.5-0.5c3.4-1.1,5.8-4,5.8-7.1C212.6,17.8,210.8,15.5,206.6,14.1 M83.6,3.1
	c-1.6-1.4-4.1-2.2-7.3-2.2h-7.7V29h2.5V17.6h5.2c1.5,0,2.9-0.2,4.1-0.6s2.3-1,3.1-1.7c0.9-0.7,1.5-1.6,2-2.7c0.5-1,0.7-2.2,0.7-3.4
	C86.3,6.6,85.3,4.5,83.6,3.1 M83.1,11.8c-0.3,0.8-0.8,1.4-1.4,2s-1.4,1-2.3,1.3s-2,0.5-3.1,0.5h-5.2V3.1h5.2c2.5,0,4.3,0.5,5.5,1.6
	s1.8,2.6,1.8,4.6C83.6,10.2,83.5,11,83.1,11.8 M114.3,13.8H97.4V0.9h-2.5V29h2.5V15.8h17v13.2h2.5V0.9h-2.5L114.3,13.8L114.3,13.8z
	 M167.8,14.1c-2.2-0.8-3.4-1.2-4.8-1.7c-2.3-0.9-3.3-2.1-3.3-4.2c0-3,2.6-4.9,5.1-5.1c1.6-0.2,3.1,0.2,4.6,1.1
	c0.1,0.1,0.3,0.2,0.3,0.2c1,0.8,2.2,0.1,2.7-0.3l0.2-0.2l-0.2-0.2c-0.9-0.9-2-1.6-3.1-2.1c-1.2-0.5-2.5-0.7-3.9-0.7
	c-1.6,0-3.2,0.4-4.4,1.1c-2.4,1.3-3.7,3.5-3.7,6.2c0,3.4,1.7,5.5,5.5,6.7c1.3,0.4,2,0.7,2.4,0.8c0.8,0.3,0.8,0.3,1.7,0.6
	c1.4,0.5,2.4,1.1,3.1,1.9c0.7,0.9,1.5,2.3,1.2,4.1c-0.5,2.4-2.1,3.9-5,4.5c-2.6,0.5-5.3-0.1-7.3-1.8c-1-0.8-2.2-0.3-2.7,0.1
	l-0.2,0.2l0.2,0.2c0.9,1,1.9,1.8,3.1,2.5c1,0.6,3,1.2,5.3,1.2c1.1,0,2.3-0.2,3.5-0.5c3.4-1.1,5.8-4,5.8-7.1
	C173.8,17.8,171.9,15.5,167.8,14.1"/>
</svg>
