<?xml version="1.0" encoding="utf-8"?>
<!-- Generator: Adobe Illustrator 23.0.1, SVG Export Plug-In . SVG Version: 6.00 Build 0)  -->
<svg version="1.1" id="Layer_1" xmlns="http://www.w3.org/2000/svg" xmlns:xlink="http://www.w3.org/1999/xlink" x="0px" y="0px"
	 viewBox="0 0 273.6 62.6" style="enable-background:new 0 0 273.6 62.6;" xml:space="preserve">
<style type="text/css">
	.st0{fill:#6D6E71;}
</style>
<title>Asset 13</title>
<g>
	<g id="Layer_1-2">
		<polygon class="st0" points="6.3,44.3 6.3,28.3 0,28.3 0,27 14.1,27 14.1,28.3 7.9,28.3 7.9,44.3 		"/>
		<rect x="34.3" y="27" class="st0" width="1.6" height="17.3"/>
		<polygon class="st0" points="95.5,44.3 95.5,27 106.5,27 106.5,28.3 97.1,28.3 97.1,34.9 104.9,34.9 104.9,36.2 97.1,36.2 
			97.1,43 106.5,43 106.5,44.3 		"/>
		<polygon class="st0" points="126.6,44.3 126.6,27 128.2,27 128.2,43 136.7,43 136.7,44.3 		"/>
		<polygon class="st0" points="156.8,44.3 156.8,27 167.8,27 167.8,28.3 158.4,28.3 158.4,34.9 166.3,34.9 166.3,36.2 158.4,36.2 
			158.4,43 167.8,43 167.8,44.3 		"/>
		<path class="st0" d="M193.4,44.5c-1.1,0-2.1-0.2-3.1-0.6c-0.9-0.4-1.6-1-2.3-1.7l-0.1-0.1l0.4-0.6c0.1-0.2,0.3-0.2,0.5-0.3
			c0.1,0,0.3,0.1,0.4,0.2l0.4,0.4c0.2,0.1,0.4,0.3,0.6,0.5c0.2,0.2,0.5,0.3,0.8,0.4c0.7,0.3,1.6,0.5,2.4,0.5c0.6,0,1.2-0.1,1.8-0.3
			c0.5-0.2,1-0.5,1.4-0.8c0.4-0.3,0.7-0.7,0.8-1.2c0.2-0.5,0.3-1,0.3-1.5c0-0.5-0.1-1-0.4-1.4c-0.3-0.4-0.6-0.7-1-0.9
			c-0.4-0.3-0.9-0.5-1.4-0.6l-1.6-0.5c-0.6-0.2-1.1-0.3-1.7-0.6c-0.5-0.2-1-0.5-1.5-0.8c-0.4-0.3-0.8-0.8-1.1-1.3
			c-0.3-0.6-0.4-1.2-0.4-1.9c0-0.6,0.1-1.2,0.4-1.7c0.2-0.5,0.6-1,1-1.5c0.5-0.4,1.1-0.8,1.7-1c0.7-0.3,1.5-0.4,2.3-0.4
			c0.9,0,1.7,0.1,2.6,0.4c0.8,0.3,1.5,0.7,2.1,1.3l0.1,0.1l-0.4,0.6c-0.1,0.2-0.3,0.3-0.5,0.3c-0.2,0-0.4-0.1-0.5-0.3
			c-0.2-0.2-0.4-0.3-0.7-0.5c-0.3-0.2-0.7-0.4-1.1-0.5c-0.5-0.2-1-0.2-1.6-0.2c-0.6,0-1.1,0.1-1.7,0.3c-0.4,0.1-0.8,0.4-1.2,0.7
			c-0.3,0.3-0.6,0.6-0.7,1c-0.2,0.4-0.2,0.8-0.2,1.2c0,0.5,0.1,1,0.4,1.4c0.3,0.4,0.6,0.7,1,0.9c0.4,0.3,0.9,0.5,1.4,0.7l1.6,0.5
			c0.6,0.2,1.1,0.4,1.6,0.6c0.5,0.2,1,0.5,1.5,0.8c0.4,0.3,0.8,0.8,1.1,1.2c0.3,0.6,0.4,1.2,0.4,1.8c0,0.7-0.1,1.4-0.4,2.1
			c-0.3,0.6-0.6,1.2-1.1,1.7c-0.5,0.5-1.2,0.9-1.8,1.1C195.1,44.4,194.3,44.5,193.4,44.5z"/>
		<path class="st0" d="M224.9,44.5c-1.1,0-2.1-0.2-3.1-0.6c-0.9-0.4-1.6-1-2.3-1.7l-0.1-0.1l0.4-0.6c0.1-0.2,0.3-0.2,0.5-0.3
			c0.1,0,0.3,0.1,0.4,0.2l0.4,0.4c0.2,0.1,0.4,0.3,0.6,0.5c0.2,0.2,0.5,0.3,0.8,0.4c0.7,0.3,1.6,0.5,2.4,0.5c0.6,0,1.2-0.1,1.8-0.3
			c0.5-0.2,1-0.5,1.4-0.8c0.4-0.3,0.7-0.7,0.8-1.2c0.2-0.5,0.3-1,0.3-1.5c0-0.5-0.1-1-0.4-1.4c-0.3-0.4-0.6-0.7-1-0.9
			c-0.4-0.3-0.9-0.5-1.4-0.6l-1.6-0.5c-0.6-0.2-1.1-0.4-1.7-0.6c-0.5-0.2-1-0.5-1.5-0.8c-0.4-0.3-0.8-0.8-1.1-1.3
			c-0.3-0.6-0.4-1.2-0.4-1.9c0-0.6,0.1-1.2,0.4-1.7c0.2-0.5,0.6-1,1-1.5c0.5-0.4,1.1-0.8,1.7-1c0.7-0.3,1.5-0.4,2.3-0.4
			c0.9,0,1.7,0.1,2.6,0.4c0.8,0.3,1.5,0.7,2.1,1.3l0.1,0.1l-0.4,0.6c-0.1,0.2-0.3,0.3-0.5,0.3c-0.2,0-0.4-0.1-0.5-0.3
			c-0.2-0.2-0.4-0.3-0.7-0.5c-0.3-0.2-0.7-0.4-1.1-0.5c-0.5-0.2-1-0.2-1.6-0.2c-0.6,0-1.1,0.1-1.7,0.3c-0.4,0.1-0.8,0.4-1.2,0.7
			c-0.3,0.3-0.6,0.6-0.7,1c-0.2,0.4-0.3,0.8-0.3,1.2c0,0.5,0.1,1,0.4,1.4c0.3,0.4,0.6,0.7,1,0.9c0.4,0.3,0.9,0.5,1.4,0.7l1.6,0.5
			c0.6,0.2,1.1,0.4,1.6,0.6c0.5,0.2,1,0.5,1.5,0.8c0.4,0.3,0.8,0.8,1.1,1.2c0.3,0.6,0.4,1.2,0.4,1.8c0,0.7-0.1,1.4-0.4,2.1
			c-0.3,0.6-0.6,1.2-1.1,1.7c-0.5,0.5-1.2,0.9-1.8,1.1C226.6,44.4,225.8,44.5,224.9,44.5z"/>
		<path class="st0" d="M73.4,27c-0.1,0-0.1,0.1-0.1,0.1L69,35.7l-3.8-8.7h-0.8l-3,6.9l-3.4-6.7C58,27,58,27,57.9,27
			c-0.1,0-0.1,0-0.2,0h-1.7v17.4h1.4c0.1,0,0.3-0.1,0.3-0.2l3.4-8l4,8c0.1,0.1,0.2,0.2,0.3,0.2h0.2c0.1,0,0.3-0.1,0.3-0.2l3.2-6.1
			l2.6,6.2c0,0.1,0.2,0.2,0.3,0.2h0.6l-3.1-7.2l0.5-1l3.4,8c0,0.1,0.2,0.2,0.3,0.2h1.4V26.9h-1.7C73.6,26.9,73.5,27,73.4,27z
			 M57.6,42.8V28.9l3.2,6.4L57.6,42.8z M61.9,34.6l2.7-6.2l0.3-0.6l0.3,0.6l0.2,0.5l-2.9,6.8L61.9,34.6z M65.7,42.2l-2.9-5.7
			l2.9-6.7l2.9,6.6L65.7,42.2z M73.8,42.8l-3.2-7.5l3.2-6.4V42.8z"/>
		<polygon class="st0" points="254.8,6.7 254.2,6.7 254.2,12.6 251.6,11.9 251.6,8.2 251,8.2 251,17.7 251.6,17.7 251.6,12.5 
			254.2,13.2 254.2,20.5 254.8,20.5 254.8,13.4 256.1,13.8 256.1,13.1 254.8,12.7 		"/>
		<path class="st0" d="M272.9,19.6l-2.6,0l2.4-4.6c0.4-0.7,0.4-1.6,0.1-2.3c-0.4-0.9-1.3-1.6-2.3-1.8L260,8.3l0.4-0.8l12.7,0.1l0,0
			h0.5c-3.3-6.7-11.4-9.5-18.1-6.1s-9.5,11.4-6.1,18.1s11.4,9.5,18.1,6.1c2.7-1.3,4.8-3.5,6.1-6.1L272.9,19.6L272.9,19.6z
			 M270.6,17.9l-11.6-3c-0.6-0.1-1.1-0.5-1.3-1c-0.2-0.4-0.2-0.9,0-1.3l0.4-0.8l13.7,3.7L270.6,17.9z M270.4,11.6
			c0.8,0.2,1.5,0.7,1.9,1.4c0.3,0.6,0.2,1.3-0.1,1.8l-0.1,0.1l-13.7-3.7l1.3-2.5L270.4,11.6z M261.4,26.6c-7.2,0-13-5.8-13-13
			s5.8-13,13-13c4.6,0,8.9,2.4,11.2,6.4l-15.7-0.1v0.6h2.8l-2.5,4.8c-0.3,0.6-0.3,1.2,0,1.8c0.3,0.7,1,1.2,1.7,1.4l11.4,3l-0.6,1.2
			L257,19.6v0.6l15.7,0.1C270.3,24.1,266,26.6,261.4,26.6L261.4,26.6z"/>
	</g>
</g>
</svg>
