<?xml version="1.0" encoding="utf-8"?>
<!-- Generator: Adobe Illustrator 23.0.1, SVG Export Plug-In . SVG Version: 6.00 Build 0)  -->
<svg version="1.1" id="Layer_1" xmlns="http://www.w3.org/2000/svg" xmlns:xlink="http://www.w3.org/1999/xlink" x="0px" y="0px"
	 viewBox="0 0 267.3 62.6" style="enable-background:new 0 0 267.3 62.6;" xml:space="preserve">
<style type="text/css">
	.st0{fill:#6D6E71;}
</style>
<title>Asset 14</title>
<g>
	<g id="Layer_1-2">
		<path class="st0" d="M5.5,45c-1.1,0-2.1-0.2-3.1-0.6c-0.9-0.4-1.6-1-2.3-1.7L0,42.6L0.4,42c0.1-0.2,0.3-0.2,0.5-0.3
			c0.1,0,0.3,0.1,0.4,0.2l0.4,0.4c0.2,0.2,0.4,0.3,0.6,0.5c0.3,0.2,0.5,0.3,0.8,0.4c0.3,0.1,0.7,0.3,1,0.3c0.4,0.1,0.9,0.1,1.3,0.1
			c0.6,0,1.2-0.1,1.8-0.3c0.5-0.2,1-0.5,1.4-0.8c0.4-0.3,0.6-0.8,0.8-1.2c0.2-0.5,0.3-1,0.3-1.5c0-0.5-0.1-1-0.4-1.4
			c-0.3-0.4-0.6-0.7-1-0.9C8,37.2,7.5,37,7,36.9c-0.5-0.2-1.1-0.3-1.6-0.5s-1-0.4-1.6-0.6c-0.5-0.2-1-0.5-1.5-0.8
			c-0.4-0.3-0.8-0.8-1-1.3c-0.3-0.6-0.4-1.2-0.4-1.9c0-0.6,0.1-1.2,0.4-1.7c0.2-0.5,0.6-1,1-1.5c0.5-0.4,1.1-0.8,1.7-1
			c0.7-0.3,1.5-0.4,2.3-0.4c0.9,0,1.7,0.1,2.5,0.4c0.8,0.3,1.5,0.7,2.1,1.3l0.1,0.1l-0.4,0.6C10.4,29.9,10.2,30,10,30
			c-0.2,0-0.4-0.1-0.5-0.3c-0.2-0.2-0.4-0.3-0.7-0.5c-0.3-0.2-0.7-0.4-1.1-0.5c-0.5-0.2-1.1-0.2-1.6-0.2c-0.6,0-1.1,0.1-1.7,0.3
			C4,29,3.6,29.2,3.3,29.5c-0.3,0.3-0.6,0.6-0.7,1c-0.2,0.4-0.2,0.8-0.3,1.2c0,0.5,0.1,0.9,0.4,1.3c0.3,0.4,0.6,0.7,1,0.9
			c0.4,0.3,0.9,0.5,1.4,0.7l1.6,0.5c0.6,0.2,1.1,0.4,1.7,0.6c0.5,0.2,1,0.5,1.5,0.8c0.4,0.3,0.8,0.8,1.1,1.2
			c0.3,0.6,0.4,1.2,0.4,1.8c0,0.7-0.1,1.4-0.4,2.1c-0.3,0.6-0.6,1.2-1.1,1.7c-0.5,0.5-1.2,0.9-1.8,1.1C7.1,44.8,6.3,45,5.5,45z"/>
		<path class="st0" d="M34.8,44.8v-7.2l-6.7-10.2h1.4c0.1,0,0.3,0,0.4,0.1c0.1,0.1,0.2,0.2,0.2,0.3l5.1,7.8c0.1,0.2,0.2,0.4,0.3,0.6
			l0.1,0.2l0.1-0.2c0.1-0.2,0.2-0.4,0.3-0.5l5.1-7.8c0.1-0.1,0.1-0.2,0.2-0.3c0.1-0.1,0.2-0.1,0.4-0.1h1.4l-6.7,10.2v7.1L34.8,44.8z
			"/>
		<path class="st0" d="M89.8,44.8V27.4h4.8c1.7-0.1,3.4,0.4,4.8,1.4c1.1,1,1.7,2.4,1.7,3.9c0,0.7-0.1,1.5-0.4,2.1
			c-0.3,0.6-0.7,1.2-1.3,1.7c-0.6,0.5-1.3,0.9-2,1.1c-0.9,0.3-1.8,0.4-2.7,0.4h-3.2v6.9L89.8,44.8z M94.6,36.6
			c0.7,0,1.4-0.1,2.1-0.3c0.6-0.2,1.1-0.5,1.5-0.8c0.4-0.3,0.8-0.8,1-1.3c0.2-0.5,0.3-1,0.3-1.6c0.1-1.1-0.4-2.2-1.2-2.9
			c-1.1-0.7-2.4-1.1-3.7-1h-3.2v7.9L94.6,36.6z"/>
		<polygon class="st0" points="130.8,44.8 130.8,36.6 120,36.6 120,44.8 118.4,44.8 118.4,27.4 120,27.4 120,35.4 130.8,35.4 
			130.8,27.4 132.4,27.4 132.4,44.8 		"/>
		<path class="st0" d="M155.3,45c-1.2,0-2.4-0.2-3.5-0.6c-1-0.4-2-1-2.7-1.8c-0.8-0.8-1.4-1.8-1.8-2.8c-0.9-2.3-0.9-4.9,0-7.3
			c0.4-1,1-2,1.8-2.8c0.8-0.8,1.7-1.4,2.7-1.8c2.3-0.8,4.7-0.8,7,0c1,0.4,2,1,2.7,1.8c0.8,0.8,1.4,1.8,1.8,2.8
			c0.8,2.3,0.8,4.9,0,7.3c-0.4,1-1,2-1.8,2.8c-0.8,0.8-1.7,1.4-2.7,1.8C157.7,44.8,156.5,45,155.3,45z M155.3,28.6
			c-1,0-1.9,0.2-2.8,0.5c-0.8,0.3-1.6,0.8-2.2,1.5c-0.6,0.7-1.1,1.5-1.4,2.4c-0.7,2-0.7,4.3,0,6.3c0.3,0.9,0.8,1.7,1.4,2.3
			c0.6,0.6,1.4,1.1,2.2,1.5c0.9,0.3,1.9,0.5,2.8,0.5c1,0,2-0.2,2.9-0.5c0.8-0.3,1.6-0.8,2.2-1.5c0.6-0.7,1.1-1.5,1.4-2.3
			c0.7-2.1,0.7-4.3,0-6.3c-0.3-0.9-0.8-1.7-1.4-2.4c-0.6-0.6-1.4-1.1-2.2-1.5C157.3,28.8,156.3,28.6,155.3,28.6L155.3,28.6z"/>
		<path class="st0" d="M191.5,44.8c-0.2,0-0.5-0.1-0.6-0.3l-11.3-14.4c0,0.1,0,14.7,0,14.7h-1.4V27.4h0.8c0.1,0,0.2,0,0.3,0.1
			c0.1,0.1,0.2,0.1,0.3,0.2l11.2,14.4c0-0.1,0-0.1,0-0.2V27.4h1.4v17.3H191.5z"/>
		<path class="st0" d="M214.4,44.8v-7.2l-6.7-10.2h1.4c0.1,0,0.3,0,0.4,0.1c0.1,0.1,0.2,0.2,0.2,0.3l5.1,7.8
			c0.1,0.2,0.2,0.4,0.3,0.6l0.1,0.2l0.1-0.2c0.1-0.2,0.2-0.4,0.3-0.5l5.1-7.8c0.1-0.1,0.1-0.2,0.2-0.3c0.1-0.1,0.2-0.1,0.4-0.1h1.4
			L216,37.7v7.1L214.4,44.8z"/>
		<path class="st0" d="M73.3,27.6c-0.1,0-0.1,0.1-0.1,0.1l-4.3,8.6l-3.8-8.7h-0.8l-3,6.9l-3.4-6.7c0-0.1-0.1-0.1-0.1-0.1
			c-0.1,0-0.1,0-0.2,0h-1.6V45h1.4c0.1,0,0.3-0.1,0.3-0.2l3.4-8l4,8c0.1,0.1,0.2,0.2,0.3,0.2h0.2c0.1,0,0.3-0.1,0.3-0.2l3.1-6.2
			l2.6,6.2c0,0.1,0.2,0.2,0.4,0.2h0.6l-3.1-7.2l0.5-1l3.4,8c0,0.1,0.2,0.2,0.3,0.2h1.4V27.6h-1.7C73.4,27.6,73.3,27.6,73.3,27.6z
			 M57.4,43.4V29.5l3.2,6.4L57.4,43.4z M61.7,35.3l2.7-6.3l0.3-0.6l0.3,0.6l0.2,0.5l-2.9,6.8L61.7,35.3z M65.5,42.9l-2.9-5.7
			l2.9-6.7l2.9,6.6L65.5,42.9z M73.6,43.4l-3.2-7.5l3.2-6.4V43.4z"/>
		<path class="st0" d="M253.4,0c-6.5,0-12.1,4.5-13.5,10.8h0.6c1.7-7.1,8.8-11.5,16-9.8c2.8,0.7,5.3,2.2,7.1,4.4h-11.6v0.6h5.1
			l-1.3,2.4h-2.4h-0.1V19h0.6l-0.8,1.8h0.7l0.8-1.8h4.1c1.2,0.1,2.4-0.3,3.3-1l1.2,2.9h0.7l-1.5-3.4c0.7-1,1.1-2.3,1.1-3.5V8.4h-7
			l1.3-2.4h6.3c4.3,5.9,3,14.2-3,18.5c-5.6,4-13.3,3.1-17.8-2.1h-0.8c4.7,6,13.5,7.1,19.5,2.3c6-4.7,7.1-13.5,2.3-19.5
			C261.6,2,257.6,0,253.4,0z M258.6,18.4h-4.8V12h5.2l-1.6,2.2l0,0l0,0l-0.4,0.6h5.8c-0.1,0.9-0.5,1.8-1.1,2.5
			C260.9,18.1,259.8,18.5,258.6,18.4z M262.8,14.1c0,0,0,0.1,0,0.1h-4.7l1.6-2.2l0,0l0,0l0.4-0.6h-6.4V9.1h9L262.8,14.1L262.8,14.1z
			"/>
		<polygon class="st0" points="242.5,12.5 240.3,19.4 250.9,19.4 248.6,12.6 247.9,12.6 250,18.8 241.1,18.8 243.1,12.5 		"/>
		<polygon class="st0" points="250.4,10.7 248.7,6 248.1,6 248.1,6 249.8,10.7 		"/>
	</g>
</g>
</svg>
