<?xml version="1.0" encoding="utf-8"?>
<!-- Generator: Adobe Illustrator 23.0.1, SVG Export Plug-In . SVG Version: 6.00 Build 0)  -->
<svg version="1.1" id="Layer_1" xmlns="http://www.w3.org/2000/svg" xmlns:xlink="http://www.w3.org/1999/xlink" x="0px" y="0px"
	 viewBox="0 0 281.3 62.6" style="enable-background:new 0 0 281.3 62.6;" xml:space="preserve">
<style type="text/css">
	.st0{fill:#6D6E71;}
</style>
<title>Asset 11</title>
<g>
	<g id="Layer_1-2">
		<path class="st0" d="M45,41.3v-7.2L38.3,24h1.4c0.1,0,0.3,0,0.4,0.1c0.1,0.1,0.2,0.2,0.2,0.3l5.1,7.8c0.1,0.2,0.2,0.4,0.3,0.6
			l0.1,0.2l0.1-0.2c0.1-0.2,0.2-0.4,0.3-0.5l5.1-7.8c0.1-0.1,0.1-0.2,0.2-0.3c0.1-0.1,0.2-0.1,0.4-0.1h1.4l-6.7,10.2v7.1L45,41.3z"
			/>
		<path class="st0" d="M77.8,41.5c-1.1,0-2.1-0.2-3.1-0.6c-0.9-0.4-1.6-1-2.3-1.7l-0.1-0.1l0.4-0.6c0.1-0.2,0.3-0.2,0.5-0.3
			c0.1,0,0.3,0.1,0.4,0.2l0.4,0.4c0.2,0.1,0.4,0.3,0.6,0.5c0.2,0.2,0.5,0.3,0.8,0.4c0.3,0.1,0.7,0.3,1,0.3c0.4,0.1,0.9,0.1,1.3,0.1
			c0.6,0,1.2-0.1,1.8-0.3c0.5-0.2,1-0.5,1.3-0.8c0.4-0.3,0.7-0.7,0.8-1.2c0.2-0.5,0.3-1,0.3-1.5c0-0.5-0.1-1-0.3-1.4
			c-0.3-0.4-0.6-0.7-1-0.9c-0.4-0.3-0.9-0.5-1.4-0.6c-0.5-0.2-1.1-0.3-1.6-0.5s-1.1-0.4-1.7-0.6c-0.5-0.2-1-0.5-1.5-0.8
			c-0.4-0.3-0.8-0.8-1.1-1.3c-0.3-0.6-0.4-1.2-0.4-1.9c0-0.6,0.1-1.2,0.3-1.7c0.2-0.5,0.6-1,1-1.5c0.5-0.4,1.1-0.8,1.7-1
			c0.7-0.3,1.5-0.4,2.3-0.4c0.9,0,1.7,0.1,2.6,0.4c0.8,0.3,1.5,0.8,2.1,1.3l0.1,0.1l-0.3,0.6c-0.1,0.2-0.3,0.3-0.5,0.3
			c-0.2,0-0.4-0.1-0.5-0.3c-0.2-0.2-0.4-0.3-0.7-0.5c-0.3-0.2-0.7-0.4-1.1-0.5c-0.5-0.2-1-0.2-1.6-0.2c-0.6,0-1.1,0.1-1.7,0.3
			c-0.4,0.1-0.8,0.4-1.2,0.7c-0.3,0.3-0.6,0.6-0.7,1c-0.2,0.4-0.3,0.8-0.3,1.2c0,0.5,0.1,0.9,0.4,1.4c0.3,0.4,0.6,0.7,1,0.9
			c0.4,0.3,0.9,0.5,1.4,0.6l1.7,0.5c0.6,0.2,1.1,0.4,1.7,0.6c0.5,0.2,1,0.5,1.5,0.8c0.4,0.3,0.8,0.8,1.1,1.2
			c0.3,0.6,0.4,1.2,0.4,1.8c0,0.7-0.1,1.4-0.4,2.1c-0.2,0.6-0.6,1.2-1.1,1.7c-0.5,0.5-1.2,0.9-1.8,1.1
			C79.5,41.4,78.7,41.5,77.8,41.5z"/>
		<polygon class="st0" points="109.1,41.3 109.1,25.3 102.8,25.3 102.8,24 116.9,24 116.9,25.3 110.7,25.3 110.7,41.3 		"/>
		<rect x="136" y="24" class="st0" width="1.6" height="17.3"/>
		<path class="st0" d="M173.5,45.1c-0.2,0-0.3,0-0.5-0.1c-0.2-0.1-0.3-0.2-0.4-0.3l-3.7-3.8c-0.5,0.2-1.1,0.4-1.6,0.5
			c-0.6,0.1-1.3,0.2-1.9,0.2c-1.2,0-2.4-0.2-3.5-0.6c-1-0.4-2-1-2.7-1.8c-0.8-0.8-1.4-1.8-1.8-2.8c-0.8-2.3-0.8-4.9,0-7.3
			c0.4-1,1-2,1.8-2.8c0.8-0.8,1.7-1.4,2.7-1.8c2.3-0.8,4.7-0.8,7,0c1,0.4,2,1,2.7,1.8c0.8,0.8,1.3,1.7,1.7,2.8
			c0.4,1.2,0.6,2.4,0.6,3.6c0,0.8-0.1,1.7-0.3,2.5c-0.2,0.7-0.4,1.5-0.8,2.1c-0.6,1.2-1.6,2.3-2.8,3l4.8,4.9H173.5z M165.3,25.1
			c-1,0-1.9,0.2-2.8,0.5c-0.8,0.3-1.6,0.8-2.2,1.5c-0.6,0.7-1.1,1.5-1.4,2.4c-0.7,2-0.7,4.3,0,6.3c0.3,0.9,0.8,1.7,1.4,2.3
			c0.6,0.6,1.4,1.1,2.2,1.5c0.9,0.3,1.9,0.5,2.8,0.5c1,0,2-0.2,2.9-0.5c0.8-0.3,1.6-0.8,2.2-1.5c0.6-0.7,1.1-1.5,1.4-2.3
			c0.7-2.1,0.7-4.3,0-6.3c-0.3-0.9-0.8-1.7-1.4-2.4c-0.6-0.6-1.4-1.1-2.2-1.5C167.3,25.3,166.3,25.1,165.3,25.1L165.3,25.1z"/>
		<path class="st0" d="M200.9,41.5c-1,0-2-0.2-2.9-0.5c-0.8-0.3-1.6-0.8-2.2-1.5c-0.6-0.6-1.1-1.4-1.4-2.2c-0.3-0.9-0.5-1.8-0.5-2.7
			V24h1.6v10.7c0,0.7,0.1,1.5,0.4,2.2c0.2,0.6,0.5,1.2,1,1.7c0.5,0.5,1,0.9,1.6,1.2c1.4,0.6,3,0.6,4.5,0c0.6-0.3,1.2-0.7,1.7-1.2
			c0.4-0.5,0.8-1.1,1-1.7c0.2-0.7,0.4-1.4,0.4-2.2V24h1.6v10.7c0,0.9-0.2,1.8-0.5,2.7c-0.3,0.8-0.8,1.6-1.4,2.2
			c-0.6,0.6-1.3,1.1-2.1,1.5C202.8,41.4,201.9,41.5,200.9,41.5z"/>
		<polygon class="st0" points="226.8,41.3 226.8,24 237.8,24 237.8,25.3 228.4,25.3 228.4,31.9 236.3,31.9 236.3,33.2 228.4,33.2 
			228.4,40 237.8,40 237.8,41.3 		"/>
		<path class="st0" d="M17.4,24c-0.1,0-0.1,0.1-0.1,0.1l-4.3,8.6L9.2,24H8.4l-3,6.9L2,24.1C2,24.1,1.9,24,1.8,24c-0.1,0-0.1,0-0.2,0
			H0v17.4h1.4c0.1,0,0.3-0.1,0.3-0.2l3.5-8l4,8c0.1,0.1,0.2,0.2,0.3,0.2h0.2c0.1,0,0.3-0.1,0.3-0.2l3.1-6.2l2.7,6.2
			c0,0.1,0.2,0.2,0.3,0.2h0.6l-3.1-7.2l0.5-1l3.4,8c0,0.1,0.2,0.2,0.3,0.2h1.4V24h-1.7C17.5,24,17.4,24,17.4,24z M1.5,39.8V25.9
			l3.2,6.4L1.5,39.8z M5.8,31.7l2.7-6.2l0.3-0.6L9,25.5L9.3,26l-2.9,6.8L5.8,31.7z M9.6,39.3l-2.9-5.7l2.9-6.7l2.9,6.7L9.6,39.3z
			 M17.7,39.8l-3.2-7.5l3.2-6.4V39.8z"/>
		<path class="st0" d="M256.3,7.8h23.3v1.4h0.6v-2l0,0c-0.3-0.5-0.6-1.1-1-1.6c-0.1-0.2-0.4-0.5-0.4-0.5c-4.9-5.9-13.6-6.7-19.5-1.8
			c-0.9,0.8-1.8,1.7-2.5,2.7h0.8c4.4-5.8,12.7-7,18.5-2.6c0.8,0.6,1.6,1.4,2.3,2.2l0.1,0.2c0.3,0.4,0.6,0.8,0.9,1.3
			c0,0,0.1,0.1,0.1,0.2h-11.3V5.8h-0.6v1.4h-12v2h0.6V7.8z"/>
		<polygon class="st0" points="259.1,9.3 255.5,12.6 255.5,13.5 259.1,10.2 		"/>
		<path class="st0" d="M278.7,20.6h-10.3V17h-0.6v3.6H257v-2.7h-0.6v3.3l0,0l0.2,0.3c4.2,6.4,12.8,8.1,19.2,3.9
			c0.4-0.2,0.7-0.5,1.1-0.8l0,0c0.2-0.1,0.3-0.3,0.5-0.4c0.4-0.3,0.8-0.7,1.1-1.1h-0.9c-0.3,0.3-0.6,0.6-1,0.9l-0.2,0.1
			c-5.7,4.6-14,3.8-18.6-1.9c-0.2-0.2-0.4-0.5-0.6-0.7l-0.2-0.3h22.2v-3.4h-0.6L278.7,20.6z"/>
		<path class="st0" d="M277.4,10.7l3.9,3.7v-0.9l-3.7-3.5c-0.6-0.6-1.5-0.8-2.2-0.5l-5.5,1.8l-1.8-1.9h-0.9l2,2.1l-7.1,2.3
			c-0.7-0.8-1-1.8-1-2.8V9.3h-0.6v1.6c0,1.1,0.3,2.1,1,3l-6.5,2.1v0.6l7-2.3c1.3,1,2.9,1.5,4.5,1.4h13.3v-0.6h-13.3
			c-1.3,0.1-2.7-0.3-3.8-1l12.5-4C275.9,9.9,276.8,10.1,277.4,10.7z"/>
	</g>
</g>
</svg>
