<?xml version="1.0" encoding="utf-8"?>
<!-- Generator: Adobe Illustrator 23.0.1, SVG Export Plug-In . SVG Version: 6.00 Build 0)  -->
<svg version="1.1" id="Layer_1" xmlns="http://www.w3.org/2000/svg" xmlns:xlink="http://www.w3.org/1999/xlink" x="0px" y="0px"
	 viewBox="0 0 192.9 62.6" style="enable-background:new 0 0 192.9 62.6;" xml:space="preserve">
<style type="text/css">
	.st0{fill:#6D6E71;}
</style>
<title>Asset 12</title>
<g>
	<g id="Layer_1-2">
		<path class="st0" d="M168.7,7.7v4.4h9.6c1,0.1,2-0.3,2.7-1c0.6-0.7,0.9-1.6,0.9-2.6V7.7H168.7z M180.6,10.7
			c-0.6,0.6-1.4,0.9-2.2,0.8h-9V8.3h12v0.2C181.4,9.3,181.1,10.1,180.6,10.7L180.6,10.7z"/>
		<polygon class="st0" points="175.4,20.2 175.4,17.2 178.8,17.2 178.8,16.6 171.5,16.6 171.5,17.2 174.8,17.2 174.8,20.2 		"/>
		<path class="st0" d="M192.9,19L192.9,19l-4.6,0.4V16h4.2V7.9l0,0V7.8C189.2,0.9,180.9-2,174,1.3c-2.2,1.1-4.1,2.7-5.5,4.8h13.6
			V5.5h-12.3c4.6-5.6,12.9-6.5,18.6-1.9c1.4,1.2,2.6,2.6,3.4,4.2h-3.5V5.3h-0.6v2.6h-3.5V16h3.5v3.4l0,0v0.6l4.2-0.4
			c-3.2,6.6-11.1,9.3-17.7,6.1c-2.4-1.2-4.4-3.1-5.7-5.4v-6.1h2.2l-0.5,0.8h0.7l0.5-0.8h7.9l0.3,0.8h0.7l-0.3-0.8h2.3v2.2
			c0,1.1-0.3,2.1-1,2.9c-0.7,0.7-1.7,1.1-2.7,1.1V21c1.2,0,2.3-0.4,3.1-1.3c0.7-1,1.2-2.2,1.2-3.4v-2.8h-15v5.5l0,0v1.4
			c3.7,6.7,12.1,9.2,18.8,5.6C189.5,24.6,191.7,22.1,192.9,19L192.9,19z M191.9,8.5v6.9h-3.5V8.5L191.9,8.5z M184.8,15.4V8.5h2.9
			v6.9L184.8,15.4z"/>
		<path class="st0" d="M17.4,27.3c-0.1,0-0.1,0.1-0.1,0.1L12.9,36l-3.8-8.8H8.4l-3,6.9L2,27.4c0-0.1-0.1-0.1-0.1-0.1
			c-0.1,0-0.1,0-0.2,0H0v17.4h1.4c0.1,0,0.3-0.1,0.3-0.2l3.5-8l4,8c0.1,0.1,0.2,0.2,0.3,0.2h0.2c0.1,0,0.3-0.1,0.3-0.2l3.1-6.2
			l2.6,6.2c0,0.1,0.2,0.2,0.3,0.2h0.6l-3.1-7.2l0.5-1l3.4,8c0,0.1,0.2,0.2,0.3,0.2h1.4V27.3h-1.7C17.5,27.2,17.4,27.3,17.4,27.3z
			 M1.5,43.1V29.2l3.2,6.4L1.5,43.1z M5.8,35l2.7-6.3l0.3-0.6L9,28.8l0.2,0.5L6.3,36L5.8,35z M9.6,42.6l-2.9-5.7l2.9-6.7l2.9,6.6
			L9.6,42.6z M17.7,43.1l-3.2-7.5l3.2-6.4V43.1z"/>
		<path class="st0" d="M51.8,44.2c-0.1,0-0.3,0-0.4-0.1c-0.1-0.1-0.2-0.2-0.2-0.3l-1.9-4.7h-8.1l-1.9,4.7c0,0.1-0.1,0.2-0.2,0.3
			c-0.1,0.1-0.2,0.1-0.4,0.1h-1.2l7-16.6H46l7,16.6H51.8z M48.8,38l-3.3-8c-0.1-0.1-0.1-0.3-0.2-0.5v-0.1v0.1c0,0.2-0.1,0.3-0.2,0.5
			l-3.4,8L48.8,38z"/>
		<path class="st0" d="M111,44.7c-1.1,0-2.2-0.2-3.3-0.6c-1-0.4-1.9-1-2.6-1.8c-0.7-0.8-1.3-1.7-1.7-2.8c-0.8-2.3-0.8-4.8,0-7.2
			c0.4-1,0.9-2,1.7-2.8c0.7-0.8,1.6-1.4,2.6-1.8c2.1-0.8,4.5-0.8,6.6,0c1,0.4,1.9,1,2.6,1.8c0.7,0.8,1.3,1.7,1.7,2.8
			c0.8,2.3,0.8,4.8,0,7.2c-0.4,1-0.9,2-1.7,2.8c-0.7,0.8-1.6,1.4-2.6,1.8C113.3,44.5,112.1,44.7,111,44.7z M111,28.5
			c-0.9,0-1.8,0.2-2.7,0.5c-0.8,0.3-1.5,0.8-2.1,1.5c-0.6,0.7-1.1,1.5-1.4,2.3c-0.7,2-0.7,4.2,0,6.2c0.3,0.9,0.8,1.6,1.4,2.3
			c0.6,0.6,1.3,1.1,2.1,1.4c0.9,0.3,1.8,0.5,2.7,0.5c0.9,0,1.8-0.2,2.7-0.5c0.8-0.3,1.5-0.8,2.1-1.4c0.6-0.7,1-1.5,1.3-2.3
			c0.6-2,0.6-4.2,0-6.2c-0.3-0.9-0.7-1.6-1.3-2.3c-0.6-0.6-1.3-1.1-2.1-1.5C112.8,28.7,111.9,28.5,111,28.5z"/>
		<path class="st0" d="M150,44.2c-0.2,0-0.4-0.1-0.6-0.3l-10.6-14.2v14.5h-1.4V27.1h0.7c0.1,0,0.2,0,0.3,0c0.1,0,0.2,0.1,0.3,0.2
			l10.6,14.2V27.1h1.4v17.1H150z"/>
		<path class="st0" d="M83.8,44.3c-0.2,0-0.4-0.1-0.6-0.3L72.6,29.8c0,0.1,0,14.5,0,14.5h-1.3V27.2H72c0.1,0,0.2,0,0.3,0
			c0.1,0.1,0.2,0.1,0.3,0.2l10.6,14.2V27.2h1.4v17.1H83.8z"/>
		<path class="st0" d="M74.9,56.5h0.6v2l0,0c0.2-0.4,0.7-0.6,1.1-0.5c0.8,0,1.4,0.7,1.3,1.5c0,0,0,0.1,0,0.1
			c0.1,0.8-0.5,1.6-1.3,1.7c0,0-0.1,0-0.1,0c-0.4,0-0.8-0.2-1.1-0.6l0,0v0.5h-0.5c0-0.2,0-0.5,0-0.8L74.9,56.5z M75.5,59.9
			c0,0.1,0,0.1,0,0.2c0.1,0.4,0.5,0.7,0.9,0.7c0.6,0,1-0.5,1-1.2s-0.3-1.2-1-1.2c-0.4,0-0.8,0.3-0.9,0.7c0,0.1,0,0.2,0,0.2V59.9z"/>
		<path class="st0" d="M79.7,58l0.7,1.9c0.1,0.2,0.2,0.5,0.2,0.7l0,0l0.2-0.7l0.6-1.9H82l-0.9,2.3c-0.2,0.7-0.6,1.4-1.1,2
			c-0.2,0.2-0.4,0.3-0.7,0.4l-0.1-0.5c0.2-0.1,0.4-0.2,0.5-0.3c0.2-0.2,0.4-0.4,0.5-0.6c0,0,0-0.1,0-0.1c0,0,0-0.1,0-0.2L79.1,58
			H79.7z"/>
		<path class="st0" d="M89.5,61.2l-1.9-5.7h0.8l0.9,2.8c0.2,0.8,0.4,1.5,0.6,2.1l0,0c0.2-0.7,0.4-1.4,0.7-2.1l1-2.8h0.8l-2,5.7
			L89.5,61.2z"/>
		<path class="st0" d="M96.7,60.2c0,0.3,0,0.7,0.1,1h-0.7L96,60.7l0,0c-0.3,0.4-0.8,0.6-1.3,0.6c-0.6,0-1.2-0.4-1.2-1.1
			c0,0,0-0.1,0-0.1c0-1,0.9-1.5,2.4-1.5v-0.1c0.1-0.5-0.3-0.9-0.7-0.9c-0.1,0-0.1,0-0.2,0c-0.4,0-0.7,0.1-1.1,0.3l-0.2-0.5
			c0.4-0.2,0.9-0.4,1.3-0.4c1.3,0,1.6,0.8,1.6,1.7L96.7,60.2z M96,59.1c-0.8,0-1.7,0.1-1.7,0.9c0,0.4,0.2,0.7,0.6,0.7
			c0,0,0.1,0,0.1,0c0.4,0,0.9-0.3,1-0.7c0-0.1,0-0.2,0-0.2L96,59.1z"/>
		<path class="st0" d="M99,58.2c0-0.4,0-0.8,0-1.1h0.7v0.7l0,0c0.3-0.5,0.8-0.8,1.3-0.8c0.6,0,1.4,0.3,1.4,1.7v2.4h-0.7v-2.4
			c0-0.7-0.3-1.2-0.9-1.2c-0.5,0-0.9,0.3-1,0.8c0,0.1,0,0.2,0,0.3v2.5H99V58.2z"/>
		<path class="st0" d="M105.3,59.3c-0.1,0.7,0.5,1.3,1.2,1.4c0.1,0,0.1,0,0.2,0c0.4,0,0.8-0.1,1.1-0.2L108,61
			c-0.4,0.2-0.9,0.3-1.4,0.3c-1,0.1-1.9-0.7-2-1.8c0-0.1,0-0.2,0-0.3c-0.1-1.1,0.7-2.1,1.8-2.2c0,0,0,0,0.1,0c0.9,0,1.7,0.8,1.7,1.7
			c0,0.1,0,0.1,0,0.2c0,0.1,0,0.2,0,0.3L105.3,59.3z M107.5,58.8c0.1-0.5-0.2-1.1-0.8-1.2c-0.1,0-0.1,0-0.2,0
			c-0.6,0-1.1,0.6-1.1,1.2H107.5z"/>
		<path class="st0" d="M110.2,60.4c0.3,0.2,0.6,0.3,1,0.3c0.5,0,0.8-0.3,0.8-0.6s-0.2-0.5-0.8-0.7c-0.7-0.3-1.1-0.7-1.1-1.2
			c0-0.7,0.6-1.2,1.3-1.2c0,0,0.1,0,0.1,0c0.4,0,0.7,0.1,1,0.3l-0.2,0.5c-0.3-0.2-0.5-0.2-0.8-0.2c-0.4,0-0.7,0.3-0.7,0.5
			s0.2,0.5,0.8,0.7c0.7,0.3,1.1,0.6,1.1,1.2s-0.6,1.2-1.5,1.2c-0.4,0-0.8-0.1-1.2-0.3L110.2,60.4z"/>
		<path class="st0" d="M114.7,60.4c0.3,0.2,0.6,0.3,1,0.3c0.5,0,0.8-0.3,0.8-0.6s-0.2-0.5-0.8-0.7c-0.7-0.3-1.1-0.7-1.1-1.2
			c0-0.7,0.6-1.2,1.3-1.2c0,0,0,0,0.1,0c0.4,0,0.7,0.1,1,0.3l-0.2,0.5c-0.3-0.2-0.5-0.2-0.8-0.2c-0.4,0-0.7,0.3-0.7,0.5
			s0.2,0.5,0.8,0.7c0.7,0.3,1.1,0.6,1.1,1.2s-0.6,1.2-1.5,1.2c-0.4,0-0.8-0.1-1.1-0.3L114.7,60.4z"/>
		<path class="st0" d="M122.2,60.2c0,0.3,0,0.7,0.1,1h-0.7l-0.1-0.5l0,0c-0.3,0.4-0.8,0.6-1.3,0.6c-0.6,0-1.2-0.4-1.2-1.1
			c0,0,0-0.1,0-0.1c0-1,0.9-1.5,2.4-1.5v-0.1c0.1-0.5-0.3-0.9-0.7-0.9c-0.1,0-0.1,0-0.2,0c-0.4,0-0.7,0.1-1.1,0.3l-0.2-0.5
			c0.4-0.2,0.9-0.4,1.3-0.4c1.2,0,1.5,0.8,1.5,1.7L122.2,60.2z M121.5,59.1c-0.8,0-1.7,0.1-1.7,0.9c0,0.4,0.2,0.7,0.6,0.7
			c0,0,0.1,0,0.1,0c0.5,0,1-0.3,1-0.8c0,0,0,0,0-0.1L121.5,59.1z"/>
		<path class="st0" d="M131.5,61c-0.5,0.2-1,0.3-1.5,0.3c-1.5,0.1-2.7-1-2.8-2.5c0-0.1,0-0.3,0-0.4c-0.1-1.5,1.1-2.9,2.6-3
			c0.1,0,0.3,0,0.4,0c0.5,0,0.9,0.1,1.4,0.3l-0.2,0.6c-0.4-0.2-0.7-0.2-1.1-0.2c-1.2-0.1-2.2,0.8-2.2,2c0,0.1,0,0.3,0,0.4
			c-0.1,1.1,0.7,2.1,1.8,2.3c0.1,0,0.2,0,0.3,0c0.4,0,0.8-0.1,1.2-0.2L131.5,61z"/>
		<path class="st0" d="M133.6,55.2h0.7v2.5l0,0c0.1-0.2,0.3-0.4,0.5-0.5c0.2-0.1,0.5-0.2,0.8-0.2c0.6,0,1.4,0.3,1.4,1.7v2.4h-0.8
			v-2.3c0-0.7-0.2-1.2-0.9-1.2c-0.5,0-0.9,0.3-1,0.7c0,0.1,0,0.2,0,0.3v2.5h-0.7L133.6,55.2z"/>
		<path class="st0" d="M143.1,59.1c0.1,1.1-0.7,2.1-1.8,2.2c-0.1,0-0.1,0-0.2,0c-1.1,0-2-0.8-2-1.9c0-0.1,0-0.1,0-0.2
			c-0.1-1.1,0.7-2.1,1.8-2.2c0.1,0,0.1,0,0.2,0c1.1,0,2,0.8,2,1.9C143.1,59,143.1,59,143.1,59.1z M139.9,59.1c0,0.9,0.5,1.6,1.2,1.6
			s1.2-0.7,1.2-1.6c0-0.7-0.3-1.5-1.2-1.5S139.9,58.4,139.9,59.1L139.9,59.1z"/>
		<path class="st0" d="M145.4,57.1l0.6,2.1c0.1,0.5,0.2,0.9,0.3,1.3l0,0c0.1-0.4,0.2-0.8,0.4-1.3l0.7-2.1h0.7l0.6,2
			c0.1,0.5,0.3,0.9,0.4,1.3l0,0c0.1-0.4,0.2-0.8,0.3-1.3l0.6-2h0.7l-1.3,4.1h-0.7l-0.6-2c-0.1-0.4-0.3-0.9-0.4-1.3l0,0
			c-0.1,0.5-0.2,0.9-0.4,1.3l-0.6,1.9h-0.7l-1.2-4.1H145.4z"/>
	</g>
</g>
</svg>
