<?xml version="1.0" encoding="utf-8"?>
<!-- Generator: Adobe Illustrator 23.0.1, SVG Export Plug-In . SVG Version: 6.00 Build 0)  -->
<svg version="1.1" id="Layer_1" xmlns="http://www.w3.org/2000/svg" xmlns:xlink="http://www.w3.org/1999/xlink" x="0px" y="0px"
	 viewBox="0 0 173 62.6" style="enable-background:new 0 0 173 62.6;" xml:space="preserve">
<style type="text/css">
	.st0{fill:#6D6E71;}
</style>
<title>Asset 16</title>
<g>
	<g id="Layer_1-2">
		<path class="st0" d="M0,43.9V26.8h5c0.8,0,1.7,0.1,2.5,0.3c0.6,0.2,1.3,0.5,1.8,0.9c0.5,0.4,0.8,0.9,1.1,1.4
			c0.2,0.6,0.4,1.2,0.4,1.9c0,0.5-0.1,0.9-0.2,1.3c-0.2,0.4-0.4,0.8-0.7,1.2c-0.3,0.4-0.7,0.7-1.1,0.9c-0.3,0.2-0.6,0.3-0.9,0.4
			c0.9,0.2,1.8,0.6,2.5,1.3c0.8,0.7,1.2,1.8,1.1,2.8c0,0.7-0.1,1.4-0.4,2c-0.3,0.6-0.7,1.1-1.1,1.5c-0.6,0.4-1.2,0.7-1.9,0.9
			c-0.8,0.2-1.6,0.3-2.4,0.3H0z M5.6,42.6c1.2,0.1,2.3-0.2,3.2-0.9c0.7-0.6,1.1-1.6,1.1-2.6c0-0.5-0.1-0.9-0.3-1.4
			c-0.2-0.4-0.5-0.7-0.8-1c-0.4-0.3-0.9-0.5-1.3-0.7c-0.6-0.2-1.2-0.2-1.8-0.2H1.5v6.8L5.6,42.6z M5,34.6c0.7,0,1.3-0.1,1.9-0.3
			c0.5-0.2,0.9-0.4,1.3-0.8c0.3-0.3,0.6-0.6,0.7-1c0.2-0.4,0.2-0.8,0.2-1.2c0.1-0.9-0.3-1.8-1-2.5C7.3,28.3,6.1,28,5,28.1H1.5v6.6
			L5,34.6z"/>
		<polygon class="st0" points="25.8,43.9 25.8,26.8 27.3,26.8 27.3,42.6 35.3,42.6 35.3,43.9 		"/>
		<path class="st0" d="M57.8,44.1c-1.1,0-2.2-0.2-3.3-0.6c-1-0.4-1.9-1-2.6-1.8c-0.7-0.8-1.3-1.7-1.7-2.8c-0.8-2.3-0.8-4.8,0-7.1
			c0.4-1,0.9-2,1.7-2.8c0.7-0.8,1.6-1.4,2.6-1.8c1-0.4,2.2-0.6,3.3-0.6c1.1,0,2.3,0.2,3.3,0.6c1,0.4,1.9,1,2.6,1.8
			c0.7,0.8,1.3,1.7,1.7,2.8c0.8,2.3,0.8,4.8,0,7.1c-0.4,1-0.9,2-1.7,2.8c-0.7,0.8-1.6,1.4-2.6,1.8C60,43.9,58.9,44.1,57.8,44.1z
			 M57.8,28c-0.9,0-1.8,0.2-2.7,0.5c-0.8,0.3-1.5,0.8-2.1,1.4c-0.6,0.7-1.1,1.5-1.4,2.3c-0.7,2-0.7,4.2,0,6.2
			c0.3,0.9,0.8,1.6,1.4,2.3c0.6,0.6,1.3,1.1,2.1,1.5c0.9,0.3,1.8,0.5,2.7,0.5c0.9,0,1.8-0.2,2.7-0.5c0.8-0.3,1.5-0.8,2.1-1.4
			c0.6-0.7,1-1.5,1.3-2.3c0.6-2,0.6-4.2,0-6.2c-0.3-0.9-0.7-1.6-1.3-2.3c-0.6-0.6-1.3-1.1-2.1-1.5C59.6,28.1,58.7,28,57.8,28
			L57.8,28z"/>
		<path class="st0" d="M88.5,44.1c-1.1,0-2.3-0.2-3.3-0.6c-1-0.4-1.9-1-2.6-1.8c-0.7-0.8-1.3-1.7-1.7-2.8c-0.8-2.3-0.8-4.8,0-7.1
			c0.4-1,0.9-2,1.7-2.8c0.7-0.8,1.6-1.4,2.6-1.8c1-0.4,2.2-0.6,3.3-0.6c1.1,0,2.3,0.2,3.3,0.6c1,0.4,1.9,1,2.6,1.8
			c0.7,0.8,1.3,1.8,1.6,2.8c0.8,2.3,0.8,4.8,0,7.1c-0.4,1-0.9,2-1.7,2.8c-0.7,0.8-1.6,1.4-2.6,1.8C90.7,43.9,89.6,44.1,88.5,44.1z
			 M88.5,28c-0.9,0-1.8,0.2-2.7,0.5c-0.8,0.3-1.5,0.8-2.1,1.5c-0.6,0.7-1.1,1.5-1.4,2.3c-0.6,2-0.6,4.2,0,6.2
			c0.3,0.9,0.8,1.6,1.4,2.3c0.6,0.6,1.3,1.1,2.1,1.5c0.9,0.3,1.8,0.5,2.7,0.5c0.9,0,1.8-0.2,2.7-0.5c0.8-0.3,1.5-0.8,2.1-1.4
			c0.6-0.7,1-1.5,1.3-2.3c0.6-2,0.6-4.2,0-6.2c-0.3-0.9-0.7-1.6-1.3-2.3c-0.6-0.6-1.3-1.1-2.1-1.5C90.3,28.1,89.4,28,88.5,28
			L88.5,28z"/>
		<path class="st0" d="M127.4,26.8c-0.1,0-0.1,0.1-0.1,0.1l-4,8.4l-3.6-8.6h-0.8l-2.8,6.8l-3.2-6.6c0,0-0.1-0.1-0.1-0.1
			c-0.1,0-0.1,0-0.2,0H111v17.1h1.3c0.1,0,0.3-0.1,0.3-0.2l3.3-7.9l3.8,7.9c0.1,0.1,0.2,0.2,0.3,0.2h0.2c0.1,0,0.2-0.1,0.3-0.2
			l2.9-6.1l2.5,6.1c0,0.1,0.1,0.2,0.3,0.2h0.6l-2.9-7.1l0.5-1l3.3,7.9c0,0.1,0.1,0.2,0.3,0.2h1.4V26.8h-1.6
			C127.5,26.8,127.4,26.8,127.4,26.8z M112.4,42.4V28.7l3,6.3L112.4,42.4z M116.4,34.4l2.6-6.2l0.3-0.6l0.3,0.6l0.2,0.5l-2.7,6.7
			L116.4,34.4z M120.1,41.8l-2.7-5.6l2.7-6.6l2.7,6.5L120.1,41.8z M127.7,42.4l-3-7.4l3-6.3V42.4z"/>
		<path class="st0" d="M172,19.9v-3.5h-22v3.5h-0.9v0.6H173v-0.6H172z M171.4,19.9h-7V17h7V19.9z M163.8,19.9h-6.4V17h6.4V19.9z
			 M150.6,17h6.2v2.9h-6.2V17z"/>
		<polygon class="st0" points="167.4,4.3 166.7,4.3 167.4,5.2 168.1,5.2 		"/>
		<path class="st0" d="M160.1,27.1c-7.3,0-13.3-5.9-13.3-13.2s5.9-13.3,13.2-13.3c4.3,0,8.3,2,10.8,5.5h-5.2l-1.4-1.8h-0.8l1.4,1.8
			h-14.2l-1.6,8.3h0.6l1-5.1h9l-0.2,1.6c-0.3,1.7-1.8,2.8-3.4,2.6v0.6c2,0.2,3.8-1.2,4.1-3.2l0.3-2.3h-9.6l0.4-2h14.1l3.6,4.6
			l-1.1,2.5h0.7l0.9-1.9l1.5,1.9h0.8l-2-2.5l0.9-2.1H170l-0.7,1.5l-3.1-3.9h5.8l-0.2-0.4l0,0c0-0.1,0-0.1-0.1-0.2
			c-4.3-6.4-12.9-8.1-19.3-3.9s-8.1,12.9-3.9,19.3s12.9,8.1,19.3,3.9c1.4-1,2.7-2.2,3.7-3.6h-0.8C168.2,25.2,164.3,27.2,160.1,27.1z
			"/>
		<path class="st0" d="M51.3,54.8h0.6v2l0,0c0.2-0.4,0.7-0.6,1.1-0.6c0.8,0,1.3,0.7,1.3,1.6c0.1,0.8-0.5,1.6-1.3,1.7
			c0,0-0.1,0-0.1,0c-0.4,0-0.9-0.2-1.1-0.6l0,0v0.5h-0.5c0-0.2,0-0.5,0-0.8L51.3,54.8z M51.9,58.1c0,0.1,0,0.1,0,0.2
			c0.1,0.4,0.5,0.7,0.9,0.7c0.6,0,1-0.5,1-1.2s-0.3-1.2-1-1.2c-0.4,0-0.8,0.3-0.9,0.7c0,0.1,0,0.2,0,0.2V58.1z"/>
		<path class="st0" d="M56.1,56.2l0.7,1.9c0.1,0.2,0.2,0.4,0.2,0.6l0,0c0.1-0.2,0.1-0.4,0.2-0.7l0.6-1.9h0.6l-0.9,2.3
			c-0.2,0.7-0.6,1.4-1.1,2c-0.2,0.2-0.4,0.3-0.7,0.4l-0.1-0.5c0.2-0.1,0.4-0.2,0.5-0.3c0.2-0.2,0.4-0.4,0.5-0.6c0,0,0-0.1,0-0.1
			c0,0,0-0.1,0-0.2l-1.2-2.9L56.1,56.2z"/>
		<path class="st0" d="M64.6,53.8c0.4-0.1,0.9-0.1,1.4-0.1c0.5-0.1,1.1,0.1,1.6,0.4c0.3,0.2,0.5,0.6,0.5,1c0,0.6-0.4,1.1-1,1.2l0,0
			c0.7,0.1,1.2,0.7,1.2,1.4c0,0.4-0.2,0.8-0.5,1.1c-0.6,0.4-1.3,0.6-2,0.5c-0.4,0-0.8,0-1.1-0.1L64.6,53.8z M65.4,56.2H66
			c0.8,0,1.2-0.4,1.2-1s-0.5-0.9-1.2-0.9c-0.2,0-0.4,0-0.7,0L65.4,56.2z M65.4,58.9c0.2,0,0.4,0,0.6,0c0.8,0,1.5-0.3,1.5-1.1
			s-0.7-1.1-1.4-1.1h-0.6L65.4,58.9z"/>
		<path class="st0" d="M70.8,57.5c-0.1,0.7,0.5,1.3,1.2,1.4c0.1,0,0.2,0,0.2,0c0.4,0,0.8-0.1,1.1-0.2l0.1,0.5
			c-0.4,0.2-0.9,0.3-1.4,0.3c-1,0.1-1.9-0.7-2-1.8c0-0.1,0-0.2,0-0.3c-0.1-1.1,0.7-2.1,1.8-2.2c0,0,0.1,0,0.1,0
			c0.9,0,1.7,0.8,1.7,1.7c0,0.1,0,0.1,0,0.2c0,0.1,0,0.2,0,0.3H70.8z M73,57c0.1-0.6-0.3-1.1-0.9-1.2c0,0-0.1,0-0.1,0
			c-0.7,0-1.2,0.5-1.2,1.2H73z"/>
		<path class="st0" d="M75.8,53.4h0.7v6h-0.7V53.4z"/>
		<path class="st0" d="M79.8,54.2c0,0.2-0.2,0.4-0.4,0.5c0,0,0,0,0,0c-0.2,0-0.4-0.2-0.4-0.4c0,0,0,0,0,0c0-0.3,0.2-0.5,0.5-0.5
			C79.6,53.7,79.8,53.9,79.8,54.2z M78.9,59.4v-4.1h0.7v4.1H78.9z"/>
		<path class="st0" d="M82.1,56.4c0-0.4,0-0.8,0-1.1h0.7V56l0,0c0.3-0.5,0.8-0.8,1.3-0.8c0.6,0,1.4,0.3,1.4,1.7v2.4h-0.7v-2.3
			c0-0.7-0.2-1.2-0.9-1.2c-0.5,0-0.9,0.3-1,0.8c0,0.1,0,0.2,0,0.3v2.4h-0.7L82.1,56.4z"/>
		<path class="st0" d="M91.4,53.4v4.9c0,0.4,0,0.8,0,1h-0.7v-0.7l0,0c-0.3,0.5-0.8,0.8-1.4,0.8c-1-0.1-1.8-0.9-1.8-2
			c0,0,0-0.1,0-0.1c-0.1-1.1,0.7-2.1,1.8-2.2c0,0,0,0,0,0c0.5,0,1,0.2,1.2,0.6l0,0v-2.4H91.4z M90.7,57c0-0.1,0-0.2,0-0.3
			c-0.1-0.5-0.6-0.9-1.1-0.8c-0.8,0-1.2,0.7-1.2,1.6s0.4,1.5,1.2,1.5c0.5,0,1-0.4,1.1-0.9c0-0.1,0-0.2,0-0.3L90.7,57z"/>
		<path class="st0" d="M96.7,58.4c0,0.3,0,0.7,0.1,1h-0.7l-0.1-0.5l0,0c-0.3,0.4-0.8,0.6-1.2,0.6c-0.6,0-1.2-0.4-1.2-1.1
			c0,0,0-0.1,0-0.1c0-1,0.9-1.5,2.4-1.5v-0.1c0.1-0.5-0.3-0.9-0.7-0.9c-0.1,0-0.1,0-0.2,0c-0.4,0-0.8,0.1-1.1,0.3l-0.2-0.5
			c0.4-0.2,0.9-0.4,1.3-0.3c1.3,0,1.6,0.8,1.6,1.7L96.7,58.4z M96,57.3c-0.8,0-1.7,0.1-1.7,0.9c-0.1,0.4,0.2,0.7,0.5,0.7
			c0.1,0,0.1,0,0.2,0c0.4,0,0.9-0.3,1-0.7c0-0.1,0-0.2,0-0.3V57.3z"/>
		<path class="st0" d="M106,59.2c-0.5,0.2-1,0.3-1.5,0.3c-1.5,0.1-2.7-1-2.8-2.5c0-0.1,0-0.3,0-0.4c-0.1-1.6,1.1-2.9,2.6-3
			c0.1,0,0.2,0,0.4,0c0.5,0,0.9,0.1,1.3,0.3l-0.2,0.6c-0.4-0.2-0.7-0.2-1.1-0.2c-1.2-0.1-2.2,0.8-2.2,2c0,0.1,0,0.2,0,0.4
			c-0.1,1.1,0.7,2.1,1.8,2.3c0.1,0,0.2,0,0.4,0c0.4,0,0.8-0.1,1.2-0.2L106,59.2z"/>
		<path class="st0" d="M108.1,53.4h0.7V56l0,0c0.3-0.5,0.8-0.7,1.3-0.7c0.6,0,1.4,0.3,1.4,1.7v2.4h-0.7v-2.3c0-0.7-0.2-1.2-0.9-1.2
			c-0.5,0-0.9,0.3-1,0.7c0,0.1,0,0.2,0,0.4v2.5h-0.7L108.1,53.4z"/>
		<path class="st0" d="M116.8,58.4c0,0.3,0,0.7,0.1,1h-0.7l-0.1-0.5l0,0c-0.3,0.4-0.8,0.6-1.2,0.6c-0.6,0-1.2-0.4-1.2-1.1
			c0,0,0-0.1,0-0.1c0-1,0.9-1.5,2.4-1.5v-0.1c0.1-0.5-0.3-0.9-0.7-0.9c-0.1,0-0.1,0-0.2,0c-0.4,0-0.8,0.1-1.1,0.3l-0.2-0.5
			c0.4-0.2,0.9-0.4,1.3-0.3c1.2,0,1.5,0.8,1.5,1.7L116.8,58.4z M116.1,57.3c-0.8,0-1.7,0.1-1.7,0.9c0,0.4,0.2,0.7,0.6,0.7
			c0,0,0.1,0,0.1,0c0.4,0,0.9-0.3,1-0.7c0-0.1,0-0.2,0-0.2L116.1,57.3z"/>
		<path class="st0" d="M119.2,56.4c0-0.4,0-0.8,0-1.1h0.7V56l0,0c0.3-0.5,0.8-0.8,1.3-0.8c0.6,0,1.4,0.3,1.4,1.7v2.4h-0.7v-2.3
			c0-0.7-0.2-1.2-0.9-1.2c-0.5,0-0.9,0.3-1,0.8c0,0.1,0,0.2,0,0.3v2.4h-0.7L119.2,56.4z"/>
		<path class="st0" d="M128.5,58.8c0.1,0.7-0.1,1.4-0.6,1.9c-0.4,0.3-1,0.5-1.5,0.5c-0.5,0-0.9-0.1-1.3-0.3l0.2-0.6
			c0.4,0.2,0.8,0.3,1.2,0.3c0.8,0,1.3-0.4,1.3-1.4v-0.5l0,0c-0.3,0.4-0.8,0.7-1.3,0.7c-1,0-1.8-0.9-1.7-1.9c0,0,0-0.1,0-0.1
			c-0.1-1.1,0.7-2,1.7-2.1c0,0,0.1,0,0.1,0c0.5,0,1,0.2,1.3,0.7l0,0v-0.6h0.7c0,0.3,0,0.6,0,1.1L128.5,58.8z M127.8,57
			c0-0.6-0.4-1.1-1-1.1c0,0,0,0,0,0c-0.7,0-1.2,0.6-1.2,1.5s0.4,1.5,1.2,1.5c0.5,0,0.9-0.3,1-0.8c0-0.1,0.1-0.3,0.1-0.4L127.8,57z"
			/>
	</g>
</g>
</svg>
