<?xml version="1.0" encoding="utf-8"?>
<!-- Generator: Adobe Illustrator 23.0.1, SVG Export Plug-In . SVG Version: 6.00 Build 0)  -->
<svg version="1.1" id="Layer_1" xmlns="http://www.w3.org/2000/svg" xmlns:xlink="http://www.w3.org/1999/xlink" x="0px" y="0px"
	 viewBox="0 0 236.5 62.6" style="enable-background:new 0 0 236.5 62.6;" xml:space="preserve">
<style type="text/css">
	.st0{fill:#6D6E71;}
</style>
<title>Asset 18</title>
<g>
	<g id="Layer_1-2">
		<polygon class="st0" points="0,42.9 0,26.3 10.4,26.3 10.4,27.5 1.5,27.5 1.5,33.9 8.9,33.9 8.9,35.1 1.5,35.1 1.5,41.6 
			10.4,41.6 10.4,42.9 		"/>
		<path class="st0" d="M62.1,42.9V26.3h5c0.9,0,1.7,0.1,2.5,0.3c0.6,0.2,1.3,0.4,1.8,0.8c0.5,0.4,0.8,0.8,1.1,1.4
			c0.2,0.6,0.4,1.2,0.3,1.8c0,0.4-0.1,0.9-0.2,1.3c-0.2,0.4-0.4,0.8-0.7,1.2c-0.3,0.4-0.7,0.7-1.1,0.9c-0.3,0.2-0.6,0.3-0.9,0.4
			c0.9,0.2,1.8,0.6,2.5,1.2c0.8,0.7,1.2,1.7,1.1,2.7c0,0.7-0.1,1.3-0.4,1.9c-0.3,0.6-0.6,1.1-1.1,1.5c-0.5,0.4-1.2,0.7-1.8,0.9
			c-0.8,0.2-1.6,0.3-2.4,0.3H62.1z M67.7,41.7c1.2,0.1,2.3-0.2,3.3-0.9c0.7-0.6,1.1-1.5,1.1-2.5c0-0.5-0.1-0.9-0.3-1.3
			c-0.2-0.4-0.5-0.7-0.8-1c-0.4-0.3-0.9-0.5-1.3-0.6c-0.6-0.2-1.2-0.2-1.8-0.2h-4.1v6.6H67.7z M67.1,33.9c0.6,0,1.3-0.1,1.9-0.3
			c0.5-0.2,0.9-0.4,1.3-0.7c0.3-0.3,0.6-0.6,0.7-1c0.2-0.4,0.2-0.8,0.2-1.2c0.1-0.9-0.3-1.8-1-2.4c-1-0.6-2.1-0.9-3.2-0.8h-3.5v6.4
			L67.1,33.9z"/>
		<path class="st0" d="M101,42.9c-0.1,0-0.3,0-0.4-0.1c-0.1-0.1-0.2-0.2-0.3-0.3l-5.4-6.6c-0.1-0.1-0.2-0.2-0.4-0.3
			c-0.2-0.1-0.4-0.1-0.7-0.1h-2v7.4h-1.5V26.3h4.4c1.6-0.1,3.1,0.3,4.4,1.1c1,0.8,1.6,2,1.5,3.3c0,0.6-0.1,1.2-0.3,1.8
			c-0.2,0.5-0.6,1-1,1.4c-0.5,0.4-1,0.8-1.5,1c-0.5,0.2-1.1,0.4-1.7,0.5c0.1,0.1,0.2,0.2,0.3,0.3l6,7.3L101,42.9z M94.6,34.3
			c0.7,0,1.3-0.1,2-0.3c0.5-0.2,1-0.4,1.4-0.7c0.4-0.3,0.7-0.7,0.9-1.1c0.2-0.5,0.3-1,0.3-1.5c0.1-1-0.4-1.9-1.1-2.5
			c-1-0.6-2.2-0.9-3.3-0.8h-3v6.8H94.6z"/>
		<path class="st0" d="M133.4,42.9c-0.1,0-0.3,0-0.4-0.1c-0.1-0.1-0.2-0.2-0.2-0.3l-1.9-4.7h-8.1l-1.9,4.7c0,0.1-0.1,0.2-0.2,0.3
			c-0.1,0.1-0.2,0.1-0.4,0.1h-1.1l7-16.6h1.4l7,16.6H133.4z M130.4,36.7l-3.3-8l-0.2-0.5v-0.1c0,0,0,0.1,0,0.1s-0.1,0.3-0.2,0.5
			l-3.3,8L130.4,36.7z"/>
		<path class="st0" d="M159.4,43.1c-1.1,0-2.2-0.2-3.3-0.6c-1-0.4-1.8-1-2.5-1.7c-0.7-0.8-1.3-1.7-1.6-2.7c-0.4-1.1-0.6-2.3-0.6-3.5
			c0-1.2,0.2-2.3,0.6-3.4c0.8-2,2.3-3.6,4.4-4.4c1.1-0.4,2.2-0.6,3.4-0.6c0.6,0,1.1,0,1.7,0.1c0.5,0.1,1,0.2,1.4,0.4
			c0.4,0.2,0.9,0.4,1.3,0.6c0.4,0.3,0.8,0.5,1.2,0.9l0.1,0.1l-0.4,0.6c-0.1,0.1-0.2,0.2-0.4,0.2c-0.1,0-0.3-0.1-0.4-0.1l-0.4-0.3
			c-0.2-0.1-0.4-0.3-0.6-0.4c-0.3-0.1-0.5-0.3-0.8-0.4c-0.4-0.1-0.7-0.2-1.1-0.3c-0.5-0.1-1-0.1-1.5-0.1c-0.9,0-1.9,0.2-2.8,0.5
			c-0.8,0.3-1.5,0.8-2.1,1.4c-0.6,0.7-1.1,1.4-1.4,2.3c-0.3,1-0.5,2-0.5,3c0,1,0.2,2,0.5,3c0.3,0.8,0.8,1.6,1.4,2.3
			c0.6,0.6,1.3,1.1,2.1,1.4c0.8,0.3,1.7,0.5,2.6,0.5c0.5,0,1.1,0,1.6-0.1c0.4-0.1,0.9-0.2,1.3-0.3c0.4-0.1,0.7-0.3,1.1-0.5
			c0.4-0.2,0.7-0.5,1-0.8l0.1-0.1c0.1,0,0.1,0,0.2,0c0.1,0,0.2,0,0.3,0.1l0.6,0.6l-0.1,0.1c-0.4,0.4-0.7,0.7-1.2,1
			c-0.4,0.3-0.9,0.6-1.4,0.8c-0.5,0.2-1.1,0.4-1.6,0.5C160.7,43,160,43.1,159.4,43.1z"/>
		<polygon class="st0" points="182.4,42.9 182.4,26.3 192.7,26.3 192.7,27.5 183.9,27.5 183.9,33.9 191.2,33.9 191.2,35.1 
			183.9,35.1 183.9,41.6 192.7,41.6 192.7,42.9 		"/>
		<path class="st0" d="M43.5,26.3c-0.1,0-0.1,0.1-0.1,0.1l-4,8.2l-3.6-8.3H35l-2.8,6.6L29,26.4c0-0.1-0.1-0.1-0.1-0.1
			c-0.1,0-0.1,0-0.2,0h-1.6v16.6h1.3c0.1,0,0.3-0.1,0.3-0.2L32,35l3.8,7.7c0.1,0.1,0.2,0.2,0.3,0.2h0.2c0.1,0,0.2-0.1,0.3-0.2
			l2.9-5.9l2.5,5.9c0,0.1,0.1,0.2,0.3,0.2h0.6L40,36l0.5-1l3.2,7.6c0,0.1,0.1,0.2,0.3,0.2h1.3V26.3h-1.6
			C43.6,26.3,43.6,26.3,43.5,26.3z M28.6,41.4V28.1l3.1,6.1L28.6,41.4z M32.6,33.7l2.5-6l0.3-0.6l0.3,0.6l0.2,0.5l-2.8,6.5
			L32.6,33.7z M36.2,40.9l-2.7-5.4l2.8-6.5l2.8,6.4L36.2,40.9z M43.8,41.4l-3-7.2l3-6.1V41.4z"/>
		<path class="st0" d="M236.5,19.3h-5v-2.4h4.2v-0.6h-4.2V14h4.2v-0.6h-4.2v-2.2h4.2v-0.6h-4.2V9.1h-0.6v1.6h-4.2V9.1l-1.2,1.3v0.9
			l0.6-0.6v9.4h9.5c-3.3,6.5-11.3,9.1-17.8,5.8c-4-2-6.7-6-7.2-10.5l0,0l2.9-0.6v5.6h0.6v-5.7l3.1-0.6v-0.6L214,14V9.7h3.1V9.1H214
			V4.9c4.9-5.4,13.3-5.8,18.7-0.8c0.7,0.7,1.4,1.4,1.9,2.2h-7.7V4.8h-0.6v1.5h-8.8v0.6h2.1l-2.1,5.1h2.2l-2.3,4.5h2.9l-2.1,3.9h0.7
			l3.6-6.4h-0.7l-1.1,2h-2.2l2.3-4.5h-2.3l1.9-4.5h15.3l-0.1-0.3l-0.1-0.1l0,0c0,0-0.1-0.1-0.1-0.1l0,0l0,0
			c-4.2-6.4-12.8-8.2-19.2-4.1s-8.2,12.8-4.1,19.2s12.8,8.2,19.2,4.1c2.2-1.4,4-3.5,5.1-5.9l0,0L236.5,19.3z M213.4,9.1h-2
			c0.5-1.3,1.2-2.5,2-3.6V9.1z M211.1,9.7h2.3v4.4l-2.9,0.6c0-0.3,0-0.5,0-0.8C210.5,12.5,210.7,11.1,211.1,9.7z M230.9,16.3h-4.2
			V14h4.2V16.3z M230.9,11.2v2.2h-4.2v-2.2H230.9z M226.6,16.9h4.2v2.4h-4.2V16.9z"/>
		<path class="st0" d="M99,54.4h0.6v2l0,0c0.2-0.4,0.6-0.6,1.1-0.6c0.8,0,1.3,0.7,1.3,1.6c0.1,0.8-0.5,1.6-1.3,1.7c0,0-0.1,0-0.1,0
			c-0.4,0-0.9-0.2-1.1-0.6l0,0v0.5H99c0-0.2,0-0.5,0-0.8V54.4z M99.6,57.8c0,0.1,0,0.1,0,0.2c0.1,0.4,0.4,0.7,0.9,0.7
			c0.6,0,1-0.5,1-1.2s-0.3-1.2-0.9-1.2c-0.4,0-0.8,0.3-0.9,0.7c0,0.1,0,0.2,0,0.2L99.6,57.8z"/>
		<path class="st0" d="M103.8,55.9l0.7,1.9c0.1,0.2,0.2,0.5,0.2,0.6l0,0c0.1-0.2,0.1-0.4,0.2-0.7l0.6-1.9h0.6l-0.9,2.3
			c-0.2,0.7-0.6,1.4-1.1,2c-0.2,0.2-0.4,0.3-0.7,0.4l-0.2-0.5c0.2-0.1,0.4-0.1,0.5-0.3c0.2-0.2,0.4-0.4,0.5-0.6c0,0,0-0.1,0-0.1
			c0,0,0-0.1,0-0.2l-1.2-2.9L103.8,55.9z"/>
		<path class="st0" d="M117.1,56.6c0-0.8-0.1-1.8-0.1-2.4l0,0c-0.2,0.7-0.4,1.4-0.7,2.2l-1,2.8h-0.6l-0.9-2.7
			c-0.3-0.8-0.5-1.5-0.6-2.2l0,0c0,0.7-0.1,1.7-0.1,2.5l-0.2,2.4h-0.7l0.4-5.7h0.9l1,2.7c0.2,0.7,0.4,1.3,0.6,1.9l0,0
			c0.2-0.6,0.3-1.2,0.6-1.9l1-2.7h0.9l0.4,5.7h-0.7L117.1,56.6z"/>
		<path class="st0" d="M123.1,58.1c0,0.3,0,0.7,0.1,1h-0.7l-0.1-0.5l0,0c-0.3,0.4-0.8,0.6-1.2,0.6c-0.6,0-1.2-0.5-1.2-1.1
			c0,0,0-0.1,0-0.1c0-1,0.9-1.5,2.4-1.5v-0.1c0.1-0.5-0.3-0.9-0.7-0.9c-0.1,0-0.1,0-0.2,0c-0.4,0-0.7,0.1-1.1,0.3l-0.2-0.5
			c0.4-0.2,0.9-0.4,1.3-0.3c1.3,0,1.6,0.8,1.6,1.7L123.1,58.1z M122.4,57c-0.8,0-1.7,0.1-1.7,0.9c0,0.4,0.2,0.7,0.6,0.7
			c0,0,0.1,0,0.1,0c0.4,0,0.9-0.3,1-0.7c0-0.1,0-0.2,0-0.2L122.4,57z"/>
		<path class="st0" d="M125.5,56.3c0-0.5,0-0.9,0-1.3h0.7v0.8l0,0c0.1-0.5,0.6-0.9,1.1-0.9h0.2v0.7h-0.3c-0.5,0-1,0.4-1,0.9
			c0,0.1,0,0.2,0,0.3V59h-0.7L125.5,56.3z"/>
		<path class="st0" d="M130.3,53.8c0,0.2-0.2,0.4-0.4,0.5c0,0,0,0,0,0c-0.2,0-0.4-0.2-0.4-0.4c0,0,0,0,0,0c0-0.2,0.2-0.5,0.4-0.5
			c0,0,0,0,0,0C130.1,53.4,130.3,53.6,130.3,53.8C130.3,53.8,130.3,53.8,130.3,53.8z M129.5,59.1V55h0.7v4.1L129.5,59.1z"/>
		<path class="st0" d="M133,57.2c-0.1,0.7,0.5,1.3,1.2,1.4c0.1,0,0.1,0,0.2,0c0.4,0,0.8-0.1,1.1-0.2l0.1,0.5
			c-0.4,0.2-0.9,0.3-1.4,0.3c-1,0.1-1.9-0.7-2-1.8c0-0.1,0-0.2,0-0.3c-0.1-1.1,0.7-2.1,1.8-2.2c0,0,0.1,0,0.1,0
			c0.9,0,1.7,0.8,1.7,1.7c0,0.1,0,0.1,0,0.2c0,0.1,0,0.2,0,0.3H133z M135.2,56.6c0.1-0.6-0.3-1.1-0.9-1.2c0,0-0.1,0-0.1,0
			c-0.6,0-1.1,0.6-1.1,1.2H135.2z"/>
		<path class="st0" d="M141,53.5c0.4-0.1,0.9-0.1,1.3-0.1c0.6-0.1,1.1,0.1,1.6,0.4c0.3,0.2,0.5,0.6,0.5,1c0,0.6-0.4,1.1-1,1.2l0,0
			c0.7,0.1,1.2,0.7,1.2,1.4c0,0.4-0.2,0.8-0.5,1.1c-0.6,0.4-1.3,0.6-2,0.5c-0.4,0-0.8,0-1.1-0.1L141,53.5z M141.7,55.8h0.7
			c0.8,0,1.2-0.4,1.2-1s-0.5-0.9-1.2-0.9c-0.2,0-0.4,0-0.6,0L141.7,55.8z M141.7,58.5c0.2,0,0.4,0,0.6,0c0.8,0,1.5-0.3,1.5-1.1
			s-0.7-1.1-1.5-1.1h-0.6V58.5z"/>
		<path class="st0" d="M150.4,57c0.1,1.1-0.7,2.1-1.8,2.2c-0.1,0-0.1,0-0.2,0c-1.1,0-1.9-0.9-2-1.9c0-0.1,0-0.1,0-0.2
			c-0.1-1.1,0.7-2.1,1.8-2.1c0.1,0,0.1,0,0.2,0c1.1,0,1.9,0.8,2,1.9C150.4,56.9,150.4,56.9,150.4,57z M147.2,57
			c0,0.9,0.5,1.6,1.2,1.6s1.2-0.7,1.2-1.6c0-0.7-0.3-1.6-1.2-1.6S147.2,56.3,147.2,57z"/>
		<path class="st0" d="M152.6,53.1h0.7v6h-0.7V53.1z"/>
		<path class="st0" d="M156.6,54v1h1.1v0.6h-1.1v2.2c0,0.5,0.1,0.8,0.6,0.8c0.1,0,0.3,0,0.4,0v0.6c-0.2,0.1-0.4,0.1-0.7,0.1
			c-0.3,0-0.6-0.1-0.8-0.3c-0.2-0.3-0.3-0.7-0.3-1.1v-2.3h-0.6V55h0.6v-0.8L156.6,54z"/>
		<path class="st0" d="M160,57.2c-0.1,0.7,0.5,1.3,1.2,1.4c0.1,0,0.1,0,0.2,0c0.4,0,0.8-0.1,1.1-0.2l0.1,0.5
			c-0.4,0.2-0.9,0.3-1.4,0.3c-1,0.1-1.9-0.7-2-1.8c0-0.1,0-0.2,0-0.3c-0.1-1.1,0.7-2.1,1.8-2.2c0,0,0.1,0,0.1,0
			c0.9,0,1.7,0.8,1.7,1.7c0,0.1,0,0.1,0,0.2c0,0.1,0,0.2,0,0.3H160z M162.2,56.6c0.1-0.5-0.2-1.1-0.8-1.2c-0.1,0-0.1,0-0.2,0
			c-0.6,0-1.1,0.6-1.1,1.2H162.2z"/>
		<path class="st0" d="M165,56.1c0-0.4,0-0.8,0-1.1h0.7v0.7l0,0c0.3-0.5,0.8-0.8,1.3-0.8c0.6,0,1.4,0.3,1.4,1.7v2.4h-0.7v-2.3
			c0-0.7-0.3-1.2-0.9-1.2c-0.5,0-0.9,0.3-1,0.8c0,0.1-0.1,0.2-0.1,0.3v2.4H165V56.1z"/>
		<path class="st0" d="M170.8,58.3c0.3,0.2,0.6,0.3,1,0.3c0.5,0,0.8-0.3,0.8-0.6s-0.2-0.5-0.8-0.7c-0.7-0.3-1.1-0.7-1.1-1.2
			c0-0.7,0.6-1.2,1.3-1.2c0,0,0.1,0,0.1,0c0.3,0,0.7,0.1,1,0.3l-0.2,0.5c-0.2-0.2-0.5-0.2-0.8-0.2c-0.4,0-0.7,0.3-0.7,0.5
			s0.2,0.5,0.8,0.7c0.7,0.3,1.1,0.6,1.1,1.2s-0.6,1.2-1.5,1.2c-0.4,0-0.8-0.1-1.1-0.3L170.8,58.3z"/>
		<path class="st0" d="M176.3,54v1h1.1v0.6h-1.1v2.2c0,0.5,0.1,0.8,0.6,0.8c0.1,0,0.3,0,0.4,0v0.6c-0.2,0.1-0.4,0.1-0.7,0.1
			c-0.3,0-0.6-0.1-0.8-0.3c-0.2-0.3-0.3-0.7-0.3-1.1v-2.3h-0.6V55h0.6v-0.8L176.3,54z"/>
		<path class="st0" d="M179.7,57.2c-0.1,0.7,0.5,1.3,1.2,1.4c0.1,0,0.2,0,0.2,0c0.4,0,0.8-0.1,1.1-0.2l0.1,0.5
			c-0.4,0.2-0.9,0.3-1.4,0.3c-1,0.1-1.9-0.7-2-1.8c0-0.1,0-0.2,0-0.3c-0.1-1.1,0.7-2.1,1.8-2.2c0,0,0.1,0,0.1,0
			c0.9,0,1.7,0.8,1.7,1.7c0,0.1,0,0.1,0,0.2c0,0.1,0,0.2,0,0.3H179.7z M181.9,56.6c0.1-0.6-0.3-1.1-0.9-1.2c0,0-0.1,0-0.1,0
			c-0.6,0-1.1,0.6-1.1,1.2H181.9z"/>
		<path class="st0" d="M184.7,56.3c0-0.5,0-0.9,0-1.3h0.6v0.8l0,0c0.1-0.5,0.6-0.9,1.1-0.9h0.2v0.7h-0.3c-0.5,0-1,0.4-1,0.9
			c0,0.1,0,0.2,0,0.3V59h-0.7L184.7,56.3z"/>
		<path class="st0" d="M188.6,56.1c0-0.4,0-0.8,0-1.1h0.7v0.7l0,0c0.3-0.5,0.8-0.8,1.4-0.8c0.6,0,1.4,0.3,1.4,1.7v2.4h-0.7v-2.3
			c0-0.7-0.3-1.2-0.9-1.2c-0.5,0-0.9,0.3-1,0.8c0,0.1-0.1,0.2-0.1,0.3v2.4h-0.7L188.6,56.1z"/>
	</g>
</g>
</svg>
