<?xml version="1.0" encoding="utf-8"?>
<!-- Generator: Adobe Illustrator 23.0.1, SVG Export Plug-In . SVG Version: 6.00 Build 0)  -->
<svg version="1.1" id="Layer_1" xmlns="http://www.w3.org/2000/svg" xmlns:xlink="http://www.w3.org/1999/xlink" x="0px" y="0px"
	 viewBox="0 0 316.6 62.6" style="enable-background:new 0 0 316.6 62.6;" xml:space="preserve">
<style type="text/css">
	.st0{fill:#6D6E71;}
</style>
<title>Asset 13</title>
<g>
	<g id="Layer_1-2">
		<polygon class="st0" points="49.3,44.3 49.3,28.3 43,28.3 43,27 57.2,27 57.2,28.3 50.9,28.3 50.9,44.3 		"/>
		<rect x="77.3" y="27" class="st0" width="1.6" height="17.3"/>
		<polygon class="st0" points="138.5,44.3 138.5,27 149.5,27 149.5,28.3 140.1,28.3 140.1,34.9 147.9,34.9 147.9,36.2 140.1,36.2 
			140.1,43 149.5,43 149.5,44.3 		"/>
		<polygon class="st0" points="169.7,44.3 169.7,27 171.3,27 171.3,43 179.7,43 179.7,44.3 		"/>
		<polygon class="st0" points="199.9,44.3 199.9,27 210.9,27 210.9,28.3 201.5,28.3 201.5,34.9 209.3,34.9 209.3,36.2 201.5,36.2 
			201.5,43 210.9,43 210.9,44.3 		"/>
		<path class="st0" d="M236.5,44.5c-1.1,0-2.1-0.2-3.1-0.6c-0.9-0.4-1.6-1-2.3-1.7l-0.1-0.1l0.4-0.6c0.1-0.2,0.3-0.2,0.5-0.3
			c0.1,0,0.3,0.1,0.4,0.2l0.4,0.4c0.2,0.1,0.4,0.3,0.6,0.5c0.2,0.2,0.5,0.3,0.8,0.4c0.7,0.3,1.6,0.5,2.4,0.5c0.6,0,1.2-0.1,1.8-0.3
			c0.5-0.2,1-0.5,1.4-0.8c0.4-0.3,0.7-0.7,0.8-1.2c0.2-0.5,0.3-1,0.3-1.5c0-0.5-0.1-1-0.4-1.4c-0.3-0.4-0.6-0.7-1-0.9
			c-0.4-0.3-0.9-0.5-1.4-0.6l-1.6-0.5c-0.6-0.2-1.1-0.3-1.7-0.6c-0.5-0.2-1-0.5-1.5-0.8c-0.4-0.3-0.8-0.8-1.1-1.3
			c-0.3-0.6-0.4-1.2-0.4-1.9c0-0.6,0.1-1.2,0.4-1.7c0.2-0.5,0.6-1,1-1.5c0.5-0.4,1.1-0.8,1.7-1c0.7-0.3,1.5-0.4,2.3-0.4
			c0.9,0,1.7,0.1,2.6,0.4c0.8,0.3,1.5,0.7,2.1,1.3l0.1,0.1l-0.4,0.6c-0.1,0.2-0.3,0.3-0.5,0.3c-0.2,0-0.4-0.1-0.5-0.3
			c-0.2-0.2-0.4-0.3-0.7-0.5c-0.3-0.2-0.7-0.4-1.1-0.5c-0.5-0.2-1-0.2-1.6-0.2c-0.6,0-1.1,0.1-1.7,0.3c-0.4,0.1-0.8,0.4-1.2,0.7
			c-0.3,0.3-0.6,0.6-0.7,1c-0.2,0.4-0.2,0.8-0.2,1.2c0,0.5,0.1,1,0.4,1.4c0.3,0.4,0.6,0.7,1,0.9c0.4,0.3,0.9,0.5,1.4,0.7l1.6,0.5
			c0.6,0.2,1.1,0.4,1.6,0.6c0.5,0.2,1,0.5,1.5,0.8c0.4,0.3,0.8,0.8,1.1,1.2c0.3,0.6,0.4,1.2,0.4,1.8c0,0.7-0.1,1.4-0.4,2.1
			c-0.3,0.6-0.6,1.2-1.1,1.7c-0.5,0.5-1.2,0.9-1.8,1.1C238.1,44.4,237.3,44.5,236.5,44.5z"/>
		<path class="st0" d="M268,44.5c-1.1,0-2.1-0.2-3.1-0.6c-0.9-0.4-1.6-1-2.3-1.7l-0.1-0.1l0.4-0.6c0.1-0.2,0.3-0.2,0.5-0.3
			c0.1,0,0.3,0.1,0.4,0.2l0.4,0.4c0.2,0.1,0.4,0.3,0.6,0.5c0.2,0.2,0.5,0.3,0.8,0.4c0.7,0.3,1.6,0.5,2.4,0.5c0.6,0,1.2-0.1,1.8-0.3
			c0.5-0.2,1-0.5,1.4-0.8c0.4-0.3,0.7-0.7,0.8-1.2c0.2-0.5,0.3-1,0.3-1.5c0-0.5-0.1-1-0.4-1.4c-0.3-0.4-0.6-0.7-1-0.9
			c-0.4-0.3-0.9-0.5-1.4-0.6l-1.6-0.5c-0.6-0.2-1.1-0.4-1.7-0.6c-0.5-0.2-1-0.5-1.5-0.8c-0.4-0.3-0.8-0.8-1.1-1.3
			c-0.3-0.6-0.4-1.2-0.4-1.9c0-0.6,0.1-1.2,0.4-1.7c0.2-0.5,0.6-1,1-1.5c0.5-0.4,1.1-0.8,1.7-1c0.7-0.3,1.5-0.4,2.3-0.4
			c0.9,0,1.7,0.1,2.6,0.4c0.8,0.3,1.5,0.7,2.1,1.3l0.1,0.1l-0.4,0.6c-0.1,0.2-0.3,0.3-0.5,0.3c-0.2,0-0.4-0.1-0.5-0.3
			c-0.2-0.2-0.4-0.3-0.7-0.5c-0.3-0.2-0.7-0.4-1.1-0.5c-0.5-0.2-1-0.2-1.6-0.2c-0.6,0-1.1,0.1-1.7,0.3c-0.4,0.1-0.8,0.4-1.2,0.7
			c-0.3,0.3-0.6,0.6-0.7,1c-0.2,0.4-0.3,0.8-0.3,1.2c0,0.5,0.1,1,0.4,1.4c0.3,0.4,0.6,0.7,1,0.9c0.4,0.3,0.9,0.5,1.4,0.7l1.6,0.5
			c0.6,0.2,1.1,0.4,1.6,0.6c0.5,0.2,1,0.5,1.5,0.8c0.4,0.3,0.8,0.8,1.1,1.2c0.3,0.6,0.4,1.2,0.4,1.8c0,0.7-0.1,1.4-0.4,2.1
			c-0.3,0.6-0.6,1.2-1.1,1.7c-0.5,0.5-1.2,0.9-1.8,1.1C269.6,44.4,268.8,44.5,268,44.5z"/>
		<path class="st0" d="M116.5,27c-0.1,0-0.1,0.1-0.1,0.1l-4.3,8.5l-3.8-8.7h-0.8l-3,6.9l-3.4-6.7c0-0.1-0.1-0.1-0.1-0.1
			c-0.1,0-0.1,0-0.2,0h-1.7v17.4h1.4c0.1,0,0.3-0.1,0.3-0.2l3.4-8l4,8c0.1,0.1,0.2,0.2,0.3,0.2h0.2c0.1,0,0.3-0.1,0.3-0.2l3.2-6.1
			l2.6,6.2c0,0.1,0.2,0.2,0.3,0.2h0.6l-3.1-7.2l0.5-1l3.4,8c0,0.1,0.2,0.2,0.3,0.2h1.4V26.9h-1.7C116.6,26.9,116.5,27,116.5,27z
			 M100.6,42.8V28.9l3.2,6.4L100.6,42.8z M104.9,34.6l2.7-6.2l0.3-0.6l0.3,0.6l0.2,0.5l-2.9,6.8L104.9,34.6z M108.7,42.2l-2.9-5.7
			l2.9-6.7l2.9,6.6L108.7,42.2z M116.8,42.8l-3.2-7.5l3.2-6.4V42.8z"/>
		<polygon class="st0" points="297.8,6.7 297.2,6.7 297.2,12.6 294.7,11.9 294.7,8.2 294.1,8.2 294.1,17.7 294.7,17.7 294.7,12.5 
			297.2,13.2 297.2,20.5 297.8,20.5 297.8,13.4 299.1,13.8 299.1,13.1 297.8,12.7 		"/>
		<path class="st0" d="M316,19.6l-2.6,0l2.4-4.6c0.4-0.7,0.4-1.6,0.1-2.3c-0.4-0.9-1.3-1.6-2.3-1.8L303,8.3l0.4-0.8l12.7,0.1l0,0
			h0.5c-3.3-6.7-11.4-9.5-18.1-6.1s-9.5,11.4-6.1,18.1c3.3,6.7,11.4,9.5,18.1,6.1c2.7-1.3,4.8-3.5,6.1-6.1L316,19.6L316,19.6z
			 M313.6,17.9l-11.6-3c-0.6-0.1-1.1-0.5-1.3-1c-0.2-0.4-0.2-0.9,0-1.3l0.4-0.8l13.7,3.7L313.6,17.9z M313.4,11.6
			c0.8,0.2,1.5,0.7,1.9,1.4c0.3,0.6,0.2,1.3-0.1,1.8l-0.1,0.1l-13.7-3.7l1.3-2.5L313.4,11.6z M304.5,26.6c-7.2,0-13-5.8-13-13
			c0-7.2,5.8-13,13-13c4.6,0,8.9,2.4,11.2,6.4L300,6.9v0.6h2.8l-2.5,4.8c-0.3,0.6-0.3,1.2,0,1.8c0.3,0.7,1,1.2,1.7,1.4l11.4,3
			l-0.6,1.2L300,19.6v0.6l15.7,0.1C313.3,24.1,309.1,26.6,304.5,26.6L304.5,26.6z"/>
	</g>
</g>
</svg>
