<?xml version="1.0" encoding="utf-8"?>
<!-- Generator: Adobe Illustrator 23.0.1, SVG Export Plug-In . SVG Version: 6.00 Build 0)  -->
<svg version="1.1" id="Layer_1" xmlns="http://www.w3.org/2000/svg" xmlns:xlink="http://www.w3.org/1999/xlink" x="0px" y="0px"
	 viewBox="0 0 279.5 62.6" style="enable-background:new 0 0 279.5 62.6;" xml:space="preserve">
<style type="text/css">
	.st0{fill:#6D6E71;}
</style>
<title>Asset 18</title>
<g>
	<g id="Layer_1-2">
		<polygon class="st0" points="43,42.9 43,26.3 53.4,26.3 53.4,27.5 44.5,27.5 44.5,33.9 51.9,33.9 51.9,35.1 44.5,35.1 44.5,41.6 
			53.4,41.6 53.4,42.9 		"/>
		<path class="st0" d="M105.1,42.9V26.3h5c0.9,0,1.7,0.1,2.5,0.3c0.6,0.2,1.3,0.4,1.8,0.8c0.5,0.4,0.8,0.8,1.1,1.4
			c0.2,0.6,0.4,1.2,0.3,1.8c0,0.4-0.1,0.9-0.2,1.3c-0.2,0.4-0.4,0.8-0.7,1.2c-0.3,0.4-0.7,0.7-1.1,0.9c-0.3,0.2-0.6,0.3-0.9,0.4
			c0.9,0.2,1.8,0.6,2.5,1.2c0.8,0.7,1.2,1.7,1.1,2.7c0,0.7-0.1,1.3-0.4,1.9c-0.3,0.6-0.6,1.1-1.1,1.5c-0.5,0.4-1.2,0.7-1.8,0.9
			c-0.8,0.2-1.6,0.3-2.4,0.3H105.1z M110.7,41.7c1.2,0.1,2.3-0.2,3.3-0.9c0.7-0.6,1.1-1.5,1.1-2.5c0-0.5-0.1-0.9-0.3-1.3
			c-0.2-0.4-0.5-0.7-0.8-1c-0.4-0.3-0.9-0.5-1.3-0.6c-0.6-0.2-1.2-0.2-1.8-0.2h-4.1v6.6H110.7z M110.1,33.9c0.6,0,1.3-0.1,1.9-0.3
			c0.5-0.2,0.9-0.4,1.3-0.7c0.3-0.3,0.6-0.6,0.7-1c0.2-0.4,0.2-0.8,0.2-1.2c0.1-0.9-0.3-1.8-1-2.4c-1-0.6-2.1-0.9-3.2-0.8h-3.5v6.4
			L110.1,33.9z"/>
		<path class="st0" d="M144,42.9c-0.1,0-0.3,0-0.4-0.1c-0.1-0.1-0.2-0.2-0.3-0.3l-5.4-6.6c-0.1-0.1-0.2-0.2-0.4-0.3
			c-0.2-0.1-0.4-0.1-0.7-0.1h-2v7.4h-1.5V26.3h4.4c1.6-0.1,3.1,0.3,4.4,1.1c1,0.8,1.6,2,1.5,3.3c0,0.6-0.1,1.2-0.3,1.8
			c-0.2,0.5-0.6,1-1,1.4c-0.5,0.4-1,0.8-1.5,1c-0.5,0.2-1.1,0.4-1.7,0.5c0.1,0.1,0.2,0.2,0.3,0.3l6,7.3L144,42.9z M137.6,34.3
			c0.7,0,1.3-0.1,2-0.3c0.5-0.2,1-0.4,1.4-0.7c0.4-0.3,0.7-0.7,0.9-1.1c0.2-0.5,0.3-1,0.3-1.5c0.1-1-0.4-1.9-1.1-2.5
			c-1-0.6-2.2-0.9-3.3-0.8h-3v6.8H137.6z"/>
		<path class="st0" d="M176.4,42.9c-0.1,0-0.3,0-0.4-0.1c-0.1-0.1-0.2-0.2-0.2-0.3l-1.9-4.7h-8.1l-1.9,4.7c0,0.1-0.1,0.2-0.2,0.3
			c-0.1,0.1-0.2,0.1-0.4,0.1h-1.1l7-16.6h1.4l7,16.6H176.4z M173.4,36.7l-3.4-8l-0.2-0.5v-0.1c0,0,0,0.1,0,0.1s-0.1,0.3-0.2,0.5
			l-3.3,8L173.4,36.7z"/>
		<path class="st0" d="M202.4,43.1c-1.1,0-2.2-0.2-3.3-0.6c-1-0.4-1.8-1-2.5-1.7c-0.7-0.8-1.3-1.7-1.6-2.7c-0.4-1.1-0.6-2.3-0.6-3.5
			c0-1.2,0.2-2.3,0.6-3.4c0.8-2,2.3-3.6,4.4-4.4c1.1-0.4,2.2-0.6,3.4-0.6c0.6,0,1.1,0,1.7,0.1c0.5,0.1,1,0.2,1.4,0.4
			c0.4,0.2,0.9,0.4,1.3,0.6c0.4,0.3,0.8,0.5,1.2,0.9l0.1,0.1l-0.4,0.6c-0.1,0.1-0.2,0.2-0.4,0.2c-0.1,0-0.3-0.1-0.4-0.1l-0.4-0.3
			c-0.2-0.1-0.4-0.3-0.6-0.4c-0.3-0.1-0.5-0.3-0.8-0.4c-0.4-0.1-0.7-0.2-1.1-0.3c-0.5-0.1-1-0.1-1.5-0.1c-0.9,0-1.9,0.2-2.8,0.5
			c-0.8,0.3-1.5,0.8-2.1,1.4c-0.6,0.7-1.1,1.4-1.4,2.3c-0.3,1-0.5,2-0.5,3c0,1,0.2,2,0.5,3c0.3,0.8,0.8,1.6,1.4,2.3
			c0.6,0.6,1.3,1.1,2.1,1.4c0.8,0.3,1.7,0.5,2.6,0.5c0.5,0,1.1,0,1.6-0.1c0.4-0.1,0.9-0.2,1.3-0.3c0.4-0.1,0.7-0.3,1.1-0.5
			c0.4-0.2,0.7-0.5,1-0.8l0.1-0.1c0.1,0,0.1,0,0.2,0c0.1,0,0.2,0,0.3,0.1l0.6,0.6l-0.1,0.1c-0.4,0.4-0.7,0.7-1.2,1
			c-0.4,0.3-0.9,0.6-1.4,0.8c-0.5,0.2-1.1,0.4-1.6,0.5C203.7,43,203,43.1,202.4,43.1z"/>
		<polygon class="st0" points="225.4,42.9 225.4,26.3 235.7,26.3 235.7,27.5 226.9,27.5 226.9,33.9 234.2,33.9 234.2,35.1 
			226.9,35.1 226.9,41.6 235.7,41.6 235.7,42.9 		"/>
		<path class="st0" d="M86.5,26.3c-0.1,0-0.1,0.1-0.1,0.1l-4,8.2l-3.6-8.3H78l-2.8,6.6L72,26.4c0-0.1-0.1-0.1-0.1-0.1
			c-0.1,0-0.1,0-0.2,0h-1.6v16.6h1.3c0.1,0,0.3-0.1,0.3-0.2L75,35l3.8,7.7c0.1,0.1,0.2,0.2,0.3,0.2h0.2c0.1,0,0.2-0.1,0.3-0.2
			l2.9-5.9l2.5,5.9c0,0.1,0.1,0.2,0.3,0.2h0.6L83,36l0.5-1l3.2,7.6c0,0.1,0.1,0.2,0.3,0.2h1.3V26.3h-1.6
			C86.6,26.3,86.6,26.3,86.5,26.3z M71.6,41.4V28.1l3.1,6.1L71.6,41.4z M75.6,33.7l2.5-6l0.3-0.6l0.3,0.6l0.2,0.5l-2.8,6.5
			L75.6,33.7z M79.2,40.9l-2.7-5.4l2.8-6.5l2.8,6.4L79.2,40.9z M86.8,41.4l-3-7.2l3-6.1V41.4z"/>
		<path class="st0" d="M279.5,19.3h-5v-2.4h4.2v-0.6h-4.2V14h4.2v-0.6h-4.2v-2.2h4.2v-0.6h-4.2V9.1h-0.6v1.6h-4.2V9.1l-1.2,1.3v0.9
			l0.6-0.6v9.4h9.5c-3.3,6.5-11.3,9.1-17.8,5.8c-4-2-6.7-6-7.2-10.5l0,0l2.9-0.6v5.6h0.6v-5.7l3.1-0.6v-0.6L257,14V9.7h3.1V9.1H257
			V4.9c4.9-5.4,13.3-5.8,18.7-0.8c0.7,0.7,1.4,1.4,1.9,2.2h-7.7V4.8h-0.6v1.5h-8.8v0.6h2.1l-2.1,5.1h2.2l-2.3,4.5h2.9l-2.1,3.9h0.7
			l3.6-6.4h-0.7l-1.1,2h-2.2l2.3-4.5h-2.3l1.9-4.5h15.3l-0.1-0.3l-0.1-0.1l0,0c0,0-0.1-0.1-0.1-0.1l0,0l0,0
			c-4.2-6.4-12.8-8.2-19.2-4.1c-6.4,4.2-8.2,12.8-4.1,19.2s12.8,8.2,19.2,4.1c2.2-1.4,4-3.5,5.1-5.9l0,0L279.5,19.3z M256.4,9.1h-2
			c0.5-1.3,1.2-2.5,2-3.6V9.1z M254.1,9.7h2.3v4.4l-2.9,0.6c0-0.3,0-0.5,0-0.8C253.5,12.5,253.7,11.1,254.1,9.7z M273.9,16.3h-4.2
			V14h4.2V16.3z M273.9,11.2v2.2h-4.2v-2.2H273.9z M269.6,16.9h4.2v2.4h-4.2V16.9z"/>
		<path class="st0" d="M142,54.4h0.6v2l0,0c0.2-0.4,0.6-0.6,1.1-0.6c0.8,0,1.3,0.7,1.3,1.6c0.1,0.8-0.5,1.6-1.3,1.7c0,0-0.1,0-0.1,0
			c-0.4,0-0.9-0.2-1.1-0.6l0,0v0.5H142c0-0.2,0-0.5,0-0.8V54.4z M142.6,57.8c0,0.1,0,0.1,0,0.2c0.1,0.4,0.4,0.7,0.9,0.7
			c0.6,0,1-0.5,1-1.2s-0.3-1.2-0.9-1.2c-0.4,0-0.8,0.3-0.9,0.7c0,0.1,0,0.2,0,0.2L142.6,57.8z"/>
		<path class="st0" d="M146.8,55.9l0.7,1.9c0.1,0.2,0.2,0.5,0.2,0.6l0,0c0.1-0.2,0.1-0.4,0.2-0.7l0.6-1.9h0.6l-0.9,2.3
			c-0.2,0.7-0.6,1.4-1.1,2c-0.2,0.2-0.4,0.3-0.7,0.4l-0.2-0.5c0.2-0.1,0.4-0.1,0.5-0.3c0.2-0.2,0.4-0.4,0.5-0.6c0,0,0-0.1,0-0.1
			c0,0,0-0.1,0-0.2l-1.2-2.9L146.8,55.9z"/>
		<path class="st0" d="M160.1,56.6c0-0.8-0.1-1.8-0.1-2.4l0,0c-0.2,0.7-0.4,1.4-0.7,2.2l-1,2.8h-0.6l-0.9-2.7
			c-0.3-0.8-0.5-1.5-0.6-2.2l0,0c0,0.7-0.1,1.7-0.1,2.5l-0.1,2.4h-0.7l0.4-5.7h0.9l1,2.7c0.2,0.7,0.4,1.3,0.6,1.9l0,0
			c0.2-0.6,0.4-1.2,0.6-1.9l1-2.7h0.9l0.4,5.7h-0.7L160.1,56.6z"/>
		<path class="st0" d="M166.1,58.1c0,0.3,0,0.7,0.1,1h-0.7l-0.1-0.5l0,0c-0.3,0.4-0.8,0.6-1.2,0.6c-0.6,0-1.2-0.5-1.2-1.1
			c0,0,0-0.1,0-0.1c0-1,0.9-1.5,2.4-1.5v-0.1c0.1-0.5-0.3-0.9-0.7-0.9c-0.1,0-0.1,0-0.2,0c-0.4,0-0.7,0.1-1.1,0.3l-0.2-0.5
			c0.4-0.2,0.9-0.4,1.3-0.3c1.3,0,1.6,0.8,1.6,1.7L166.1,58.1z M165.4,57c-0.8,0-1.7,0.1-1.7,0.9c0,0.4,0.2,0.7,0.6,0.7
			c0,0,0.1,0,0.1,0c0.4,0,0.9-0.3,1-0.7c0-0.1,0-0.2,0-0.2L165.4,57z"/>
		<path class="st0" d="M168.5,56.3c0-0.5,0-0.9,0-1.3h0.7v0.8l0,0c0.1-0.5,0.6-0.9,1.1-0.9h0.2v0.7h-0.3c-0.5,0-1,0.4-1,0.9
			c0,0.1,0,0.2,0,0.3V59h-0.7L168.5,56.3z"/>
		<path class="st0" d="M173.3,53.8c0,0.2-0.2,0.4-0.4,0.5c0,0,0,0,0,0c-0.2,0-0.4-0.2-0.4-0.4c0,0,0,0,0,0c0-0.2,0.2-0.5,0.4-0.5
			c0,0,0,0,0,0C173.1,53.4,173.3,53.6,173.3,53.8C173.3,53.8,173.3,53.8,173.3,53.8z M172.5,59.1V55h0.7v4.1L172.5,59.1z"/>
		<path class="st0" d="M176,57.2c-0.1,0.7,0.5,1.3,1.2,1.4c0.1,0,0.1,0,0.2,0c0.4,0,0.8-0.1,1.1-0.2l0.1,0.5
			c-0.4,0.2-0.9,0.3-1.4,0.3c-1,0.1-1.9-0.7-2-1.8c0-0.1,0-0.2,0-0.3c-0.1-1.1,0.7-2.1,1.8-2.2c0,0,0.1,0,0.1,0
			c0.9,0,1.7,0.8,1.7,1.7c0,0.1,0,0.1,0,0.2c0,0.1,0,0.2,0,0.3H176z M178.2,56.6c0.1-0.6-0.3-1.1-0.9-1.2c0,0-0.1,0-0.1,0
			c-0.6,0-1.1,0.6-1.1,1.2H178.2z"/>
		<path class="st0" d="M184,53.5c0.4-0.1,0.9-0.1,1.3-0.1c0.6-0.1,1.1,0.1,1.6,0.4c0.3,0.2,0.5,0.6,0.5,1c0,0.6-0.4,1.1-1,1.2l0,0
			c0.7,0.1,1.2,0.7,1.2,1.4c0,0.4-0.2,0.8-0.5,1.1c-0.6,0.4-1.3,0.6-2,0.5c-0.4,0-0.8,0-1.1-0.1L184,53.5z M184.7,55.8h0.7
			c0.8,0,1.2-0.4,1.2-1s-0.5-0.9-1.2-0.9c-0.2,0-0.4,0-0.6,0L184.7,55.8z M184.7,58.5c0.2,0,0.4,0,0.6,0c0.8,0,1.5-0.3,1.5-1.1
			s-0.7-1.1-1.5-1.1h-0.6V58.5z"/>
		<path class="st0" d="M193.4,57c0.1,1.1-0.7,2.1-1.8,2.2c-0.1,0-0.1,0-0.2,0c-1.1,0-1.9-0.9-2-1.9c0-0.1,0-0.1,0-0.2
			c-0.1-1.1,0.7-2.1,1.8-2.1c0.1,0,0.1,0,0.2,0c1.1,0,1.9,0.8,2,1.9C193.4,56.9,193.4,56.9,193.4,57z M190.2,57
			c0,0.9,0.5,1.6,1.2,1.6s1.2-0.7,1.2-1.6c0-0.7-0.3-1.6-1.2-1.6S190.2,56.3,190.2,57z"/>
		<path class="st0" d="M195.6,53.1h0.7v6h-0.7V53.1z"/>
		<path class="st0" d="M199.6,54v1h1.1v0.6h-1.1v2.2c0,0.5,0.1,0.8,0.6,0.8c0.1,0,0.3,0,0.4,0v0.6c-0.2,0.1-0.4,0.1-0.7,0.1
			c-0.3,0-0.6-0.1-0.8-0.3c-0.2-0.3-0.3-0.7-0.3-1.1v-2.3h-0.6V55h0.6v-0.8L199.6,54z"/>
		<path class="st0" d="M203,57.2c-0.1,0.7,0.5,1.3,1.2,1.4c0.1,0,0.1,0,0.2,0c0.4,0,0.8-0.1,1.1-0.2l0.1,0.5
			c-0.4,0.2-0.9,0.3-1.4,0.3c-1,0.1-1.9-0.7-2-1.8c0-0.1,0-0.2,0-0.3c-0.1-1.1,0.7-2.1,1.8-2.2c0,0,0.1,0,0.1,0
			c0.9,0,1.7,0.8,1.7,1.7c0,0.1,0,0.1,0,0.2c0,0.1,0,0.2,0,0.3H203z M205.2,56.6c0.1-0.5-0.2-1.1-0.8-1.2c-0.1,0-0.1,0-0.2,0
			c-0.6,0-1.1,0.6-1.1,1.2H205.2z"/>
		<path class="st0" d="M208,56.1c0-0.4,0-0.8,0-1.1h0.7v0.7l0,0c0.3-0.5,0.8-0.8,1.3-0.8c0.6,0,1.4,0.3,1.4,1.7v2.4h-0.7v-2.3
			c0-0.7-0.3-1.2-0.9-1.2c-0.5,0-0.9,0.3-1,0.8c0,0.1-0.1,0.2-0.1,0.3v2.4H208V56.1z"/>
		<path class="st0" d="M213.8,58.3c0.3,0.2,0.6,0.3,1,0.3c0.5,0,0.8-0.3,0.8-0.6s-0.2-0.5-0.8-0.7c-0.7-0.3-1.1-0.7-1.1-1.2
			c0-0.7,0.6-1.2,1.3-1.2c0,0,0.1,0,0.1,0c0.3,0,0.7,0.1,1,0.3l-0.2,0.5c-0.2-0.2-0.5-0.2-0.8-0.2c-0.4,0-0.7,0.3-0.7,0.5
			s0.2,0.5,0.8,0.7c0.7,0.3,1.1,0.6,1.1,1.2s-0.6,1.2-1.5,1.2c-0.4,0-0.8-0.1-1.1-0.3L213.8,58.3z"/>
		<path class="st0" d="M219.3,54v1h1.1v0.6h-1.1v2.2c0,0.5,0.1,0.8,0.6,0.8c0.1,0,0.3,0,0.4,0v0.6c-0.2,0.1-0.4,0.1-0.7,0.1
			c-0.3,0-0.6-0.1-0.8-0.3c-0.2-0.3-0.3-0.7-0.3-1.1v-2.3h-0.6V55h0.6v-0.8L219.3,54z"/>
		<path class="st0" d="M222.7,57.2c-0.1,0.7,0.5,1.3,1.2,1.4c0.1,0,0.2,0,0.2,0c0.4,0,0.8-0.1,1.1-0.2l0.1,0.5
			c-0.4,0.2-0.9,0.3-1.4,0.3c-1,0.1-1.9-0.7-2-1.8c0-0.1,0-0.2,0-0.3c-0.1-1.1,0.7-2.1,1.8-2.2c0,0,0.1,0,0.1,0
			c0.9,0,1.7,0.8,1.7,1.7c0,0.1,0,0.1,0,0.2c0,0.1,0,0.2,0,0.3H222.7z M224.9,56.6c0.1-0.6-0.3-1.1-0.9-1.2c0,0-0.1,0-0.1,0
			c-0.6,0-1.1,0.6-1.1,1.2H224.9z"/>
		<path class="st0" d="M227.7,56.3c0-0.5,0-0.9,0-1.3h0.6v0.8l0,0c0.1-0.5,0.6-0.9,1.1-0.9h0.2v0.7h-0.3c-0.5,0-1,0.4-1,0.9
			c0,0.1,0,0.2,0,0.3V59h-0.7L227.7,56.3z"/>
		<path class="st0" d="M231.6,56.1c0-0.4,0-0.8,0-1.1h0.7v0.7l0,0c0.3-0.5,0.8-0.8,1.4-0.8c0.6,0,1.4,0.3,1.4,1.7v2.4h-0.7v-2.3
			c0-0.7-0.3-1.2-0.9-1.2c-0.5,0-0.9,0.3-1,0.8c0,0.1-0.1,0.2-0.1,0.3v2.4h-0.7L231.6,56.1z"/>
	</g>
</g>
</svg>
