<?xml version="1.0" encoding="utf-8"?>
<!-- Generator: Adobe Illustrator 22.1.0, SVG Export Plug-In . SVG Version: 6.00 Build 0)  -->
<svg version="1.1" id="Layer_1" xmlns="http://www.w3.org/2000/svg" xmlns:xlink="http://www.w3.org/1999/xlink" x="0px" y="0px"
	 viewBox="0 0 236.5 60.4" style="enable-background:new 0 0 236.5 60.4;" xml:space="preserve">
<style type="text/css">
	.st0{fill:#6D6E71;}
</style>
<title>Asset 28</title>
<g id="Layer_2_1_">
	<g id="Layer_1-2">
		<path class="st0" d="M224.4,27.3c-6.9,0-12.6-5.2-13.3-12l0,0l2.9-0.6v5.7h0.6v-5.8l3.2-0.6v-0.6l-3.2,0.6V9.7h3.2V9.2h-3.2V4.9
			c5-5.4,13.4-5.8,18.8-0.8c0.3,0.3,0.5,0.5,0.8,0.8h0.8c-5-5.9-13.9-6.6-19.7-1.5s-6.6,13.9-1.5,19.7c5,5.9,13.9,6.6,19.7,1.5
			c1.1-0.9,2-2,2.8-3.2h-0.7C233,25.1,228.8,27.3,224.4,27.3z M214,9.1h-2.1c0.5-1.3,1.2-2.5,2.1-3.6V9.1z M211.7,9.7h2.3v4.4
			l-2.9,0.6c0-0.3,0-0.5,0-0.8C211,12.5,211.2,11.1,211.7,9.7L211.7,9.7z"/>
		<path class="st0" d="M219.9,6.3v0.6l0,0v8.5c0,0-0.4,3-2.4,3.9v0.6c2.4-0.9,2.9-3.8,3-4.4h7.1v4.2h0.6v-4.2h7.9v3.6l-1-0.3v0.6
			l1.6,0.4V6.3H219.9z M227.5,6.8v3.7h-7V6.9L227.5,6.8z M220.5,15v-3.9h7V15H220.5z M228.1,15v-3.9h7.9V15H228.1z M236,10.5h-7.9
			V6.8h7.9V10.5z"/>
		<polygon class="st0" points="0,42.8 0,26.2 10.4,26.2 10.4,27.4 1.5,27.4 1.5,33.8 8.9,33.8 8.9,35 1.5,35 1.5,41.5 10.4,41.5 
			10.4,42.8 		"/>
		<path class="st0" d="M62.1,42.8V26.2h5c0.9,0,1.7,0.1,2.5,0.3c0.6,0.2,1.3,0.4,1.8,0.8c0.5,0.4,0.8,0.8,1.1,1.4
			c0.2,0.6,0.4,1.2,0.3,1.8c0,0.4-0.1,0.9-0.2,1.3c-0.2,0.4-0.4,0.8-0.7,1.2c-0.3,0.4-0.7,0.7-1.1,0.9c-0.3,0.2-0.6,0.3-0.9,0.4
			c0.9,0.2,1.8,0.6,2.5,1.2c0.7,0.7,1.2,1.7,1.1,2.7c0,0.7-0.1,1.3-0.4,1.9c-0.2,0.6-0.6,1.1-1.1,1.5c-0.5,0.4-1.2,0.7-1.8,0.9
			c-0.8,0.2-1.6,0.3-2.4,0.3H62.1z M67.7,41.5c1.2,0.1,2.3-0.2,3.3-0.9c0.7-0.6,1.1-1.5,1.1-2.5c0-0.5-0.1-0.9-0.3-1.3
			c-0.2-0.4-0.5-0.7-0.8-1c-0.4-0.3-0.9-0.5-1.3-0.6C68.9,35,68.3,35,67.7,35h-4.1v6.6H67.7z M67.1,33.8c0.7,0,1.3-0.1,1.9-0.3
			c0.5-0.2,0.9-0.4,1.3-0.7c0.3-0.3,0.6-0.6,0.7-1c0.2-0.4,0.2-0.8,0.2-1.2c0.1-0.9-0.3-1.8-1-2.4c-1-0.6-2.1-0.9-3.2-0.8h-3.5v6.4
			L67.1,33.8z"/>
		<path class="st0" d="M101,42.8c-0.1,0-0.3,0-0.4-0.1c-0.1-0.1-0.2-0.2-0.3-0.3l-5.4-6.6c-0.1-0.1-0.2-0.2-0.4-0.3
			c-0.2-0.1-0.4-0.1-0.7-0.1h-2v7.4h-1.5V26.2h4.4c1.6-0.1,3.1,0.3,4.4,1.1c1,0.8,1.6,2,1.5,3.3c0,0.6-0.1,1.2-0.3,1.8
			c-0.2,0.5-0.6,1-1,1.4c-0.5,0.4-1,0.8-1.5,1c-0.5,0.2-1.1,0.4-1.7,0.5c0.1,0.1,0.2,0.2,0.3,0.3l6,7.3L101,42.8z M94.6,34.2
			c0.7,0,1.3-0.1,2-0.3c0.5-0.1,1-0.4,1.4-0.7c0.4-0.3,0.7-0.7,0.9-1.1c0.2-0.5,0.3-1,0.3-1.5c0.1-1-0.4-1.9-1.1-2.5
			c-1-0.6-2.2-0.9-3.3-0.8h-3v6.8L94.6,34.2z"/>
		<path class="st0" d="M133.4,42.8c-0.1,0-0.3,0-0.4-0.1c-0.1-0.1-0.2-0.2-0.2-0.3l-1.9-4.7h-8.1l-1.9,4.7c0,0.1-0.1,0.2-0.2,0.3
			c-0.1,0.1-0.2,0.1-0.4,0.1h-1.1l7-16.6h1.4l7,16.6L133.4,42.8z M130.4,36.6l-3.3-8l-0.2-0.5V28c0,0,0,0.1,0,0.1l-0.2,0.5l-3.3,8
			L130.4,36.6z"/>
		<path class="st0" d="M159.4,43c-1.1,0-2.2-0.2-3.3-0.6c-1-0.4-1.8-1-2.5-1.7c-0.7-0.8-1.3-1.7-1.6-2.7c-0.4-1.1-0.6-2.3-0.6-3.5
			c0-1.2,0.2-2.3,0.6-3.4c0.4-1,1-1.9,1.7-2.7c0.8-0.8,1.7-1.3,2.6-1.7c1.1-0.4,2.2-0.6,3.4-0.6c0.6,0,1.1,0,1.7,0.1
			c0.5,0.1,1,0.2,1.4,0.4c0.4,0.2,0.9,0.4,1.3,0.6c0.4,0.3,0.8,0.5,1.2,0.9l0.1,0.1l-0.4,0.6c-0.1,0.1-0.2,0.2-0.4,0.2
			c-0.1,0-0.3-0.1-0.4-0.2l-0.4-0.3c-0.2-0.1-0.4-0.3-0.6-0.4c-0.3-0.1-0.6-0.3-0.8-0.4c-0.4-0.1-0.7-0.2-1.1-0.3
			c-0.5-0.1-1-0.1-1.5-0.1c-0.9,0-1.9,0.2-2.8,0.5c-0.8,0.3-1.5,0.8-2.1,1.4c-0.6,0.7-1.1,1.4-1.4,2.3c-0.3,1-0.5,2-0.5,3
			c0,1,0.2,2,0.5,3c0.3,0.8,0.8,1.6,1.4,2.3c0.6,0.6,1.3,1.1,2.1,1.4c0.8,0.3,1.7,0.5,2.6,0.5c0.5,0,1.1,0,1.6-0.1
			c0.4-0.1,0.9-0.2,1.3-0.3c0.4-0.1,0.7-0.3,1.1-0.5c0.4-0.2,0.7-0.5,1-0.8l0.1-0.1c0.2-0.1,0.4,0,0.5,0.1l0.6,0.6l-0.1,0.1
			c-0.4,0.4-0.7,0.7-1.2,1c-0.4,0.3-0.9,0.6-1.4,0.8c-0.5,0.2-1.1,0.4-1.6,0.5C160.7,42.9,160,43,159.4,43z"/>
		<polygon class="st0" points="182.4,42.8 182.4,26.2 192.7,26.2 192.7,27.4 183.9,27.4 183.9,33.8 191.2,33.8 191.2,35 183.9,35 
			183.9,41.5 192.7,41.5 192.7,42.8 		"/>
		<path class="st0" d="M43.5,26.2c-0.1,0-0.1,0.1-0.1,0.1l-4,8.2l-3.6-8.3H35l-2.8,6.6L29,26.3c0-0.1-0.1-0.1-0.1-0.1h-0.2h-1.6
			v16.6h1.3c0.1,0,0.3-0.1,0.3-0.2l3.2-7.7l3.8,7.7c0.1,0.1,0.2,0.2,0.3,0.2h0.2c0.1,0,0.2-0.1,0.3-0.2l2.9-5.9l2.5,5.9
			c0,0.1,0.1,0.2,0.3,0.2h0.6L40,35.9l0.5-1l3.2,7.6c0,0.1,0.1,0.2,0.3,0.2h1.3V26.2h-1.6L43.5,26.2z M28.6,41.3V28l3.1,6.1
			L28.6,41.3z M32.6,33.5l2.5-6l0.3-0.6l0.3,0.6l0.2,0.5l-2.8,6.5L32.6,33.5z M36.2,40.8l-2.7-5.4l2.7-6.4l2.8,6.3L36.2,40.8z
			 M43.8,41.3l-3-7.2l3-6.1V41.3z"/>
		<path class="st0" d="M99,54.3h0.6v2l0,0c0.2-0.4,0.6-0.6,1.1-0.6c0.8,0,1.4,0.7,1.3,1.5c0,0,0,0.1,0,0.1c0.1,0.8-0.5,1.6-1.3,1.7
			c0,0-0.1,0-0.1,0c-0.4,0-0.9-0.2-1.1-0.6l0,0V59H99c0-0.2,0-0.5,0-0.8V54.3z M99.6,57.7c0,0.1,0,0.1,0,0.2
			c0.1,0.4,0.4,0.7,0.9,0.7c0.6,0,1-0.5,1-1.2s-0.3-1.2-0.9-1.2c-0.4,0-0.8,0.3-0.9,0.7c0,0.1,0,0.2,0,0.2L99.6,57.7z"/>
		<path class="st0" d="M103.8,55.8l0.7,1.9c0.1,0.2,0.2,0.5,0.2,0.7l0,0c0.1-0.2,0.1-0.4,0.2-0.7l0.6-1.8h0.6l-0.9,2.3
			c-0.2,0.7-0.6,1.4-1.1,2c-0.2,0.2-0.4,0.3-0.7,0.4l-0.2-0.5c0.2-0.1,0.4-0.2,0.5-0.3c0.2-0.2,0.4-0.4,0.5-0.6c0,0,0-0.1,0-0.1
			c0,0,0-0.1,0-0.2l-1.2-2.9L103.8,55.8z"/>
		<path class="st0" d="M117.1,56.5c0-0.8-0.1-1.8-0.1-2.5l0,0c-0.2,0.7-0.4,1.4-0.7,2.2l-1,2.8h-0.6l-0.9-2.7
			c-0.3-0.8-0.5-1.5-0.6-2.2l0,0c0,0.7-0.1,1.7-0.1,2.5l-0.2,2.4h-0.7l0.4-5.7h0.9l1,2.7c0.2,0.7,0.4,1.3,0.6,1.9l0,0
			c0.2-0.6,0.3-1.2,0.6-1.9l1-2.7h0.9L118,59h-0.7L117.1,56.5z"/>
		<path class="st0" d="M123.1,58c0,0.3,0,0.7,0.1,1h-0.7l-0.1-0.5l0,0c-0.3,0.4-0.8,0.6-1.2,0.6c-0.6,0-1.2-0.4-1.2-1.1
			c0,0,0-0.1,0-0.1c0-1,0.9-1.5,2.4-1.5v-0.1c0.1-0.5-0.3-0.9-0.7-0.9c-0.1,0-0.1,0-0.2,0c-0.4,0-0.7,0.1-1.1,0.3l-0.2-0.5
			c0.4-0.2,0.9-0.4,1.3-0.3c1.3,0,1.6,0.8,1.6,1.7L123.1,58z M122.4,56.9c-0.8,0-1.7,0.1-1.7,0.9c0,0.4,0.2,0.7,0.6,0.7
			c0,0,0.1,0,0.1,0c0.4,0,0.9-0.3,1-0.7c0-0.1,0-0.2,0-0.2L122.4,56.9z"/>
		<path class="st0" d="M125.5,56.2c0-0.5,0-0.9,0-1.3h0.7v0.8l0,0c0.1-0.5,0.6-0.9,1.1-0.9h0.2v0.7c-0.1,0-0.2,0-0.3,0
			c-0.5,0-1,0.4-1,0.9c0,0.1,0,0.2,0,0.3V59h-0.7L125.5,56.2z"/>
		<path class="st0" d="M130.3,53.7c0,0.2-0.2,0.4-0.4,0.5c0,0,0,0-0.1,0c-0.2,0-0.4-0.2-0.4-0.4c0,0,0,0,0,0c0-0.2,0.2-0.5,0.4-0.5
			c0,0,0,0,0,0C130.1,53.3,130.3,53.5,130.3,53.7C130.3,53.7,130.3,53.7,130.3,53.7z M129.5,59v-4.1h0.7V59H129.5z"/>
		<path class="st0" d="M133,57.1c-0.1,0.7,0.5,1.4,1.2,1.4c0.1,0,0.1,0,0.2,0c0.4,0,0.8-0.1,1.1-0.2l0.1,0.5
			c-0.4,0.2-0.9,0.3-1.4,0.3c-1,0.1-1.9-0.7-2-1.8c0-0.1,0-0.2,0-0.3c-0.1-1.1,0.7-2.1,1.8-2.2c0,0,0.1,0,0.1,0
			c0.9,0,1.7,0.8,1.7,1.7c0,0.1,0,0.1,0,0.2c0,0.1,0,0.2,0,0.3H133z M135.2,56.5c0.1-0.6-0.3-1.1-0.9-1.2c0,0-0.1,0-0.1,0
			c-0.6,0-1.1,0.6-1.1,1.2H135.2z"/>
		<path class="st0" d="M141,53.4c0.4-0.1,0.9-0.1,1.3-0.1c0.5-0.1,1.1,0.1,1.6,0.4c0.3,0.2,0.5,0.6,0.5,1c0,0.6-0.4,1.1-1,1.2l0,0
			c0.8,0.2,1.3,0.9,1.1,1.7c-0.1,0.3-0.2,0.6-0.5,0.8c-0.6,0.4-1.3,0.6-2,0.5c-0.4,0-0.8,0-1.1-0.1L141,53.4z M141.7,55.7h0.7
			c0.8,0,1.2-0.4,1.2-1s-0.5-0.9-1.2-0.9c-0.2,0-0.4,0-0.6,0L141.7,55.7z M141.7,58.4c0.2,0,0.4,0,0.6,0c0.8,0,1.5-0.3,1.5-1.1
			s-0.7-1.1-1.5-1.1h-0.6V58.4z"/>
		<path class="st0" d="M150.4,56.9c0.1,1.1-0.7,2.1-1.8,2.2c-0.1,0-0.1,0-0.2,0c-1.1,0-1.9-0.9-2-1.9c0-0.1,0-0.1,0-0.2
			c-0.1-1.1,0.7-2.1,1.8-2.1c0.1,0,0.1,0,0.2,0c1.1,0,1.9,0.8,2,1.9C150.4,56.8,150.4,56.8,150.4,56.9z M147.2,56.9
			c0,0.9,0.5,1.6,1.2,1.6s1.2-0.7,1.2-1.6c0-0.7-0.3-1.5-1.2-1.5S147.2,56.2,147.2,56.9L147.2,56.9z"/>
		<path class="st0" d="M152.6,53h0.7v6h-0.7V53z"/>
		<path class="st0" d="M156.6,53.9v1h1.1v0.6h-1.1v2.2c0,0.5,0.1,0.8,0.6,0.8c0.1,0,0.3,0,0.4,0V59c-0.2,0.1-0.4,0.1-0.7,0.1
			c-0.3,0-0.6-0.1-0.8-0.3c-0.2-0.3-0.3-0.7-0.3-1.1v-2.2h-0.6V55h0.6v-0.8L156.6,53.9z"/>
		<path class="st0" d="M160,57.1c-0.1,0.7,0.5,1.4,1.2,1.4c0.1,0,0.1,0,0.2,0c0.4,0,0.8-0.1,1.1-0.2l0.1,0.5
			c-0.4,0.2-0.9,0.3-1.4,0.3c-1,0.1-1.9-0.7-2-1.8c0-0.1,0-0.2,0-0.3c-0.1-1.1,0.7-2.1,1.8-2.2c0,0,0.1,0,0.1,0
			c0.9,0,1.7,0.8,1.7,1.7c0,0.1,0,0.1,0,0.2c0,0.1,0,0.2,0,0.3H160z M162.2,56.5c0.1-0.5-0.2-1.1-0.8-1.2c-0.1,0-0.1,0-0.2,0
			c-0.6,0-1.1,0.6-1.1,1.2H162.2z"/>
		<path class="st0" d="M165,56c0-0.4,0-0.8,0-1.1h0.7v0.7l0,0c0.3-0.5,0.8-0.8,1.3-0.8c0.6,0,1.4,0.3,1.4,1.7V59h-0.7v-2.3
			c0-0.7-0.3-1.2-0.9-1.2c-0.5,0-0.9,0.3-1,0.8c0,0.1-0.1,0.2-0.1,0.3V59H165V56z"/>
		<path class="st0" d="M170.8,58.2c0.3,0.2,0.6,0.3,1,0.3c0.5,0,0.8-0.3,0.8-0.6s-0.2-0.5-0.8-0.7c-0.7-0.3-1.1-0.7-1.1-1.2
			c0-0.7,0.6-1.2,1.3-1.2c0,0,0.1,0,0.1,0c0.3,0,0.7,0.1,1,0.3l-0.2,0.5c-0.2-0.2-0.5-0.2-0.8-0.2c-0.4,0-0.7,0.3-0.7,0.5
			s0.2,0.5,0.8,0.7c0.7,0.3,1.1,0.6,1.1,1.2s-0.6,1.2-1.5,1.2c-0.4,0-0.8-0.1-1.1-0.3L170.8,58.2z"/>
		<path class="st0" d="M176.3,53.9v1h1.1v0.6h-1.1v2.2c0,0.5,0.1,0.8,0.6,0.8c0.1,0,0.3,0,0.4,0V59c-0.2,0.1-0.4,0.1-0.7,0.1
			c-0.3,0-0.6-0.1-0.8-0.3c-0.2-0.3-0.3-0.7-0.3-1.1v-2.2h-0.6V55h0.6v-0.8L176.3,53.9z"/>
		<path class="st0" d="M179.7,57.1c-0.1,0.7,0.5,1.3,1.2,1.4c0.1,0,0.1,0,0.2,0c0.4,0,0.8-0.1,1.1-0.2l0.1,0.5
			c-0.4,0.2-0.9,0.3-1.4,0.3c-1,0.1-1.9-0.7-2-1.8c0-0.1,0-0.2,0-0.3c-0.1-1.1,0.7-2.1,1.8-2.2c0,0,0.1,0,0.1,0
			c0.9,0,1.7,0.8,1.7,1.7c0,0.1,0,0.1,0,0.2c0,0.1,0,0.2,0,0.3H179.7z M181.9,56.5c0.1-0.6-0.3-1.1-0.9-1.2c0,0-0.1,0-0.1,0
			c-0.6,0-1.1,0.6-1.1,1.2H181.9z"/>
		<path class="st0" d="M184.7,56.2c0-0.5,0-0.9,0-1.3h0.6v0.8l0,0c0.1-0.5,0.6-0.9,1.1-0.9h0.2v0.7c-0.1,0-0.2,0-0.3,0
			c-0.5,0-1,0.4-1,0.9c0,0.1,0,0.2,0,0.3V59h-0.7L184.7,56.2z"/>
		<path class="st0" d="M188.6,56c0-0.4,0-0.8,0-1.1h0.7v0.7l0,0c0.3-0.5,0.8-0.8,1.4-0.8c0.6,0,1.4,0.3,1.4,1.7V59h-0.7v-2.3
			c0-0.7-0.3-1.2-0.9-1.2c-0.5,0-0.9,0.3-1,0.8c0,0.1-0.1,0.2-0.1,0.3V59h-0.7L188.6,56z"/>
	</g>
</g>
</svg>
