<svg xmlns="http://www.w3.org/2000/svg" viewBox="0 0 192.92 62.63"><defs><style>.cls-1{fill:#6d6e71;}</style></defs><title>Asset 22</title><g id="Layer_2" data-name="Layer 2"><g id="Layer_1-2" data-name="Layer 1"><path class="cls-1" d="M168.72,7.71V12.1h9.62a3.51,3.51,0,0,0,2.7-1,3.78,3.78,0,0,0,.89-2.57V7.71Zm11.86,3a2.93,2.93,0,0,1-2.24.81h-9V8.33h12v.21A3.17,3.17,0,0,1,180.58,10.67Z"/><polygon class="cls-1" points="175.43 20.18 175.43 17.19 178.77 17.19 178.77 16.57 171.51 16.57 171.51 17.19 174.81 17.19 174.81 20.18 175.43 20.18"/><path class="cls-1" d="M192.91,19h0l-4.57.43V16h4.16V7.88h0V7.8a13.86,13.86,0,0,0-24-1.69h13.6V5.49H169.78a13.21,13.21,0,0,1,22,2.39h-3.48V5.27h-.63V7.88h-3.53V16h3.53v3.43h0v.64l4.22-.41a13.25,13.25,0,0,1-23.46.67V14.25h2.16l-.48.81h.68l.51-.81h7.91l.31.82h.68l-.33-.82h2.31v2.16a4.61,4.61,0,0,1-1,2.94,3.86,3.86,0,0,1-2.66,1.07v.63a4.39,4.39,0,0,0,3.11-1.26,5.57,5.57,0,0,0,1.16-3.39V13.63h-15v5.5h0v1.42A13.88,13.88,0,0,0,192.92,19Zm-1-10.48v6.92h-3.54V8.5Zm-7.08,6.92V8.5h2.91v6.92Z"/><path class="cls-1" d="M17.36,27.28a.32.32,0,0,0-.13.13L12.93,36,9.16,27.25h-.8l-3,6.89L2,27.41a.29.29,0,0,0-.14-.13.4.4,0,0,0-.17,0H0V44.64H1.43a.27.27,0,0,0,.29-.21l3.45-8,4,8a.39.39,0,0,0,.33.21h.18a.36.36,0,0,0,.31-.21l3.11-6.16,2.65,6.16a.29.29,0,0,0,.28.21h.61l-3.11-7.21.5-1,3.44,8a.29.29,0,0,0,.28.21h1.44V27.25H17.54A.48.48,0,0,0,17.36,27.28ZM1.52,43.08V29.19L4.75,35.6ZM5.8,35l2.68-6.25.28-.63.27.63.23.55L6.34,36Zm3.82,7.57L6.76,36.87l2.88-6.72,2.87,6.65Zm8.11.54L14.49,35.6l3.24-6.41Z"/><path class="cls-1" d="M51.79,44.18a.57.57,0,0,1-.37-.12.67.67,0,0,1-.21-.28l-1.94-4.65H41.22l-1.94,4.65a.63.63,0,0,1-.21.28.59.59,0,0,1-.37.12H37.55l7-16.59H46l7,16.59Zm-3-6.2-3.34-8a3.28,3.28,0,0,1-.17-.45l0-.09,0,.09c0,.16-.11.32-.17.46L41.7,38Z"/><path class="cls-1" d="M111,44.67a8.57,8.57,0,0,1-3.29-.62,7.42,7.42,0,0,1-2.58-1.77,8,8,0,0,1-1.68-2.75,11.16,11.16,0,0,1,0-7.16,8,8,0,0,1,1.68-2.75,7.45,7.45,0,0,1,2.58-1.78,9.12,9.12,0,0,1,6.61,0,7.38,7.38,0,0,1,2.58,1.77,8.26,8.26,0,0,1,1.67,2.76,11.13,11.13,0,0,1,0,7.15,8,8,0,0,1-1.67,2.76,7.52,7.52,0,0,1-2.58,1.77A8.65,8.65,0,0,1,111,44.67Zm0-16.12a6.88,6.88,0,0,0-2.68.51,5.83,5.83,0,0,0-2.08,1.45,6.65,6.65,0,0,0-1.36,2.32,10.15,10.15,0,0,0,0,6.23,6.65,6.65,0,0,0,1.36,2.32,5.81,5.81,0,0,0,2.08,1.44,7.06,7.06,0,0,0,2.68.5,7.15,7.15,0,0,0,2.71-.5,5.64,5.64,0,0,0,2.08-1.44,6.87,6.87,0,0,0,1.34-2.32,10.35,10.35,0,0,0,0-6.23,6.77,6.77,0,0,0-1.34-2.32,5.66,5.66,0,0,0-2.08-1.45A7,7,0,0,0,111,28.55Z"/><path class="cls-1" d="M150,44.22a.66.66,0,0,1-.56-.3L138.82,29.75V44.22h-1.35V27.14h.74a.74.74,0,0,1,.32.05.61.61,0,0,1,.26.23l10.58,14.16V27.14h1.36V44.22Z"/><path class="cls-1" d="M83.79,44.26a.64.64,0,0,1-.55-.3L72.61,29.78c0,.07,0,14.48,0,14.48H71.27V27.18H72a.77.77,0,0,1,.32.05.67.67,0,0,1,.26.23L83.16,41.62V27.18h1.36V44.26Z"/><path class="cls-1" d="M74.89,56.54h.57v2h0A1.16,1.16,0,0,1,76.55,58a1.43,1.43,0,0,1,1.34,1.61,1.51,1.51,0,0,1-1.43,1.7,1.15,1.15,0,0,1-1.06-.59h0l0,.52h-.49c0-.22,0-.54,0-.82Zm.57,3.38a.75.75,0,0,0,0,.21.9.9,0,0,0,.87.67c.61,0,1-.49,1-1.22s-.33-1.18-1-1.18a.93.93,0,0,0-.87.71.88.88,0,0,0,0,.24Z"/><path class="cls-1" d="M79.69,58l.69,1.87c.08.21.16.46.21.65h0l.2-.66L81.43,58H82l-.86,2.26a5,5,0,0,1-1.09,2,1.71,1.71,0,0,1-.71.37l-.14-.48a1.71,1.71,0,0,0,.5-.28,1.87,1.87,0,0,0,.49-.65.46.46,0,0,0,0-.13.41.41,0,0,0,0-.15L79.06,58Z"/><path class="cls-1" d="M89.48,61.19l-1.86-5.67h.8l.89,2.79c.23.77.44,1.46.6,2.12h0a19.91,19.91,0,0,1,.65-2.11l1-2.8h.79l-2,5.67Z"/><path class="cls-1" d="M96.67,60.21a5.93,5.93,0,0,0,.06,1h-.67L96,60.67h0a1.53,1.53,0,0,1-1.25.61,1.16,1.16,0,0,1-1.24-1.17c0-1,.87-1.52,2.45-1.51v-.09a.84.84,0,0,0-.93-.93,2,2,0,0,0-1.07.3l-.16-.49A2.61,2.61,0,0,1,95.12,57c1.25,0,1.55.85,1.55,1.66ZM96,59.11c-.8,0-1.72.13-1.72.92a.65.65,0,0,0,.69.7,1,1,0,0,0,1-.68,1,1,0,0,0,0-.23Z"/><path class="cls-1" d="M99,58.22c0-.43,0-.77,0-1.1h.66l0,.67h0a1.53,1.53,0,0,1,1.35-.76c.56,0,1.44.34,1.44,1.73v2.43h-.74V58.84c0-.66-.25-1.2-.94-1.2a1.08,1.08,0,0,0-1,.75,1.23,1.23,0,0,0,0,.35v2.45H99Z"/><path class="cls-1" d="M105.3,59.29a1.3,1.3,0,0,0,1.4,1.41,2.63,2.63,0,0,0,1.13-.21L108,61a3.26,3.26,0,0,1-1.36.26,1.89,1.89,0,0,1-2-2.06A2,2,0,0,1,106.5,57a1.72,1.72,0,0,1,1.69,1.91,1.62,1.62,0,0,1,0,.35Zm2.17-.53a1,1,0,0,0-1-1.2,1.22,1.22,0,0,0-1.14,1.2Z"/><path class="cls-1" d="M110.18,60.44a2.18,2.18,0,0,0,1,.28c.53,0,.78-.26.78-.6s-.21-.54-.75-.74c-.74-.27-1.08-.67-1.08-1.15a1.26,1.26,0,0,1,1.4-1.2,1.92,1.92,0,0,1,1,.25l-.17.54a1.61,1.61,0,0,0-.84-.24c-.43,0-.67.25-.67.55s.24.49.77.7c.69.26,1.06.62,1.06,1.22s-.56,1.23-1.51,1.23A2.29,2.29,0,0,1,110,61Z"/><path class="cls-1" d="M114.69,60.44a2.18,2.18,0,0,0,1,.28c.53,0,.78-.26.78-.6s-.21-.54-.75-.74c-.74-.27-1.08-.67-1.08-1.15A1.26,1.26,0,0,1,116,57a1.92,1.92,0,0,1,1,.25l-.17.54a1.61,1.61,0,0,0-.84-.24c-.43,0-.67.25-.67.55s.24.49.77.7c.69.26,1.06.62,1.06,1.22s-.56,1.23-1.51,1.23a2.29,2.29,0,0,1-1.14-.29Z"/><path class="cls-1" d="M122.16,60.21a7.26,7.26,0,0,0,.06,1h-.66l-.06-.52h0a1.53,1.53,0,0,1-1.25.61A1.16,1.16,0,0,1,119,60.11c0-1,.87-1.52,2.44-1.51v-.09a.83.83,0,0,0-.92-.93,2,2,0,0,0-1.07.3l-.17-.49a2.65,2.65,0,0,1,1.35-.36c1.24,0,1.54.85,1.54,1.66Zm-.71-1.1c-.81,0-1.72.13-1.72.92a.65.65,0,0,0,.69.7.92.92,0,0,0,1-.91Z"/><path class="cls-1" d="M131.48,61a3.69,3.69,0,0,1-1.5.27,2.64,2.64,0,0,1-2.79-2.88,2.81,2.81,0,0,1,3-3,3.14,3.14,0,0,1,1.35.25l-.19.6a2.5,2.5,0,0,0-1.13-.24A2.11,2.11,0,0,0,128,58.38a2.06,2.06,0,0,0,2.17,2.28,3,3,0,0,0,1.21-.24Z"/><path class="cls-1" d="M133.56,55.22h.74v2.54h0a1.42,1.42,0,0,1,.53-.53,1.58,1.58,0,0,1,.75-.2c.55,0,1.43.34,1.43,1.73v2.43h-.74V58.85c0-.66-.25-1.2-.95-1.2a1.06,1.06,0,0,0-1,.73,1,1,0,0,0,0,.35v2.46h-.74Z"/><path class="cls-1" d="M143.09,59.12a2,2,0,0,1-2,2.16,2,2,0,0,1-2-2.1,2,2,0,0,1,2-2.15A1.93,1.93,0,0,1,143.09,59.12Zm-3.22,0c0,.89.51,1.56,1.23,1.56s1.23-.66,1.23-1.58c0-.69-.34-1.55-1.21-1.55S139.87,58.39,139.87,59.16Z"/><path class="cls-1" d="M145.44,57.12l.55,2.06c.11.46.22.88.29,1.3h0c.09-.41.23-.85.36-1.29l.66-2.07H148l.63,2c.15.49.27.92.36,1.33h0c.07-.41.18-.84.31-1.32l.58-2h.74l-1.32,4.07h-.67L148,59.24a13.63,13.63,0,0,1-.36-1.33h0a13.1,13.1,0,0,1-.37,1.34l-.65,1.94h-.68l-1.22-4.07Z"/></g></g></svg>