<svg xmlns="http://www.w3.org/2000/svg" viewBox="0 0 51.45 40.35"><defs><style>.cls-1{fill:#6d6e71;}</style></defs><title>Asset 29</title><g id="Layer_2" data-name="Layer 2"><g id="Layer_1-2" data-name="Layer 1"><path class="cls-1" d="M26.82,8.66h.62V7.26l22.84,0v1.4h.63V6.73l-.06-.12A13.91,13.91,0,0,0,28.36,5l.82,0A13.28,13.28,0,0,1,50.11,6.61l-23.3,0Z"/><rect class="cls-1" x="28.15" y="9.66" width="8.32" height="0.62" transform="matrix(1, 0, 0, 1, -0.01, 0.03)"/><path class="cls-1" d="M34.36,13.23V16s.42,5.49,5.52,5.48H51v-2.7h-.62v2.08H39.88a4.38,4.38,0,0,1-4.14-2.41A6.89,6.89,0,0,1,35,16V13.23h2.91v-.62H26.42v.62H30.1l-3.44,6.89h0a13.9,13.9,0,0,0,23.42,2.26h-.79a13.29,13.29,0,0,1-21.9-2.21l3.42-6.94Z"/><rect class="cls-1" x="41.83" y="12.72" width="0.62" height="2.68" transform="translate(-2.02 9.28) rotate(-12.27)"/><path class="cls-1" d="M49.07,9.2h-.63V11H39.49v.63h8.95V14A4.8,4.8,0,0,1,47.35,17a3.73,3.73,0,0,1-2.86,1.16v.63a4.39,4.39,0,0,0,3.33-1.38A5.26,5.26,0,0,0,49.07,14V11.66h2.38V11H49.07Z"/><path class="cls-1" d="M16.17,24.18a.34.34,0,0,0-.12.12l-4,8L8.53,24.15H7.79L5,30.57,1.84,24.3a.34.34,0,0,0-.12-.12.43.43,0,0,0-.17,0H0v16.2H1.33a.27.27,0,0,0,.28-.2l3.2-7.45,3.77,7.45a.35.35,0,0,0,.3.2h.17a.34.34,0,0,0,.29-.2l2.9-5.73,2.47,5.73a.27.27,0,0,0,.26.2h.57l-2.9-6.72.46-.92,3.21,7.44a.27.27,0,0,0,.26.2h1.34V24.15H16.33A.41.41,0,0,0,16.17,24.18ZM1.41,38.89V26l3,6Zm4-7.55,2.5-5.82.26-.58.25.58.22.51L5.9,32.34ZM9,38.39,6.29,33.11,9,26.86l2.67,6.19Zm7.55.5-3-7,3-6Z"/></g></g></svg>