<?xml version="1.0" encoding="utf-8"?>
<!-- Generator: Adobe Illustrator 22.1.0, SVG Export Plug-In . SVG Version: 6.00 Build 0)  -->
<svg version="1.1" id="Layer_1" xmlns="http://www.w3.org/2000/svg" xmlns:xlink="http://www.w3.org/1999/xlink" x="0px" y="0px"
	 viewBox="0 0 267.2 45.1" style="enable-background:new 0 0 267.2 45.1;" xml:space="preserve">
<style type="text/css">
	.st0{fill:#6D6E71;}
</style>
<title>Asset 24</title>
<g id="Layer_2_1_">
	<g id="Layer_1-2">
		<path class="st0" d="M5.5,45c-1.1,0-2.1-0.2-3.1-0.6c-0.9-0.4-1.6-1-2.3-1.7L0,42.7L0.4,42c0.1-0.2,0.3-0.2,0.5-0.3
			c0.1,0,0.3,0.1,0.4,0.2l0.4,0.4c0.2,0.2,0.4,0.3,0.6,0.5c0.3,0.2,0.5,0.3,0.8,0.4c0.3,0.1,0.7,0.3,1,0.4c0.4,0.1,0.9,0.1,1.3,0.1
			c0.6,0,1.2-0.1,1.8-0.3c0.5-0.2,1-0.4,1.4-0.8c0.4-0.3,0.6-0.8,0.8-1.2c0.2-0.5,0.3-1,0.3-1.5c0-0.5-0.1-1-0.4-1.4
			c-0.3-0.4-0.6-0.7-1-0.9C8,37.3,7.5,37.1,7,36.9c-0.5-0.2-1.1-0.4-1.6-0.5S4.3,36,3.7,35.8c-0.5-0.2-1-0.5-1.5-0.8
			c-0.4-0.3-0.8-0.8-1-1.3c-0.3-0.6-0.4-1.2-0.4-1.9c0-0.6,0.1-1.2,0.4-1.7c0.2-0.5,0.6-1,1-1.4c0.5-0.4,1.1-0.8,1.7-1
			c0.7-0.3,1.5-0.4,2.3-0.4c0.9,0,1.7,0.1,2.5,0.4c0.8,0.3,1.5,0.7,2.1,1.3l0.1,0.1l-0.4,0.7c-0.1,0.2-0.3,0.3-0.5,0.3
			c-0.2,0-0.4-0.1-0.5-0.3c-0.2-0.2-0.4-0.3-0.7-0.5c-0.3-0.2-0.7-0.4-1.1-0.5c-0.5-0.1-1-0.2-1.5-0.2c-0.6,0-1.1,0.1-1.7,0.3
			c-0.4,0.2-0.8,0.4-1.2,0.7c-0.3,0.3-0.6,0.6-0.7,1c-0.2,0.4-0.2,0.8-0.3,1.2c0,0.5,0.1,0.9,0.4,1.4c0.3,0.4,0.6,0.7,1,0.9
			c0.4,0.3,0.9,0.5,1.4,0.6l1.6,0.5c0.6,0.2,1.1,0.4,1.7,0.6c0.5,0.2,1,0.5,1.5,0.8c0.4,0.3,0.8,0.8,1.1,1.2
			c0.3,0.6,0.4,1.2,0.4,1.8c0,0.7-0.1,1.4-0.4,2.1c-0.3,0.6-0.7,1.2-1.1,1.7c-0.5,0.5-1.2,0.9-1.9,1.1C7.1,44.9,6.3,45.1,5.5,45z"/>
		<path class="st0" d="M34.8,44.8v-7.2l-6.7-10.1h1.4c0.1,0,0.3,0,0.4,0.1c0.1,0.1,0.2,0.2,0.2,0.3l5.1,7.8c0.1,0.2,0.2,0.4,0.3,0.6
			l0.1,0.2l0.1-0.2c0.1-0.2,0.2-0.4,0.3-0.6l5.1-7.8c0.1-0.1,0.1-0.2,0.2-0.3c0.1-0.1,0.2-0.1,0.4-0.1h1.4l-6.7,10.2v7.1L34.8,44.8z
			"/>
		<path class="st0" d="M89.8,44.8V27.5h4.8c1.7-0.1,3.4,0.4,4.8,1.4c1.1,1,1.7,2.4,1.7,3.9c0,0.7-0.1,1.5-0.4,2.1
			c-0.3,0.6-0.7,1.2-1.3,1.7c-0.6,0.5-1.3,0.8-2,1.1c-0.9,0.3-1.8,0.4-2.7,0.4h-3.2v6.9H89.8z M94.6,36.7c0.7,0,1.4-0.1,2.1-0.3
			c0.6-0.2,1.1-0.5,1.5-0.8c0.4-0.3,0.8-0.8,1-1.3c0.2-0.5,0.3-1,0.3-1.6c0.1-1.1-0.4-2.2-1.2-2.9c-1.1-0.7-2.4-1.1-3.7-1h-3.2v7.9
			H94.6z"/>
		<polygon class="st0" points="130.8,44.8 130.8,36.7 120,36.7 120,44.8 118.4,44.8 118.4,27.5 120,27.5 120,35.4 130.8,35.4 
			130.8,27.5 132.4,27.5 132.4,44.8 		"/>
		<path class="st0" d="M155.3,45c-1.2,0-2.4-0.2-3.5-0.6c-1-0.4-2-1-2.7-1.8c-0.8-0.8-1.4-1.7-1.8-2.8c-0.4-1.2-0.7-2.4-0.6-3.6
			c0-1.2,0.2-2.5,0.6-3.6c0.8-2.1,2.4-3.8,4.5-4.6c2.3-0.9,4.7-0.9,7,0c1,0.4,2,1,2.7,1.8c0.8,0.8,1.4,1.8,1.8,2.8
			c0.4,1.2,0.6,2.4,0.6,3.6c0,1.2-0.2,2.5-0.6,3.6c-0.4,1-1,2-1.8,2.8c-0.8,0.8-1.7,1.4-2.7,1.8C157.7,44.8,156.5,45,155.3,45z
			 M155.3,28.7c-1,0-1.9,0.2-2.8,0.5c-0.8,0.3-1.6,0.8-2.2,1.5c-0.6,0.7-1.1,1.5-1.4,2.4c-0.7,2-0.7,4.3,0,6.3
			c0.3,0.9,0.8,1.7,1.4,2.4c0.6,0.6,1.4,1.1,2.2,1.5c0.9,0.3,1.9,0.5,2.8,0.5c1,0,2-0.2,2.9-0.5c0.8-0.3,1.6-0.8,2.2-1.5
			c0.6-0.7,1.1-1.5,1.4-2.4c0.7-2,0.7-4.3,0-6.3c-0.3-0.9-0.8-1.7-1.4-2.4c-0.6-0.6-1.4-1.2-2.2-1.5
			C157.3,28.8,156.3,28.6,155.3,28.7L155.3,28.7z"/>
		<path class="st0" d="M191.5,44.8c-0.2,0-0.5-0.1-0.6-0.3l-11.3-14.4c0,0.1,0,14.7,0,14.7h-1.4V27.5h0.8c0.2,0,0.5,0.1,0.6,0.3
			l11.2,14.4c0-0.1,0-0.1,0-0.2V27.5h1.4v17.3H191.5z"/>
		<path class="st0" d="M214.4,44.8v-7.2l-6.7-10.1h1.4c0.1,0,0.3,0,0.4,0.1c0.1,0.1,0.2,0.2,0.2,0.3l5.1,7.8
			c0.1,0.2,0.2,0.4,0.3,0.6l0.1,0.2l0.1-0.2c0.1-0.2,0.2-0.4,0.3-0.6l5.1-7.8c0.1-0.1,0.1-0.2,0.2-0.3c0.1-0.1,0.2-0.1,0.4-0.1h1.4
			L216,37.7v7.1H214.4z"/>
		<path class="st0" d="M73.3,27.7c-0.1,0-0.1,0.1-0.1,0.1l-4.3,8.5l-3.8-8.7h-0.8l-3,6.9l-3.4-6.7c0-0.1-0.1-0.1-0.1-0.1
			c-0.1,0-0.1,0-0.2,0h-1.6v17.4h1.4c0.1,0,0.3-0.1,0.3-0.2l3.4-8l4,8c0.1,0.1,0.2,0.2,0.3,0.2h0.2c0.1,0,0.3-0.1,0.3-0.2l3.2-6.2
			l2.6,6.1c0,0.1,0.2,0.2,0.3,0.2h0.6l-3.1-7.2l0.5-1l3.4,8c0,0.1,0.2,0.2,0.3,0.2h1.4V27.7h-1.7C73.4,27.6,73.3,27.6,73.3,27.7z
			 M57.4,43.5V29.6l3.2,6.4L57.4,43.5z M61.7,35.4l2.7-6.2l0.3-0.6l0.3,0.6l0.2,0.6l-2.9,6.8L61.7,35.4z M65.5,42.9l-2.9-5.7
			l2.9-6.7l2.9,6.6L65.5,42.9z M73.6,43.5L70.4,36l3.2-6.4V43.5z"/>
		<path class="st0" d="M253.2,0.1c-6.5,0-12.2,4.5-13.7,10.9h0.6c1.7-7.2,8.9-11.6,16.1-9.9c2.8,0.7,5.3,2.2,7.2,4.5h-11.8v0.6h5.2
			l-1.3,2.4h-2.4h-0.1v10.7h1.3l0.3-0.6h-0.9V9.2h9v5c0,1.2-0.4,2.3-1.1,3.3l-0.1,0.1l0.3,0.6c0.1-0.1,0.2-0.2,0.3-0.3
			c0.9-1,1.3-2.4,1.3-3.7V8.5h-7.1l1.3-2.4h6.4c4.6,5.8,3.6,14.2-2.2,18.8c-5.8,4.6-14.2,3.6-18.8-2.2l0,0h-0.8
			c4.8,6.1,13.6,7.1,19.7,2.3c6.1-4.8,7.1-13.6,2.3-19.7C261.5,2,257.5,0,253.2,0.1L253.2,0.1z"/>
		<polygon class="st0" points="259.9,18.2 259.3,18.2 261,21.3 261.7,21.3 		"/>
		<polygon class="st0" points="242.2,12.7 240,19.7 250.7,19.7 248.4,12.8 247.7,12.8 249.8,19.1 240.9,19.1 242.9,12.7 		"/>
		<polygon class="st0" points="250.3,10.9 248.5,6.1 247.9,6.1 247.9,6.1 249.6,10.9 		"/>
		<path class="st0" d="M258.1,15.2v-3.3h-0.6v3.3c0,0.5-0.1,1-0.3,1.5l-2.3,4.6h0.6l2.2-4.5C258,16.2,258.1,15.7,258.1,15.2z"/>
	</g>
</g>
</svg>
