<?xml version="1.0" encoding="utf-8"?>
<!-- Generator: Adobe Illustrator 22.1.0, SVG Export Plug-In . SVG Version: 6.00 Build 0)  -->
<svg version="1.1" id="Layer_1" xmlns="http://www.w3.org/2000/svg" xmlns:xlink="http://www.w3.org/1999/xlink" x="0px" y="0px"
	 viewBox="0 0 242.3 44.5" style="enable-background:new 0 0 242.3 44.5;" xml:space="preserve">
<style type="text/css">
	.st0{fill:#6D6E71;}
</style>
<title>Asset 25</title>
<g id="Layer_2_1_">
	<g id="Layer_1-2">
		<polygon class="st0" points="11.7,44.4 11.7,36.3 1.5,36.3 1.5,44.4 0,44.4 0,27.3 1.5,27.3 1.5,35.1 11.7,35.1 11.7,27.3 
			13.3,27.3 13.3,44.4 		"/>
		<path class="st0" d="M43.3,44.4c-0.1,0-0.3,0-0.4-0.1c-0.1-0.1-0.2-0.2-0.2-0.3l-2-4.8h-8l-1.9,4.8c0,0.1-0.1,0.2-0.2,0.3
			c-0.1,0.1-0.2,0.1-0.4,0.1h-1.1l7-17.1h1.4l7,17.1H43.3z M40.3,38L37,29.7c-0.1-0.1-0.1-0.3-0.2-0.5v-0.1v0.1
			c0,0.2-0.1,0.3-0.2,0.5L33.3,38L40.3,38z"/>
		<path class="st0" d="M71.1,44.4c-0.1,0-0.3,0-0.4-0.1c-0.1-0.1-0.2-0.2-0.3-0.3L65,37.2c-0.1-0.1-0.2-0.2-0.4-0.3
			c-0.2-0.1-0.4-0.1-0.7-0.1h-2.1v7.6h-1.5V27.3h4.4c1.6-0.1,3.1,0.3,4.4,1.2c1,0.8,1.6,2.1,1.5,3.4c0,0.6-0.1,1.2-0.3,1.8
			c-0.2,0.5-0.6,1-1,1.4c-0.5,0.4-1,0.8-1.6,1c-0.5,0.2-1.1,0.4-1.7,0.5c0.1,0.1,0.2,0.2,0.3,0.3l6,7.5L71.1,44.4z M64.7,35.6
			c0.7,0,1.3-0.1,2-0.3c0.5-0.2,1-0.4,1.4-0.7c0.4-0.3,0.7-0.7,0.9-1.1c0.2-0.5,0.3-1,0.3-1.5c0.1-1-0.4-1.9-1.1-2.5
			c-1-0.6-2.2-0.9-3.3-0.8h-3v7L64.7,35.6z"/>
		<path class="st0" d="M130.4,44.5c-1.1,0-2.3-0.2-3.3-0.6c-1-0.4-1.9-1-2.6-1.8c-0.7-0.8-1.3-1.7-1.7-2.8c-0.8-2.3-0.8-4.8,0-7.1
			c0.4-1,0.9-2,1.7-2.8c0.7-0.8,1.6-1.4,2.6-1.8c2.1-0.8,4.5-0.8,6.6,0c1,0.4,1.9,1,2.6,1.8c0.7,0.8,1.3,1.7,1.7,2.8
			c0.8,2.3,0.8,4.8,0,7.1c-0.4,1-0.9,2-1.7,2.8c-0.7,0.8-1.6,1.4-2.6,1.8C132.7,44.3,131.5,44.6,130.4,44.5z M130.4,28.4
			c-0.9,0-1.8,0.2-2.7,0.5c-0.8,0.3-1.5,0.8-2.1,1.5c-0.6,0.7-1.1,1.5-1.4,2.3c-0.6,2-0.6,4.2,0,6.2c0.3,0.9,0.8,1.6,1.4,2.3
			c0.6,0.6,1.3,1.1,2.1,1.5c0.9,0.3,1.8,0.5,2.7,0.5c0.9,0,1.8-0.2,2.7-0.5c0.8-0.3,1.5-0.8,2.1-1.5c0.6-0.7,1-1.5,1.3-2.3
			c0.6-2,0.6-4.2,0-6.2c-0.3-0.9-0.7-1.6-1.3-2.3c-0.6-0.6-1.3-1.1-2.1-1.5C132.3,28.6,131.3,28.4,130.4,28.4z"/>
		<path class="st0" d="M167,44.4c-0.2,0-0.4-0.1-0.6-0.3l-10.6-14.2v14.5h-1.4V27.3h0.7c0.1,0,0.2,0,0.3,0.1
			c0.1,0.1,0.2,0.1,0.3,0.2l10.6,14.1c0-0.1,0-0.1,0-0.2V27.3h1.4v17.1H167z"/>
		<path class="st0" d="M189.9,44.4v-7.1l-6.3-10h1.3c0.1,0,0.2,0,0.4,0.1c0.1,0.1,0.2,0.2,0.2,0.3l4.8,7.7c0.1,0.2,0.2,0.4,0.3,0.5
			l0.1,0.2c0-0.1,0-0.1,0.1-0.2c0.1-0.2,0.2-0.4,0.3-0.5l4.8-7.7c0-0.1,0.1-0.2,0.2-0.3c0.1-0.1,0.2-0.1,0.4-0.1h1.3l-6.4,10.1v7
			L189.9,44.4z"/>
		<path class="st0" d="M104.6,27.1c-0.1,0-0.1,0.1-0.1,0.1l-4.1,8.4L96.9,27h-0.8l-2.8,6.8l-3.2-6.6c0,0-0.1-0.1-0.1-0.1
			c-0.1,0-0.1,0-0.2,0h-1.6v17.1h1.3c0.1,0,0.3-0.1,0.3-0.2l3.3-7.9L97,44c0.1,0.1,0.2,0.2,0.3,0.2h0.2c0.1,0,0.2-0.1,0.3-0.2
			l2.9-6.1l2.5,6.1c0,0.1,0.1,0.2,0.3,0.2h0.5l-2.9-7.1l0.5-1l3.3,7.9c0,0.1,0.1,0.2,0.3,0.2h1.4V27.1h-1.6
			C104.7,27.1,104.7,27.1,104.6,27.1z M89.7,42.7V29l3,6.3L89.7,42.7z M93.7,34.7l2.5-6.1l0.3-0.6l0.3,0.6L97,29l-2.8,6.7L93.7,34.7
			z M97.3,42.1l-2.7-5.6l2.7-6.6l2.7,6.5L97.3,42.1z M104.9,42.6l-3-7.4l3-6.3V42.6z"/>
		<path class="st0" d="M239,15.4v-2.9h-20.6v7.7h15.6C236.7,20.2,238.9,18.1,239,15.4z M219,13.1h19.4v2.3c-0.1,2.3-2,4.2-4.3,4.1
			h-15V13.1z"/>
		<path class="st0" d="M228.6,0c-6.9,0-12.8,5.1-13.7,11.9l0,0l0.1,0.5l4.4-2.3h18.5l4.3,2.3l0.2-0.4C241.4,5.1,235.5,0,228.6,0z
			 M220.6,9.5l5.8-3c1.5-0.8,3.3-0.8,4.8,0.1l5.5,2.9L220.6,9.5z M231.5,6.1c-1.7-0.9-3.7-0.9-5.4-0.1l-10.5,5.4
			c1.4-7.2,8.3-11.9,15.5-10.5c5.3,1,9.5,5.2,10.5,10.5L231.5,6.1z"/>
		<path class="st0" d="M228.6,27.1c-4.9,0-9.4-2.7-11.7-7h-0.7c3.4,6.8,11.8,9.6,18.6,6.2c2.7-1.3,4.8-3.5,6.2-6.2h-0.7
			C237.9,24.5,233.4,27.1,228.6,27.1z"/>
	</g>
</g>
</svg>
