<?xml version="1.0" encoding="utf-8"?>
<!-- Generator: Adobe Illustrator 22.1.0, SVG Export Plug-In . SVG Version: 6.00 Build 0)  -->
<svg version="1.1" id="Layer_1" xmlns="http://www.w3.org/2000/svg" xmlns:xlink="http://www.w3.org/1999/xlink" x="0px" y="0px"
	 viewBox="0 0 206.4 43.6" style="enable-background:new 0 0 206.4 43.6;" xml:space="preserve">
<style type="text/css">
	.st0{fill:#6D6E71;}
</style>
<title>Asset 27</title>
<g id="Layer_2_1_">
	<g id="Layer_1-2">
		<path class="st0" d="M181.4,7.6h23.1V9h0.6V7l0,0c-0.3-0.5-0.6-1.1-1-1.5l-0.4-0.5l0,0c-4.8-5.8-13.5-6.6-19.3-1.8
			c-0.9,0.8-1.8,1.7-2.4,2.6h0.8c4.4-5.8,12.6-6.9,18.3-2.5c0.8,0.6,1.6,1.3,2.2,2.1c0.1,0.1,0.1,0.1,0.1,0.2
			c0.3,0.4,0.6,0.8,0.9,1.3l0,0l0.1,0.2h-10.7V5.6h-0.6V7h-12.3v2h0.6V7.6z"/>
		<path class="st0" d="M206.4,15.9h-10.1v-5.2h6.3V10h-19v0.6h12v5.2h-14.9v0.6h14.9c-0.1,1.1-1,4.9-6.1,4.9h-0.7V22h0.7
			c5.6,0,6.6-4.4,6.7-5.5h9.4v0.1c-1.6,7-8.6,11.4-15.7,9.8c-0.3-0.1-0.6-0.1-0.9-0.2l-0.2-0.1c-0.4-0.1-0.8-0.3-1.2-0.5l0,0
			c-1.1-0.5-2.1-1.1-3-1.9l-0.2-0.1c-0.3-0.3-0.6-0.6-1-0.9h-0.9c0.3,0.4,0.7,0.8,1.1,1.1c0.2,0.1,0.3,0.3,0.5,0.4l0,0
			c0.8,0.6,1.7,1.2,2.6,1.6l0,0l0,0c6.2,3,13.6,1,17.4-4.8l0.2-0.3l0,0c0.9-1.4,1.5-3,1.9-4.6L206.4,15.9z"/>
		<path class="st0" d="M8,43.6c-1.1,0-2.2-0.2-3.2-0.6c-1-0.4-1.8-1-2.5-1.8c-0.7-0.8-1.3-1.7-1.6-2.8C0.2,37.3,0,36.1,0,34.8
			c0-1.2,0.2-2.4,0.6-3.5c0.4-1,1-2,1.7-2.8C3.1,27.7,4,27.1,5,26.7c1.1-0.4,2.2-0.6,3.4-0.6c0.6,0,1.1,0,1.7,0.1
			c0.5,0.1,1,0.2,1.4,0.4c0.4,0.2,0.9,0.4,1.3,0.6c0.4,0.3,0.8,0.6,1.2,0.9l0.1,0.1l-0.4,0.6c-0.1,0.1-0.2,0.2-0.4,0.2
			c-0.1,0-0.3-0.1-0.4-0.1l-0.4-0.3l-0.6-0.4c-0.3-0.2-0.5-0.3-0.8-0.4c-0.4-0.1-0.7-0.2-1.1-0.3c-0.5-0.1-1-0.1-1.5-0.1
			c-0.9,0-1.9,0.2-2.8,0.5c-0.8,0.3-1.5,0.8-2.2,1.5c-0.6,0.7-1.2,1.5-1.5,2.3c-0.3,1-0.5,2-0.5,3.1C1.5,35.9,1.6,37,2,38
			c0.3,0.9,0.8,1.6,1.4,2.3c0.6,0.6,1.3,1.1,2.1,1.5c0.8,0.3,1.7,0.5,2.6,0.5c0.5,0,1.1,0,1.6-0.1c0.4-0.1,0.9-0.2,1.3-0.4
			c0.4-0.2,0.7-0.4,1.1-0.6c0.4-0.2,0.7-0.5,1-0.8l0.1-0.1c0.1,0,0.1-0.1,0.2,0c0.1,0,0.2,0,0.3,0.1l0.6,0.6l-0.1,0.1
			c-0.4,0.4-0.7,0.7-1.2,1c-0.4,0.3-0.9,0.6-1.4,0.8c-0.5,0.2-1.1,0.4-1.6,0.5C9.3,43.5,8.7,43.6,8,43.6z"/>
		<path class="st0" d="M37.9,43.6c-1.1,0-2.3-0.2-3.3-0.6c-1-0.4-1.8-1-2.5-1.8c-0.7-0.8-1.3-1.7-1.7-2.8c-0.8-2.3-0.8-4.8,0-7.1
			c0.4-1,0.9-2,1.7-2.8c0.7-0.8,1.6-1.4,2.6-1.8c1-0.4,2.2-0.6,3.3-0.6c1.1,0,2.3,0.2,3.3,0.6c1,0.4,1.9,1,2.6,1.8
			c0.7,0.8,1.3,1.7,1.7,2.8c0.4,1.1,0.6,2.4,0.6,3.6c0,1.2-0.2,2.4-0.6,3.6c-0.4,1-0.9,2-1.7,2.8c-0.7,0.8-1.6,1.4-2.6,1.8
			C40.1,43.4,39,43.6,37.9,43.6z M37.9,27.4c-0.9,0-1.8,0.2-2.7,0.5c-0.8,0.3-1.5,0.8-2.1,1.5c-0.6,0.7-1.1,1.5-1.4,2.3
			c-0.7,2-0.7,4.2,0,6.2c0.3,0.9,0.7,1.6,1.4,2.3c0.6,0.6,1.3,1.1,2.1,1.5c0.9,0.3,1.8,0.5,2.7,0.5c0.9,0,1.8-0.2,2.7-0.5
			c0.8-0.3,1.5-0.8,2.1-1.5c0.6-0.7,1.1-1.4,1.4-2.3c0.6-2,0.6-4.2,0-6.2c-0.3-0.9-0.7-1.7-1.3-2.3c-0.6-0.6-1.3-1.1-2.1-1.5
			C39.7,27.6,38.8,27.4,37.9,27.4z"/>
		<path class="st0" d="M66.6,43.6c-1,0-2-0.2-2.9-0.6c-0.8-0.4-1.6-1-2.2-1.6l-0.1-0.1l0.4-0.6c0.1-0.2,0.3-0.2,0.5-0.3
			c0.1,0,0.3,0.1,0.4,0.2l0.4,0.4c0.2,0.1,0.3,0.3,0.6,0.4c0.2,0.2,0.5,0.3,0.7,0.4c0.3,0.1,0.7,0.3,1,0.3c0.4,0.1,0.8,0.1,1.3,0.1
			c0.6,0,1.2-0.1,1.7-0.3c0.5-0.2,0.9-0.5,1.3-0.8c0.3-0.3,0.6-0.7,0.8-1.2c0.2-0.5,0.3-1,0.3-1.5c0-0.5-0.1-1-0.3-1.4
			c-0.2-0.4-0.6-0.7-0.9-0.9c-0.4-0.3-0.8-0.5-1.3-0.6l-1.6-0.5c-0.6-0.2-1.1-0.3-1.6-0.6c-0.5-0.2-1-0.5-1.4-0.8
			c-0.4-0.3-0.8-0.8-1-1.3c-0.3-0.6-0.4-1.2-0.4-1.9c0-0.6,0.1-1.1,0.3-1.7c0.2-0.5,0.6-1,1-1.4c0.5-0.4,1-0.8,1.6-1
			c0.7-0.3,1.4-0.4,2.1-0.4c0.8,0,1.6,0.1,2.4,0.4c0.7,0.3,1.4,0.7,1.9,1.3l0.1,0.1l-0.3,0.6c-0.1,0.2-0.3,0.3-0.4,0.3
			c-0.2,0-0.4-0.1-0.5-0.3c-0.2-0.2-0.4-0.3-0.6-0.5c-0.3-0.2-0.7-0.4-1-0.5c-0.5-0.2-1-0.2-1.5-0.2c-0.5,0-1.1,0.1-1.6,0.3
			c-0.4,0.2-0.8,0.4-1.1,0.7c-0.3,0.3-0.5,0.6-0.7,1c-0.2,0.4-0.2,0.8-0.2,1.2c0,0.5,0.1,0.9,0.3,1.3c0.2,0.4,0.5,0.7,0.9,0.9
			c0.4,0.3,0.9,0.5,1.3,0.6l1.6,0.5c0.5,0.2,1.1,0.4,1.6,0.6c0.5,0.2,1,0.5,1.4,0.8c0.9,0.7,1.4,1.8,1.4,3c0,0.7-0.1,1.4-0.4,2
			c-0.2,0.6-0.6,1.2-1.1,1.7c-0.5,0.5-1,0.9-1.7,1.2C68.2,43.4,67.4,43.6,66.6,43.6z"/>
		<path class="st0" d="M129.3,43.6c-1.1,0-2.2-0.2-3.3-0.6c-1-0.4-1.9-1-2.6-1.8c-0.7-0.8-1.3-1.7-1.7-2.8c-0.4-1.1-0.6-2.4-0.6-3.6
			c0-1.2,0.2-2.4,0.6-3.6c0.4-1,0.9-2,1.7-2.8c0.7-0.8,1.6-1.4,2.6-1.8c1-0.4,2.2-0.6,3.3-0.6c1.1,0,2.3,0.2,3.3,0.6
			c1,0.4,1.9,1,2.6,1.8c0.7,0.8,1.3,1.7,1.7,2.8c0.4,1.1,0.6,2.4,0.6,3.6c0,1.2-0.2,2.4-0.6,3.6c-0.4,1-0.9,2-1.7,2.8
			c-0.7,0.8-1.6,1.4-2.6,1.8C131.6,43.4,130.5,43.6,129.3,43.6z M129.3,27.4c-0.9,0-1.8,0.2-2.7,0.5c-0.8,0.3-1.5,0.8-2.1,1.5
			c-0.6,0.7-1.1,1.5-1.4,2.3c-0.6,2-0.6,4.2,0,6.2c0.3,0.9,0.8,1.6,1.4,2.3c0.6,0.6,1.3,1.1,2.1,1.5c0.9,0.3,1.8,0.5,2.7,0.5
			c0.9,0,1.8-0.2,2.7-0.5c0.8-0.3,1.5-0.8,2.1-1.5c0.6-0.7,1.1-1.5,1.3-2.3c0.6-2,0.6-4.2,0-6.2c-0.3-0.9-0.7-1.7-1.3-2.3
			c-0.6-0.6-1.3-1.1-2.1-1.4C131.2,27.6,130.2,27.4,129.3,27.4z"/>
		<path class="st0" d="M158.1,43.6c-1,0-2-0.2-2.9-0.6c-0.8-0.4-1.5-1-2.1-1.6l-0.1-0.1l0.4-0.6c0.1-0.2,0.3-0.2,0.5-0.3
			c0.1,0,0.3,0.1,0.4,0.2l0.4,0.4c0.2,0.1,0.4,0.3,0.6,0.4c0.2,0.2,0.5,0.3,0.8,0.4c0.3,0.1,0.7,0.3,1,0.3c0.4,0.1,0.8,0.1,1.3,0.1
			c0.6,0,1.2-0.1,1.7-0.3c0.5-0.2,0.9-0.5,1.3-0.8c0.3-0.3,0.6-0.7,0.8-1.2c0.2-0.5,0.3-1,0.3-1.5c0-0.5-0.1-1-0.3-1.4
			c-0.2-0.4-0.5-0.7-0.9-0.9c-0.4-0.3-0.9-0.5-1.3-0.6l-1.6-0.5c-0.5-0.2-1.1-0.3-1.6-0.6c-0.5-0.2-1-0.5-1.4-0.8
			c-0.4-0.3-0.8-0.8-1-1.3c-0.3-0.6-0.4-1.2-0.4-1.9c0-0.6,0.1-1.1,0.3-1.7c0.2-0.5,0.6-1,1-1.4c0.5-0.4,1-0.8,1.6-1
			c0.7-0.3,1.4-0.4,2.1-0.4c0.8,0,1.6,0.1,2.4,0.4c0.7,0.3,1.4,0.7,1.9,1.3l0.1,0.1l-0.3,0.6c-0.1,0.2-0.2,0.3-0.4,0.3
			c-0.2,0-0.4-0.1-0.5-0.3c-0.2-0.2-0.4-0.3-0.6-0.5c-0.3-0.2-0.7-0.4-1-0.5c-0.5-0.2-1-0.2-1.5-0.2c-0.5,0-1.1,0.1-1.6,0.3
			c-0.4,0.2-0.8,0.4-1.1,0.7c-0.3,0.3-0.5,0.6-0.7,1c-0.2,0.4-0.2,0.8-0.2,1.2c0,0.5,0.1,0.9,0.3,1.3c0.2,0.4,0.5,0.7,0.9,0.9
			c0.4,0.3,0.9,0.5,1.3,0.6l1.6,0.5c0.5,0.2,1,0.4,1.6,0.6c0.5,0.2,1,0.5,1.4,0.8c0.9,0.7,1.4,1.8,1.4,3c0,0.7-0.1,1.4-0.4,2
			c-0.2,0.6-0.6,1.2-1.1,1.7c-0.5,0.5-1.1,0.9-1.7,1.1C159.7,43.4,158.9,43.6,158.1,43.6z"/>
		<path class="st0" d="M104,26.3c-0.1,0-0.1,0.1-0.1,0.1l-4,8.4l-3.6-8.6h-0.8l-2.8,6.8l-3.2-6.6c0-0.1-0.1-0.1-0.1-0.1
			c-0.1,0-0.1,0-0.2,0h-1.7v17.1h1.3c0.1,0,0.3-0.1,0.3-0.2l3.3-7.9l3.8,7.9c0.1,0.1,0.2,0.2,0.3,0.2h0.2c0.1,0,0.2-0.1,0.3-0.2
			l2.9-6.1l2.5,6.1c0,0.1,0.1,0.2,0.3,0.2h0.6l-2.9-7.1l0.5-1l3.2,7.9c0,0.1,0.1,0.2,0.3,0.2h1.4V26.3h-1.6
			C104.1,26.3,104,26.3,104,26.3z M89,41.9V28.2l3.1,6.3L89,41.9z M93,33.9l2.5-6.1l0.3-0.6l0.3,0.6l0.2,0.5l-2.8,6.7L93,33.9z
			 M96.6,41.3L94,35.7l2.7-6.6l2.7,6.5L96.6,41.3z M104.3,41.8l-3-7.4l3-6.3V41.8z"/>
	</g>
</g>
</svg>
