<?xml version="1.0" encoding="utf-8"?>
<!-- Generator: Adobe Illustrator 23.0.1, SVG Export Plug-In . SVG Version: 6.00 Build 0)  -->
<svg version="1.1" id="Layer_1" xmlns="http://www.w3.org/2000/svg" xmlns:xlink="http://www.w3.org/1999/xlink" x="0px" y="0px"
	 width="324.3px" height="62.6px" viewBox="0 0 324.3 62.6" style="enable-background:new 0 0 324.3 62.6;" xml:space="preserve">
<title>Asset 15</title>
<g>
	<g id="Layer_1-2">
		<polygon style="fill:#FFFFFF;" points="74.2,44.4 74.2,36.3 64,36.3 64,44.4 62.5,44.4 62.5,27.3 64,27.3 64,35.1 74.2,35.1 
			74.2,27.3 75.8,27.3 75.8,44.4 		"/>
		<path style="fill:#FFFFFF;" d="M105.8,44.4c-0.1,0-0.3,0-0.4-0.1s-0.2-0.2-0.2-0.3l-2-4.8h-8L93.3,44c0,0.1-0.1,0.2-0.2,0.3
			s-0.2,0.1-0.4,0.1h-1.1l7-17.1h1.4l7,17.1C107,44.4,105.8,44.4,105.8,44.4z M102.8,38l-3.3-8.3c-0.1-0.1-0.1-0.3-0.2-0.5v-0.1v0.1
			c0,0.2-0.1,0.3-0.2,0.5L95.8,38H102.8z"/>
		<path style="fill:#FFFFFF;" d="M133.6,44.4c-0.1,0-0.3,0-0.4-0.1c-0.1-0.1-0.2-0.2-0.3-0.3l-5.3-6.8c-0.1-0.1-0.2-0.3-0.4-0.3
			c-0.2-0.1-0.4-0.1-0.7-0.1h-2.1v7.6h-1.5V27.3h4.4c1.6-0.1,3.1,0.3,4.4,1.1c1,0.8,1.6,2.1,1.5,3.4c0,0.6-0.1,1.2-0.3,1.8
			c-0.2,0.5-0.6,1-1,1.5c-0.5,0.4-1,0.8-1.6,1c-0.5,0.2-1.1,0.4-1.7,0.5c0.1,0.1,0.2,0.2,0.3,0.3l6,7.5L133.6,44.4z M127.2,35.6
			c0.7,0,1.3-0.1,2-0.3c0.5-0.2,1-0.4,1.4-0.7s0.7-0.7,0.9-1.2s0.3-1,0.3-1.5c0.1-1-0.3-1.9-1.1-2.5c-1-0.6-2.2-0.9-3.3-0.8h-3v7
			H127.2z"/>
		<path style="fill:#FFFFFF;" d="M192.9,44.5c-1.1,0-2.3-0.2-3.3-0.6c-1-0.4-1.9-1-2.6-1.8c-0.7-0.8-1.3-1.7-1.7-2.8
			c-0.8-2.3-0.8-4.8,0-7.2c0.4-1,0.9-2,1.7-2.8c0.7-0.8,1.6-1.4,2.6-1.8s2.2-0.6,3.3-0.6s2.3,0.2,3.3,0.6s1.9,1,2.6,1.8
			c0.7,0.8,1.3,1.7,1.7,2.8c0.8,2.3,0.8,4.8,0,7.2c-0.4,1-0.9,2-1.7,2.8c-0.7,0.8-1.6,1.4-2.6,1.8S194.1,44.6,192.9,44.5z
			 M192.9,28.4c-0.9,0-1.8,0.2-2.7,0.5c-0.8,0.3-1.5,0.8-2.1,1.5s-1.1,1.5-1.4,2.3c-0.6,2-0.6,4.2,0,6.2c0.3,0.9,0.8,1.6,1.4,2.3
			c0.6,0.6,1.3,1.1,2.1,1.5c0.9,0.3,1.8,0.5,2.7,0.5s1.8-0.2,2.7-0.5c0.8-0.3,1.5-0.8,2.1-1.5s1.1-1.5,1.3-2.3c0.6-2,0.6-4.2,0-6.2
			c-0.3-0.9-0.7-1.6-1.3-2.3c-0.6-0.6-1.3-1.1-2.1-1.5C194.8,28.6,193.8,28.4,192.9,28.4z"/>
		<path style="fill:#FFFFFF;" d="M229.5,44.4c-0.2,0-0.4-0.1-0.6-0.3l-10.7-14.2v14.5h-1.4V27.3h0.7c0.1,0,0.2,0,0.3,0
			c0.1,0.1,0.2,0.1,0.3,0.2l10.6,14.2c0-0.1,0-0.1,0-0.2V27.3h1.4v17.1H229.5z"/>
		<path style="fill:#FFFFFF;" d="M252.4,44.4v-7.1l-6.3-10h1.3c0.1,0,0.2,0,0.4,0.1c0.1,0.1,0.2,0.2,0.2,0.3l4.8,7.7
			c0.1,0.2,0.2,0.4,0.3,0.5l0.1,0.2c0-0.1,0.1-0.1,0.1-0.2s0.2-0.3,0.3-0.5l4.8-7.7c0-0.1,0.1-0.2,0.2-0.3c0.1-0.1,0.2-0.1,0.4-0.1
			h1.3l-6.4,10.1v7H252.4z"/>
		<path style="fill:#FFFFFF;" d="M167.1,27.1c-0.1,0-0.1,0.1-0.1,0.1l-4.1,8.4l-3.6-8.6h-0.8l-2.8,6.8l-3.2-6.6
			c0-0.1-0.1-0.1-0.1-0.1c-0.1,0-0.1,0-0.2,0h-1.6v17.1h1.3c0.1,0,0.3-0.1,0.3-0.2l3.3-7.9l4,7.9c0.1,0.1,0.2,0.2,0.3,0.2h0.2
			c0.1,0,0.2-0.1,0.3-0.2l2.9-6.1l2.4,6.1c0,0.1,0.1,0.2,0.3,0.2h0.6l-2.9-7.1l0.5-1l3.3,7.9c0,0.1,0.1,0.2,0.3,0.2h1.4V27.1h-1.6
			C167.2,27.1,167.2,27.1,167.1,27.1z M152.2,42.7V29l3,6.3L152.2,42.7z M156.2,34.7l2.5-6.2l0.3-0.6l0.3,0.6l0.2,0.5l-2.8,6.7
			L156.2,34.7z M159.8,42.1l-2.7-5.6l2.7-6.6l2.7,6.5L159.8,42.1z M167.4,42.6l-3-7.4l3.1-6.2L167.4,42.6z"/>
		<path style="fill:#FFFFFF;" d="M301.5,15.4v-2.9h-20.6v7.7h15.6C299.2,20.2,301.4,18.1,301.5,15.4z M281.5,13.1h19.4v2.3
			c-0.1,2.3-2,4.2-4.3,4.1h-15v-6.4H281.5z"/>
		<path style="fill:#FFFFFF;" d="M291.1,0c-6.9,0-12.8,5.1-13.7,11.9l0,0l0.1,0.5l4.4-2.3h18.5l4.3,2.3l0.2-0.4
			C303.9,5.1,298,0,291.1,0z M283.1,9.5l5.8-3c1.5-0.8,3.3-0.8,4.8,0.1l5.5,2.9H283.1z M294,6.1c-1.7-0.9-3.7-0.9-5.4-0.1l-10.5,5.4
			c1.4-7.2,8.3-11.9,15.5-10.5c5.3,1,9.5,5.2,10.5,10.5L294,6.1z"/>
		<path style="fill:#FFFFFF;" d="M291.1,27.1c-4.9,0-9.4-2.7-11.7-7h-0.7c3.4,6.8,11.8,9.6,18.6,6.2c2.7-1.3,4.8-3.5,6.2-6.2h-0.7
			C300.4,24.4,295.9,27.1,291.1,27.1z"/>
	</g>
</g>
</svg>
