<?xml version="1.0" encoding="utf-8"?>
<!-- Generator: Adobe Illustrator 23.0.1, SVG Export Plug-In . SVG Version: 6.00 Build 0)  -->
<svg version="1.1" id="Layer_1" xmlns="http://www.w3.org/2000/svg" xmlns:xlink="http://www.w3.org/1999/xlink" x="0px" y="0px"
	 width="324.3px" height="62.6px" viewBox="0 0 324.3 62.6" style="enable-background:new 0 0 324.3 62.6;" xml:space="preserve">
<title>Asset 13</title>
<g>
	<g id="Layer_1-2">
		<polygon style="fill:#FFFFFF;" points="53.1,44.3 53.1,28.3 46.8,28.3 46.8,27 61,27 61,28.3 54.8,28.3 54.8,44.3 		"/>
		<rect x="81.2" y="27" style="fill:#FFFFFF;" width="1.6" height="17.3"/>
		<polygon style="fill:#FFFFFF;" points="142.3,44.3 142.3,27 153.3,27 153.3,28.3 143.9,28.3 143.9,34.9 151.7,34.9 151.7,36.2 
			143.9,36.2 143.9,43 153.3,43 153.3,44.3 		"/>
		<polygon style="fill:#FFFFFF;" points="173.5,44.3 173.5,27 175.1,27 175.1,43 183.5,43 183.5,44.3 		"/>
		<polygon style="fill:#FFFFFF;" points="203.7,44.3 203.7,27 214.7,27 214.7,28.3 205.3,28.3 205.3,34.9 213.1,34.9 213.1,36.2 
			205.3,36.2 205.3,43 214.7,43 214.7,44.3 		"/>
		<path style="fill:#FFFFFF;" d="M240.3,44.5c-1.1,0-2.1-0.2-3.1-0.6c-0.9-0.4-1.6-1-2.3-1.7l-0.1-0.1l0.4-0.6
			c0.1-0.2,0.3-0.2,0.5-0.3c0.1,0,0.3,0.1,0.4,0.2l0.4,0.4c0.2,0.1,0.4,0.3,0.6,0.5c0.2,0.2,0.5,0.3,0.8,0.4
			c0.7,0.3,1.6,0.5,2.4,0.5c0.6,0,1.2-0.1,1.8-0.3c0.5-0.2,1-0.5,1.4-0.8s0.7-0.7,0.8-1.2c0.2-0.5,0.3-1,0.3-1.5s-0.1-1-0.4-1.4
			c-0.3-0.4-0.6-0.7-1-0.9c-0.4-0.3-0.9-0.5-1.4-0.6l-1.6-0.5c-0.6-0.2-1.1-0.3-1.7-0.6c-0.5-0.2-1-0.5-1.5-0.8
			c-0.4-0.3-0.8-0.8-1.1-1.3c-0.3-0.6-0.4-1.2-0.4-1.9c0-0.6,0.1-1.2,0.4-1.7c0.2-0.5,0.6-1,1-1.5c0.5-0.4,1.1-0.8,1.7-1
			c0.7-0.3,1.5-0.4,2.3-0.4c0.9,0,1.7,0.1,2.6,0.4c0.8,0.3,1.5,0.7,2.1,1.3l0.1,0.1l-0.4,0.6c-0.1,0.2-0.3,0.3-0.5,0.3
			s-0.4-0.1-0.5-0.3c-0.2-0.2-0.4-0.3-0.7-0.5s-0.7-0.4-1.1-0.5c-0.5-0.2-1-0.2-1.6-0.2s-1.1,0.1-1.7,0.3c-0.4,0.1-0.8,0.4-1.2,0.7
			c-0.3,0.3-0.6,0.6-0.7,1c-0.2,0.4-0.2,0.8-0.2,1.2c0,0.5,0.1,1,0.4,1.4c0.3,0.4,0.6,0.7,1,0.9c0.4,0.3,0.9,0.5,1.4,0.7l1.6,0.5
			c0.6,0.2,1.1,0.4,1.6,0.6c0.5,0.2,1,0.5,1.5,0.8c0.4,0.3,0.8,0.8,1.1,1.2c0.3,0.6,0.4,1.2,0.4,1.8c0,0.7-0.1,1.4-0.4,2.1
			c-0.3,0.6-0.6,1.2-1.1,1.7s-1.2,0.9-1.8,1.1C241.9,44.4,241.1,44.5,240.3,44.5z"/>
		<path style="fill:#FFFFFF;" d="M271.9,44.5c-1.1,0-2.1-0.2-3.1-0.6c-0.9-0.4-1.6-1-2.3-1.7l-0.1-0.1l0.4-0.6
			c0.1-0.2,0.3-0.2,0.5-0.3c0.1,0,0.3,0.1,0.4,0.2l0.4,0.4c0.2,0.1,0.4,0.3,0.6,0.5s0.5,0.3,0.8,0.4c0.7,0.3,1.6,0.5,2.4,0.5
			c0.6,0,1.2-0.1,1.8-0.3c0.5-0.2,1-0.5,1.4-0.8s0.7-0.7,0.8-1.2c0.2-0.5,0.3-1,0.3-1.5s-0.1-1-0.4-1.4s-0.6-0.7-1-0.9
			c-0.4-0.3-0.9-0.5-1.4-0.6l-1.6-0.5c-0.6-0.2-1.1-0.4-1.7-0.6c-0.5-0.2-1-0.5-1.5-0.8c-0.4-0.3-0.8-0.8-1.1-1.3
			c-0.3-0.6-0.4-1.2-0.4-1.9c0-0.6,0.1-1.2,0.4-1.7c0.2-0.5,0.6-1,1-1.5c0.5-0.4,1.1-0.8,1.7-1c0.7-0.3,1.5-0.4,2.3-0.4
			c0.9,0,1.7,0.1,2.6,0.4c0.8,0.3,1.5,0.7,2.1,1.3l0.1,0.1l-0.4,0.6c-0.1,0.2-0.3,0.3-0.5,0.3s-0.4-0.1-0.5-0.3
			c-0.2-0.2-0.4-0.3-0.7-0.5c-0.3-0.2-0.7-0.4-1.1-0.5c-0.5-0.2-1-0.2-1.6-0.2s-1.1,0.1-1.7,0.3c-0.4,0.1-0.8,0.4-1.2,0.7
			c-0.3,0.3-0.6,0.6-0.7,1c-0.2,0.4-0.3,0.8-0.3,1.2c0,0.5,0.1,1,0.4,1.4c0.3,0.4,0.6,0.7,1,0.9c0.4,0.3,0.9,0.5,1.4,0.7l1.6,0.5
			c0.6,0.2,1.1,0.4,1.6,0.6c0.5,0.2,1,0.5,1.5,0.8c0.4,0.3,0.8,0.8,1.1,1.2c0.3,0.6,0.4,1.2,0.4,1.8c0,0.7-0.1,1.4-0.4,2.1
			c-0.3,0.6-0.6,1.2-1.1,1.7s-1.2,0.9-1.8,1.1C273.5,44.4,272.6,44.5,271.9,44.5z"/>
		<path style="fill:#FFFFFF;" d="M120.3,27c-0.1,0-0.1,0.1-0.1,0.1l-4.3,8.5l-3.8-8.7h-0.8l-3,6.9l-3.4-6.7c0-0.1-0.1-0.1-0.1-0.1
			c-0.1,0-0.1,0-0.2,0h-1.7v17.4h1.4c0.1,0,0.3-0.1,0.3-0.2l3.4-8l4,8c0.1,0.1,0.2,0.2,0.3,0.2h0.2c0.1,0,0.3-0.1,0.3-0.2l3.2-6.1
			l2.6,6.2c0,0.1,0.2,0.2,0.3,0.2h0.6l-3.1-7.2l0.5-1l3.4,8c0,0.1,0.2,0.2,0.3,0.2h1.4V26.9h-1.7C120.4,26.9,120.3,27,120.3,27z
			 M104.4,42.8V28.9l3.2,6.4L104.4,42.8z M108.8,34.6l2.7-6.2l0.3-0.6l0.3,0.6l0.2,0.5l-2.9,6.8L108.8,34.6z M112.5,42.2l-2.9-5.7
			l2.9-6.7l2.9,6.6L112.5,42.2z M120.7,42.8l-3.2-7.5l3.2-6.4V42.8z"/>
		<polygon style="fill:#FFFFFF;" points="301.6,6.7 301.1,6.7 301.1,12.6 298.6,11.9 298.6,8.2 298,8.2 298,17.7 298.6,17.7 
			298.6,12.5 301.1,13.2 301.1,20.5 301.6,20.5 301.6,13.4 303,13.8 303,13.1 301.6,12.7 		"/>
		<path style="fill:#FFFFFF;" d="M319.9,19.6h-2.6l2.4-4.6c0.4-0.7,0.4-1.6,0.1-2.3c-0.4-0.9-1.3-1.6-2.3-1.8l-10.6-2.6l0.4-0.8
			L320,7.6l0,0h0.5c-3.3-6.7-11.4-9.5-18.1-6.1s-9.5,11.4-6.1,18.1c3.3,6.7,11.4,9.5,18.1,6.1c2.7-1.3,4.8-3.5,6.1-6.1H319.9
			L319.9,19.6z M317.5,17.9l-11.6-3c-0.6-0.1-1.1-0.5-1.3-1c-0.2-0.4-0.2-0.9,0-1.3l0.4-0.8l13.7,3.7L317.5,17.9z M317.3,11.6
			c0.8,0.2,1.5,0.7,1.9,1.4c0.3,0.6,0.2,1.3-0.1,1.8l-0.1,0.1l-13.7-3.7l1.3-2.5L317.3,11.6z M308.4,26.6c-7.2,0-13-5.8-13-13
			s5.8-13,13-13c4.6,0,8.9,2.4,11.2,6.4l-15.7-0.1v0.6h2.8l-2.5,4.8c-0.3,0.6-0.3,1.2,0,1.8c0.3,0.7,1,1.2,1.7,1.4l11.4,3l-0.6,1.2
			l-12.8-0.1v0.6l15.7,0.1C317.1,24.1,313,26.6,308.4,26.6L308.4,26.6z"/>
	</g>
</g>
</svg>
