<?xml version="1.0" encoding="utf-8"?>
<!-- Generator: Adobe Illustrator 23.0.1, SVG Export Plug-In . SVG Version: 6.00 Build 0)  -->
<svg version="1.1" id="Layer_1" xmlns="http://www.w3.org/2000/svg" xmlns:xlink="http://www.w3.org/1999/xlink" x="0px" y="0px"
	 width="324.3px" height="62.6px" viewBox="0 0 324.3 62.6" style="enable-background:new 0 0 324.3 62.6;" xml:space="preserve">
<title>Asset 14</title>
<g>
	<g id="Layer_1-2">
		<path style="fill:#FFFFFF;" d="M55.5,45c-1.1,0-2.1-0.2-3.1-0.6c-0.9-0.4-1.6-1-2.3-1.7L50,42.6l0.4-0.6c0.1-0.2,0.3-0.2,0.5-0.3
			c0.1,0,0.3,0.1,0.4,0.2l0.4,0.4c0.2,0.2,0.4,0.3,0.6,0.5c0.3,0.2,0.5,0.3,0.8,0.4c0.3,0.1,0.7,0.3,1,0.3c0.4,0.1,0.9,0.1,1.3,0.1
			c0.6,0,1.2-0.1,1.8-0.3c0.5-0.2,1-0.5,1.4-0.8s0.6-0.8,0.8-1.2c0.2-0.5,0.3-1,0.3-1.5s-0.1-1-0.4-1.4c-0.3-0.4-0.6-0.7-1-0.9
			C58,37.2,57.5,37,57,36.9c-0.5-0.2-1.1-0.3-1.6-0.5c-0.6-0.2-1-0.4-1.6-0.6c-0.5-0.2-1-0.5-1.5-0.8c-0.4-0.3-0.8-0.8-1-1.3
			c-0.3-0.6-0.4-1.2-0.4-1.9c0-0.6,0.1-1.2,0.3-1.7s0.6-1,1-1.5c0.5-0.4,1.1-0.8,1.7-1c0.7-0.3,1.5-0.4,2.3-0.4
			c0.9,0,1.7,0.1,2.5,0.4s1.5,0.7,2,1.3l0.1,0.1l-0.4,0.6c0,0.3-0.2,0.4-0.4,0.4s-0.4-0.1-0.5-0.3c-0.2-0.2-0.4-0.3-0.7-0.5
			s-0.7-0.4-1.1-0.5c-0.5-0.2-1.1-0.2-1.6-0.2c-0.6,0-1.1,0.1-1.7,0.3c-0.4,0.2-0.8,0.4-1.2,0.7c-0.3,0.3-0.6,0.6-0.7,1
			c-0.2,0.4-0.2,0.8-0.3,1.2c0,0.5,0.1,0.9,0.4,1.3c0.3,0.4,0.6,0.7,1,0.9c0.4,0.3,0.9,0.5,1.4,0.7l1.6,0.5c0.6,0.2,1.1,0.4,1.7,0.6
			c0.5,0.2,1,0.5,1.5,0.8c0.4,0.3,0.8,0.8,1.1,1.2c0.3,0.6,0.4,1.2,0.4,1.8c0,0.7-0.1,1.4-0.4,2.1c-0.3,0.6-0.6,1.2-1.2,1.7
			c-0.5,0.5-1.2,0.9-1.8,1.1C57.1,44.8,56.3,45,55.5,45z"/>
		<path style="fill:#FFFFFF;" d="M84.8,44.8v-7.2l-6.7-10.2h1.4c0.1,0,0.3,0,0.4,0.1s0.2,0.2,0.2,0.3l5.1,7.8
			c0.1,0.2,0.2,0.4,0.3,0.6l0.1,0.2l0.1-0.2c0.1-0.2,0.2-0.4,0.3-0.5l5.1-7.8c0.1-0.1,0.1-0.2,0.2-0.3c0.1-0.1,0.2-0.1,0.4-0.1h1.4
			l-6.7,10.2v7.1L84.8,44.8z"/>
		<path style="fill:#FFFFFF;" d="M139.9,44.8V27.4h4.8c1.7-0.1,3.4,0.4,4.8,1.4c1.1,1,1.7,2.4,1.7,3.9c0,0.7-0.1,1.5-0.4,2.1
			c-0.3,0.6-0.7,1.2-1.3,1.7s-1.3,0.9-2,1.1c-0.9,0.3-1.8,0.4-2.7,0.4h-3.2v6.9L139.9,44.8z M144.6,36.6c0.7,0,1.4-0.1,2.1-0.3
			c0.6-0.2,1.1-0.5,1.5-0.8s0.8-0.8,1-1.3s0.3-1,0.3-1.6c0.1-1.1-0.4-2.2-1.2-2.9c-1.1-0.7-2.4-1.1-3.7-1h-3.2v7.9L144.6,36.6z"/>
		<polygon style="fill:#FFFFFF;" points="180.8,44.8 180.8,36.6 170,36.6 170,44.8 168.4,44.8 168.4,27.4 170,27.4 170,35.4 
			180.8,35.4 180.8,27.4 182.4,27.4 182.4,44.8 		"/>
		<path style="fill:#FFFFFF;" d="M205.3,45c-1.2,0-2.4-0.2-3.5-0.6c-1-0.4-2-1-2.7-1.8c-0.8-0.8-1.4-1.8-1.8-2.8
			c-0.9-2.3-0.9-4.9,0-7.3c0.4-1,1-2,1.8-2.8s1.7-1.4,2.7-1.8c2.3-0.8,4.7-0.8,7,0c1,0.4,2,1,2.7,1.8c0.8,0.8,1.4,1.8,1.8,2.8
			c0.8,2.3,0.8,4.9,0,7.3c-0.4,1-1,2-1.8,2.8s-1.7,1.4-2.7,1.8C207.7,44.8,206.5,45,205.3,45z M205.3,28.6c-1,0-1.9,0.2-2.8,0.5
			c-0.8,0.3-1.6,0.8-2.2,1.5c-0.6,0.7-1.1,1.5-1.4,2.4c-0.7,2-0.7,4.3,0,6.3c0.3,0.9,0.8,1.7,1.4,2.3c0.6,0.6,1.4,1.1,2.2,1.5
			c0.9,0.3,1.9,0.5,2.8,0.5c1,0,2-0.2,2.9-0.5c0.8-0.3,1.6-0.8,2.2-1.5c0.6-0.7,1.1-1.5,1.4-2.3c0.7-2.1,0.7-4.3,0-6.3
			c-0.3-0.9-0.8-1.7-1.4-2.4c-0.6-0.6-1.4-1.1-2.2-1.5C207.3,28.8,206.3,28.6,205.3,28.6L205.3,28.6z"/>
		<path style="fill:#FFFFFF;" d="M241.5,44.8c-0.2,0-0.5-0.1-0.6-0.3l-11.3-14.4c0,0.1,0,14.7,0,14.7h-1.4V27.4h0.8
			c0.1,0,0.2,0,0.3,0.1s0.2,0.1,0.3,0.2l11.2,14.4c0-0.1,0-0.1,0-0.2V27.4h1.4v17.3h-0.7V44.8z"/>
		<path style="fill:#FFFFFF;" d="M264.4,44.8v-7.2l-6.7-10.2h1.4c0.1,0,0.3,0,0.4,0.1s0.2,0.2,0.2,0.3l5.1,7.8
			c0.1,0.2,0.2,0.4,0.3,0.6l0.1,0.2l0.1-0.2c0.1-0.2,0.2-0.4,0.3-0.5l5.1-7.8c0.1-0.1,0.1-0.2,0.2-0.3c0.1-0.1,0.2-0.1,0.4-0.1h1.4
			L266,37.7v7.1H264.4z"/>
		<path style="fill:#FFFFFF;" d="M123.3,27.6c-0.1,0-0.1,0.1-0.1,0.1l-4.3,8.6l-3.8-8.7h-0.8l-3,6.9l-3.4-6.7c0-0.1-0.1-0.1-0.1-0.1
			c-0.1,0-0.1,0-0.2,0H106V45h1.4c0.1,0,0.3-0.1,0.3-0.2l3.4-8l4,8c0.1,0.1,0.2,0.2,0.3,0.2h0.2c0.1,0,0.3-0.1,0.3-0.2l3.1-6.2
			l2.6,6.2c0,0.1,0.2,0.2,0.4,0.2h0.6l-3.1-7.2l0.5-1l3.4,8c0,0.1,0.2,0.2,0.3,0.2h1.4V27.6h-1.7C123.4,27.6,123.3,27.6,123.3,27.6z
			 M107.4,43.4V29.5l3.2,6.4L107.4,43.4z M111.7,35.3l2.7-6.3l0.3-0.6L115,29l0.2,0.5l-2.9,6.8L111.7,35.3z M115.5,42.9l-2.9-5.7
			l2.9-6.7l2.9,6.6L115.5,42.9z M123.6,43.4l-3.2-7.5l3.2-6.4V43.4z"/>
		<path style="fill:#FFFFFF;" d="M303.4,0c-6.5,0-12.1,4.5-13.5,10.8h0.6c1.7-7.1,8.8-11.5,16-9.8c2.8,0.7,5.3,2.2,7.1,4.4H302V6
			h5.1l-1.3,2.4h-2.4h-0.1V19h0.6l-0.8,1.8h0.7l0.8-1.8h4.1c1.2,0.1,2.4-0.3,3.3-1l1.2,2.9h0.7l-1.5-3.4c0.7-1,1.1-2.3,1.1-3.5V8.4
			h-7l1.3-2.4h6.3c4.3,5.9,3,14.2-3,18.5c-5.6,4-13.3,3.1-17.8-2.1h-0.8c4.7,6,13.5,7.1,19.5,2.3s7.1-13.5,2.3-19.5
			C311.6,2,307.6,0,303.4,0z M308.6,18.4h-4.8V12h5.2l-1.6,2.2l0,0l0,0l-0.4,0.6h5.8c-0.1,0.9-0.5,1.8-1.1,2.5
			C310.9,18.1,309.8,18.5,308.6,18.4z M312.8,14.1v0.1h-4.7l1.6-2.2l0,0l0,0l0.4-0.6h-6.4V9.1h9L312.8,14.1L312.8,14.1z"/>
		<polygon style="fill:#FFFFFF;" points="292.5,12.5 290.3,19.4 300.9,19.4 298.6,12.6 297.9,12.6 300,18.8 291.1,18.8 293.1,12.5 
					"/>
		<polygon style="fill:#FFFFFF;" points="300.4,10.7 298.7,6 298.1,6 298.1,6 299.8,10.7 		"/>
	</g>
</g>
</svg>
