<?xml version="1.0" encoding="utf-8"?>
<!-- Generator: Adobe Illustrator 23.0.1, SVG Export Plug-In . SVG Version: 6.00 Build 0)  -->
<svg version="1.1" id="Layer_1" xmlns="http://www.w3.org/2000/svg" xmlns:xlink="http://www.w3.org/1999/xlink" x="0px" y="0px"
	 width="324.3px" height="62.6px" viewBox="0 0 324.3 62.6" style="enable-background:new 0 0 324.3 62.6;" xml:space="preserve">
<title>Asset 11</title>
<g>
	<g id="Layer_1-2">
		<path style="fill:#FFFFFF;" d="M88,41.3v-7.2L81.3,24h1.4c0.1,0,0.3,0,0.4,0.1s0.2,0.2,0.2,0.3l5.1,7.8c0.1,0.2,0.2,0.4,0.3,0.6
			l0.1,0.2l0.1-0.2c0.1-0.2,0.2-0.4,0.3-0.5l5.1-7.8c0.1-0.1,0.1-0.2,0.2-0.3c0.1-0.1,0.2-0.1,0.4-0.1h1.4l-6.7,10.2v7.1L88,41.3z"
			/>
		<path style="fill:#FFFFFF;" d="M120.8,41.5c-1.1,0-2.1-0.2-3.1-0.6c-0.9-0.4-1.6-1-2.3-1.7l-0.1-0.1l0.4-0.6
			c0.1-0.2,0.3-0.2,0.5-0.3c0.1,0,0.3,0.1,0.4,0.2l0.4,0.4c0.2,0.1,0.4,0.3,0.6,0.5s0.5,0.3,0.8,0.4c0.3,0.1,0.7,0.3,1,0.3
			c0.4,0.1,0.9,0.1,1.3,0.1c0.6,0,1.2-0.1,1.8-0.3c0.5-0.2,1-0.5,1.3-0.8c0.4-0.3,0.7-0.7,0.8-1.2c0.2-0.5,0.3-1,0.3-1.5
			s-0.1-1-0.3-1.4c-0.3-0.4-0.6-0.7-1-0.9c-0.4-0.3-0.9-0.5-1.4-0.6c-0.5-0.2-1.1-0.3-1.6-0.5s-1.1-0.4-1.7-0.6
			c-0.5-0.2-1-0.5-1.5-0.8c-0.4-0.3-0.8-0.8-1.1-1.3c-0.3-0.6-0.4-1.2-0.4-1.9c0-0.6,0.1-1.2,0.3-1.7c0.2-0.5,0.6-1,1-1.5
			c0.5-0.4,1.1-0.8,1.7-1c0.7-0.3,1.5-0.4,2.3-0.4c0.9,0,1.7,0.1,2.6,0.4c0.8,0.3,1.5,0.8,2.1,1.3l0.1,0.1l-0.3,0.6
			c-0.1,0.2-0.3,0.3-0.5,0.3s-0.4-0.1-0.5-0.3c-0.2-0.2-0.4-0.3-0.7-0.5c-0.3-0.2-0.7-0.4-1.1-0.5c-0.5-0.2-1-0.2-1.6-0.2
			s-1.1,0.1-1.7,0.3c-0.4,0.1-0.8,0.4-1.2,0.7c-0.3,0.3-0.6,0.6-0.7,1c-0.2,0.4-0.3,0.8-0.3,1.2c0,0.5,0.1,0.9,0.4,1.4
			c0.3,0.4,0.6,0.7,1,0.9c0.4,0.3,0.9,0.5,1.4,0.6l1.7,0.5c0.6,0.2,1.1,0.4,1.7,0.6c0.5,0.2,1,0.5,1.5,0.8c0.4,0.3,0.8,0.8,1.1,1.2
			c0.3,0.6,0.4,1.2,0.4,1.8c0,0.7-0.1,1.4-0.4,2.1c-0.2,0.6-0.6,1.2-1.1,1.7s-1.2,0.9-1.8,1.1C122.5,41.4,121.7,41.5,120.8,41.5z"/>
		<polygon style="fill:#FFFFFF;" points="152.1,41.3 152.1,25.3 145.8,25.3 145.8,24 159.9,24 159.9,25.3 153.7,25.3 153.7,41.3 		
			"/>
		<rect x="179" y="24" style="fill:#FFFFFF;" width="1.6" height="17.3"/>
		<path style="fill:#FFFFFF;" d="M216.5,45.1c-0.2,0-0.3,0-0.5-0.1s-0.3-0.2-0.4-0.3l-3.7-3.8c-0.5,0.2-1.1,0.4-1.6,0.5
			c-0.6,0.1-1.3,0.2-1.9,0.2c-1.2,0-2.4-0.2-3.5-0.6c-1-0.4-2-1-2.7-1.8c-0.8-0.8-1.4-1.8-1.8-2.8c-0.8-2.3-0.8-4.9,0-7.3
			c0.4-1,1-2,1.8-2.8s1.7-1.4,2.7-1.8c2.3-0.8,4.7-0.8,7,0c1,0.4,2,1,2.7,1.8c0.8,0.8,1.3,1.7,1.7,2.8c0.4,1.2,0.6,2.4,0.6,3.6
			c0,0.8-0.1,1.7-0.3,2.5c-0.2,0.7-0.4,1.5-0.8,2.1c-0.6,1.2-1.6,2.3-2.8,3l4.8,4.9h-1.3V45.1z M208.3,25.1c-1,0-1.9,0.2-2.8,0.5
			c-0.8,0.3-1.6,0.8-2.2,1.5c-0.6,0.7-1.1,1.5-1.4,2.4c-0.7,2-0.7,4.3,0,6.3c0.3,0.9,0.8,1.7,1.4,2.3c0.6,0.6,1.4,1.1,2.2,1.5
			c0.9,0.3,1.9,0.5,2.8,0.5c1,0,2-0.2,2.9-0.5c0.8-0.3,1.6-0.8,2.2-1.5c0.6-0.7,1.1-1.5,1.4-2.3c0.7-2.1,0.7-4.3,0-6.3
			c-0.3-0.9-0.8-1.7-1.4-2.4c-0.6-0.6-1.4-1.1-2.2-1.5C210.3,25.3,209.3,25.1,208.3,25.1L208.3,25.1z"/>
		<path style="fill:#FFFFFF;" d="M243.9,41.5c-1,0-2-0.2-2.9-0.5c-0.8-0.3-1.6-0.8-2.2-1.5c-0.6-0.6-1.1-1.4-1.4-2.2
			c-0.3-0.9-0.5-1.8-0.5-2.7V24h1.6v10.7c0,0.7,0.1,1.5,0.4,2.2c0.2,0.6,0.5,1.2,1,1.7s1,0.9,1.6,1.2c1.4,0.6,3,0.6,4.5,0
			c0.6-0.3,1.2-0.7,1.7-1.2c0.4-0.5,0.8-1.1,1-1.7c0.2-0.7,0.4-1.4,0.4-2.2V24h1.6v10.7c0,0.9-0.2,1.8-0.5,2.7
			c-0.3,0.8-0.8,1.6-1.4,2.2c-0.6,0.6-1.3,1.1-2.1,1.5C245.8,41.4,244.9,41.5,243.9,41.5z"/>
		<polygon style="fill:#FFFFFF;" points="269.8,41.3 269.8,24 280.8,24 280.8,25.3 271.5,25.3 271.5,31.9 279.3,31.9 279.3,33.2 
			271.5,33.2 271.5,40 280.8,40 280.8,41.3 		"/>
		<path style="fill:#FFFFFF;" d="M60.4,24c-0.1,0-0.1,0.1-0.1,0.1L56,32.7L52.2,24h-0.8l-3,6.9L45,24.1c0-0.1-0.1-0.1-0.2-0.1
			c-0.1,0-0.1,0-0.2,0H43v17.4h1.4c0.1,0,0.3-0.1,0.3-0.2l3.4-8l4,8c0.1,0.1,0.2,0.2,0.3,0.2h0.2c0.1,0,0.3-0.1,0.3-0.2L56,35
			l2.7,6.2c0,0.1,0.2,0.2,0.3,0.2h0.6l-3.1-7.2l0.5-1l3.4,8c0,0.1,0.2,0.2,0.3,0.2h1.4V24H60.4C60.5,24,60.4,24,60.4,24z M44.5,39.8
			V25.9l3.2,6.4L44.5,39.8z M48.8,31.7l2.7-6.2l0.3-0.6l0.3,0.6l0.2,0.5l-2.9,6.8L48.8,31.7z M52.6,39.3l-2.9-5.7l2.9-6.7l2.9,6.7
			L52.6,39.3z M60.7,39.8l-3.2-7.5l3.2-6.4V39.8z"/>
		<path style="fill:#FFFFFF;" d="M299.3,7.8h23.3v1.4h0.6v-2l0,0c-0.3-0.5-0.6-1.1-1-1.6c-0.1-0.2-0.4-0.5-0.4-0.5
			c-4.9-5.9-13.6-6.7-19.5-1.8c-0.9,0.8-1.8,1.7-2.5,2.7h0.8c4.4-5.8,12.7-7,18.5-2.6c0.8,0.6,1.6,1.4,2.3,2.2l0.1,0.2
			c0.3,0.4,0.6,0.8,0.9,1.3c0,0,0.1,0.1,0.1,0.2h-11.3V5.8h-0.6v1.4h-12v2h0.6V7.8H299.3z"/>
		<polygon style="fill:#FFFFFF;" points="302.1,9.3 298.5,12.6 298.5,13.5 302.1,10.2 		"/>
		<path style="fill:#FFFFFF;" d="M321.7,20.6h-10.3V17h-0.6v3.6H300v-2.7h-0.6v3.3l0,0l0.2,0.3c4.2,6.4,12.8,8.1,19.2,3.9
			c0.4-0.2,0.7-0.5,1.1-0.8l0,0c0.2-0.1,0.3-0.3,0.5-0.4c0.4-0.3,0.8-0.7,1.1-1.1h-0.9c-0.3,0.3-0.6,0.6-1,0.9l-0.2,0.1
			c-5.7,4.6-14,3.8-18.6-1.9c-0.2-0.2-0.4-0.5-0.6-0.7l-0.2-0.3h22.2v-3.4h-0.6L321.7,20.6z"/>
		<path style="fill:#FFFFFF;" d="M320.4,10.7l3.9,3.7v-0.9l-3.7-3.5c-0.6-0.6-1.5-0.8-2.2-0.5l-5.5,1.8l-1.8-1.9h-0.9l2,2.1
			l-7.1,2.3c-0.7-0.8-1-1.8-1-2.8V9.3h-0.6v1.6c0,1.1,0.3,2.1,1,3L298,16v0.6l7-2.3c1.3,1,2.9,1.5,4.5,1.4h13.3v-0.6h-13.3
			c-1.3,0.1-2.7-0.3-3.8-1l12.5-4C318.9,9.9,319.8,10.1,320.4,10.7z"/>
	</g>
</g>
</svg>
