<?xml version="1.0" encoding="utf-8"?>
<!-- Generator: Adobe Illustrator 23.0.1, SVG Export Plug-In . SVG Version: 6.00 Build 0)  -->
<svg version="1.1" id="Layer_1" xmlns="http://www.w3.org/2000/svg" xmlns:xlink="http://www.w3.org/1999/xlink" x="0px" y="0px"
	 width="324.3px" height="62.6px" viewBox="0 0 324.3 62.6" style="enable-background:new 0 0 324.3 62.6;" xml:space="preserve">
<title>Asset 18</title>
<g>
	<g id="Layer_1-2">
		<polygon style="fill:#FFFFFF;" points="65.4,42.9 65.4,26.3 75.8,26.3 75.8,27.5 66.9,27.5 66.9,33.9 74.3,33.9 74.3,35.1 
			66.9,35.1 66.9,41.6 75.8,41.6 75.8,42.9 		"/>
		<path style="fill:#FFFFFF;" d="M127.5,42.9V26.3h5c0.9,0,1.7,0.1,2.5,0.3c0.6,0.2,1.3,0.4,1.8,0.8s0.8,0.8,1.1,1.4
			c0.2,0.6,0.4,1.2,0.3,1.8c0,0.4-0.1,0.9-0.2,1.3c-0.2,0.4-0.4,0.8-0.7,1.2c-0.3,0.4-0.7,0.7-1.1,0.9c-0.3,0.2-0.6,0.3-0.9,0.4
			c0.9,0.2,1.8,0.6,2.5,1.2c0.8,0.7,1.2,1.7,1.1,2.7c0,0.7-0.1,1.3-0.4,1.9c-0.3,0.6-0.6,1.1-1.1,1.5s-1.2,0.7-1.8,0.9
			c-0.8,0.2-1.6,0.3-2.4,0.3H127.5z M133.1,41.7c1.2,0.1,2.3-0.2,3.3-0.9c0.7-0.6,1.1-1.5,1.1-2.5c0-0.5-0.1-0.9-0.3-1.3
			c-0.2-0.4-0.5-0.7-0.8-1c-0.4-0.3-0.9-0.5-1.3-0.6c-0.6-0.2-1.2-0.2-1.8-0.2h-4.1v6.6L133.1,41.7L133.1,41.7z M132.5,33.9
			c0.6,0,1.3-0.1,1.9-0.3c0.5-0.2,0.9-0.4,1.3-0.7c0.3-0.3,0.6-0.6,0.7-1c0.2-0.4,0.2-0.8,0.2-1.2c0.1-0.9-0.3-1.8-1-2.4
			c-1-0.6-2.1-0.9-3.2-0.8h-3.5v6.4H132.5z"/>
		<path style="fill:#FFFFFF;" d="M166.4,42.9c-0.1,0-0.3,0-0.4-0.1c-0.1-0.1-0.2-0.2-0.3-0.3l-5.4-6.6c-0.1-0.1-0.2-0.2-0.4-0.3
			s-0.4-0.1-0.7-0.1h-2v7.4h-1.5V26.3h4.4c1.6-0.1,3.1,0.3,4.4,1.1c1,0.8,1.6,2,1.5,3.3c0,0.6-0.1,1.2-0.3,1.8c-0.2,0.5-0.6,1-1,1.4
			c-0.5,0.4-1,0.8-1.5,1s-1.1,0.4-1.7,0.5c0.1,0.1,0.2,0.2,0.3,0.3l6,7.3L166.4,42.9z M160,34.3c0.7,0,1.3-0.1,2-0.3
			c0.5-0.2,1-0.4,1.4-0.7s0.7-0.7,0.9-1.1c0.2-0.5,0.3-1,0.3-1.5c0.1-1-0.4-1.9-1.1-2.5c-1-0.6-2.2-0.9-3.3-0.8h-3v6.8L160,34.3
			L160,34.3z"/>
		<path style="fill:#FFFFFF;" d="M198.8,42.9c-0.1,0-0.3,0-0.4-0.1c-0.1-0.1-0.2-0.2-0.2-0.3l-1.9-4.7h-8.1l-1.9,4.7
			c0,0.1-0.1,0.2-0.2,0.3c-0.1,0.1-0.2,0.1-0.4,0.1h-1.1l7-16.6h1.4l7,16.6H198.8z M195.8,36.7l-3.4-8l-0.2-0.5v-0.1v0.1
			c0,0-0.1,0.3-0.2,0.5l-3.3,8H195.8z"/>
		<path style="fill:#FFFFFF;" d="M224.8,43.1c-1.1,0-2.2-0.2-3.3-0.6c-1-0.4-1.8-1-2.5-1.7c-0.7-0.8-1.3-1.7-1.6-2.7
			c-0.4-1.1-0.6-2.3-0.6-3.5s0.2-2.3,0.6-3.4c0.8-2,2.3-3.6,4.4-4.4c1.1-0.4,2.2-0.6,3.4-0.6c0.6,0,1.1,0,1.7,0.1
			c0.5,0.1,1,0.2,1.4,0.4c0.4,0.2,0.9,0.4,1.3,0.6c0.4,0.3,0.8,0.5,1.2,0.9l0.1,0.1l-0.4,0.6c-0.1,0.1-0.2,0.2-0.4,0.2
			c-0.1,0-0.3-0.1-0.4-0.1l-0.4-0.3c-0.2-0.1-0.4-0.3-0.6-0.4c-0.3-0.1-0.5-0.3-0.8-0.4c-0.4-0.1-0.7-0.2-1.1-0.3
			c-0.5-0.1-1-0.1-1.5-0.1c-0.9,0-1.9,0.2-2.8,0.5c-0.8,0.3-1.5,0.8-2.1,1.4c-0.6,0.7-1.1,1.4-1.4,2.3c-0.3,1-0.5,2-0.5,3
			s0.2,2,0.5,3c0.3,0.8,0.8,1.6,1.4,2.3c0.6,0.6,1.3,1.1,2.1,1.4c0.8,0.3,1.7,0.5,2.6,0.5c0.5,0,1.1,0,1.6-0.1
			c0.4-0.1,0.9-0.2,1.3-0.3c0.4-0.1,0.7-0.3,1.1-0.5c0.4-0.2,0.7-0.5,1-0.8l0.1-0.1c0.1,0,0.1,0,0.2,0c0.1,0,0.2,0,0.3,0.1l0.6,0.6
			l-0.1,0.1c-0.4,0.4-0.7,0.7-1.2,1c-0.4,0.3-0.9,0.6-1.4,0.8s-1.1,0.4-1.6,0.5C226.1,43,225.4,43.1,224.8,43.1z"/>
		<polygon style="fill:#FFFFFF;" points="247.8,42.9 247.8,26.3 258.1,26.3 258.1,27.5 249.3,27.5 249.3,33.9 256.6,33.9 
			256.6,35.1 249.3,35.1 249.3,41.6 258.1,41.6 258.1,42.9 		"/>
		<path style="fill:#FFFFFF;" d="M108.9,26.3c-0.1,0-0.1,0.1-0.1,0.1l-4,8.2l-3.6-8.3h-0.8l-2.8,6.6l-3.2-6.5c0-0.1-0.1-0.1-0.1-0.1
			c-0.1,0-0.1,0-0.2,0h-1.6v16.6h1.3c0.1,0,0.3-0.1,0.3-0.2l3.3-7.7l3.8,7.7c0.1,0.1,0.2,0.2,0.3,0.2h0.2c0.1,0,0.2-0.1,0.3-0.2
			l2.9-5.9l2.5,5.9c0,0.1,0.1,0.2,0.3,0.2h0.6l-2.9-6.9l0.5-1l3.2,7.6c0,0.1,0.1,0.2,0.3,0.2h1.3V26.3h-1.6
			C109,26.3,109,26.3,108.9,26.3z M94,41.4V28.1l3.1,6.1L94,41.4z M98,33.7l2.5-6l0.3-0.6l0.3,0.6l0.2,0.5l-2.8,6.5L98,33.7z
			 M101.6,40.9l-2.7-5.4l2.8-6.5l2.8,6.4L101.6,40.9z M109.2,41.4l-3-7.2l3-6.1V41.4z"/>
		<path style="fill:#FFFFFF;" d="M301.9,19.3h-5v-2.4h4.2v-0.6h-4.2V14h4.2v-0.6h-4.2v-2.2h4.2v-0.6h-4.2V9.1h-0.6v1.6h-4.2V9.1
			l-1.2,1.3v0.9l0.6-0.6v9.4h9.5c-3.3,6.5-11.3,9.1-17.8,5.8c-4-2-6.7-6-7.2-10.5l0,0l2.9-0.6v5.6h0.6v-5.7l3.1-0.6v-0.6l-3.2,0.5
			V9.7h3.1V9.1h-3.1V4.9c4.9-5.4,13.3-5.8,18.7-0.8c0.7,0.7,1.4,1.4,1.9,2.2h-7.7V4.8h-0.6v1.5h-8.8v0.6h2.1l-2.1,5.1h2.2l-2.3,4.5
			h2.9l-2.1,3.9h0.7l3.6-6.4h-0.7l-1.1,2h-2.2l2.3-4.5h-2.3l1.9-4.5h15.3L301,6.7l-0.1-0.1l0,0l-0.1-0.1l0,0l0,0
			c-4.2-6.4-12.8-8.2-19.2-4.1c-6.4,4.2-8.2,12.8-4.1,19.2s12.8,8.2,19.2,4.1c2.2-1.4,4-3.5,5.1-5.9l0,0L301.9,19.3z M278.8,9.1h-2
			c0.5-1.3,1.2-2.5,2-3.6V9.1z M276.5,9.7h2.3v4.4l-2.9,0.6c0-0.3,0-0.5,0-0.8C275.9,12.5,276.1,11.1,276.5,9.7z M296.3,16.3h-4.2
			V14h4.2V16.3z M296.3,11.2v2.2h-4.2v-2.2H296.3z M292,16.9h4.2v2.4H292V16.9z"/>
		<path style="fill:#FFFFFF;" d="M164.4,54.4h0.6v2l0,0c0.2-0.4,0.6-0.6,1.1-0.6c0.8,0,1.3,0.7,1.3,1.6c0.1,0.8-0.5,1.6-1.3,1.7H166
			c-0.4,0-0.9-0.2-1.1-0.6l0,0V59h-0.5c0-0.2,0-0.5,0-0.8V54.4z M165,57.8c0,0.1,0,0.1,0,0.2c0.1,0.4,0.4,0.7,0.9,0.7
			c0.6,0,1-0.5,1-1.2s-0.3-1.2-0.9-1.2c-0.4,0-0.8,0.3-0.9,0.7c0,0.1,0,0.2,0,0.2L165,57.8z"/>
		<path style="fill:#FFFFFF;" d="M169.2,55.9l0.7,1.9c0.1,0.2,0.2,0.5,0.2,0.6l0,0c0.1-0.2,0.1-0.4,0.2-0.7l0.6-1.9h0.6l-0.9,2.3
			c-0.2,0.7-0.6,1.4-1.1,2c-0.2,0.2-0.4,0.3-0.7,0.4l-0.2-0.5c0.2-0.1,0.4-0.1,0.5-0.3c0.2-0.2,0.4-0.4,0.5-0.6V59c0,0,0-0.1,0-0.2
			l-1.2-2.9C168.4,55.9,169.2,55.9,169.2,55.9z"/>
		<path style="fill:#FFFFFF;" d="M182.5,56.6c0-0.8-0.1-1.8-0.1-2.4l0,0c-0.2,0.7-0.4,1.4-0.7,2.2l-1,2.8h-0.6l-0.9-2.7
			c-0.3-0.8-0.5-1.5-0.6-2.2l0,0c0,0.7-0.1,1.7-0.1,2.5l-0.1,2.4h-0.7l0.4-5.7h0.9l1,2.7c0.2,0.7,0.4,1.3,0.6,1.9l0,0
			c0.2-0.6,0.4-1.2,0.6-1.9l1-2.7h0.9l0.4,5.7h-0.7L182.5,56.6z"/>
		<path style="fill:#FFFFFF;" d="M188.5,58.1c0,0.3,0,0.7,0.1,1h-0.7l-0.1-0.5l0,0c-0.3,0.4-0.8,0.6-1.2,0.6c-0.6,0-1.2-0.5-1.2-1.1
			V58c0-1,0.9-1.5,2.4-1.5v-0.1c0.1-0.5-0.3-0.9-0.7-0.9c-0.1,0-0.1,0-0.2,0c-0.4,0-0.7,0.1-1.1,0.3l-0.2-0.5
			c0.4-0.2,0.9-0.4,1.3-0.3c1.3,0,1.6,0.8,1.6,1.7L188.5,58.1z M187.8,57c-0.8,0-1.7,0.1-1.7,0.9c0,0.4,0.2,0.7,0.6,0.7h0.1
			c0.4,0,0.9-0.3,1-0.7c0-0.1,0-0.2,0-0.2L187.8,57z"/>
		<path style="fill:#FFFFFF;" d="M190.9,56.3c0-0.5,0-0.9,0-1.3h0.7v0.8l0,0c0.1-0.5,0.6-0.9,1.1-0.9h0.2v0.7h-0.3
			c-0.5,0-1,0.4-1,0.9c0,0.1,0,0.2,0,0.3V59h-0.7V56.3z"/>
		<path style="fill:#FFFFFF;" d="M195.7,53.8c0,0.2-0.2,0.4-0.4,0.5l0,0c-0.2,0-0.4-0.2-0.4-0.4l0,0c0-0.2,0.2-0.5,0.4-0.5l0,0
			C195.5,53.4,195.7,53.6,195.7,53.8L195.7,53.8z M194.9,59.1V55h0.7v4.1H194.9z"/>
		<path style="fill:#FFFFFF;" d="M198.4,57.2c-0.1,0.7,0.5,1.3,1.2,1.4c0.1,0,0.1,0,0.2,0c0.4,0,0.8-0.1,1.1-0.2l0.1,0.5
			c-0.4,0.2-0.9,0.3-1.4,0.3c-1,0.1-1.9-0.7-2-1.8c0-0.1,0-0.2,0-0.3c-0.1-1.1,0.7-2.1,1.8-2.2h0.1c0.9,0,1.7,0.8,1.7,1.7
			c0,0.1,0,0.1,0,0.2c0,0.1,0,0.2,0,0.3L198.4,57.2L198.4,57.2z M200.6,56.6c0.1-0.6-0.3-1.1-0.9-1.2h-0.1c-0.6,0-1.1,0.6-1.1,1.2
			H200.6z"/>
		<path style="fill:#FFFFFF;" d="M206.4,53.5c0.4-0.1,0.9-0.1,1.3-0.1c0.6-0.1,1.1,0.1,1.6,0.4c0.3,0.2,0.5,0.6,0.5,1
			c0,0.6-0.4,1.1-1,1.2l0,0c0.7,0.1,1.2,0.7,1.2,1.4c0,0.4-0.2,0.8-0.5,1.1c-0.6,0.4-1.3,0.6-2,0.5c-0.4,0-0.8,0-1.1-0.1V53.5z
			 M207.1,55.8h0.7c0.8,0,1.2-0.4,1.2-1s-0.5-0.9-1.2-0.9c-0.2,0-0.4,0-0.6,0L207.1,55.8z M207.1,58.5c0.2,0,0.4,0,0.6,0
			c0.8,0,1.5-0.3,1.5-1.1s-0.7-1.1-1.5-1.1h-0.6V58.5z"/>
		<path style="fill:#FFFFFF;" d="M215.8,57c0.1,1.1-0.7,2.1-1.8,2.2c-0.1,0-0.1,0-0.2,0c-1.1,0-1.9-0.9-2-1.9c0-0.1,0-0.1,0-0.2
			c-0.1-1.1,0.7-2.1,1.8-2.1c0.1,0,0.1,0,0.2,0C214.9,55,215.7,55.8,215.8,57C215.8,56.9,215.8,56.9,215.8,57z M212.6,57
			c0,0.9,0.5,1.6,1.2,1.6s1.2-0.7,1.2-1.6c0-0.7-0.3-1.6-1.2-1.6S212.6,56.3,212.6,57z"/>
		<path style="fill:#FFFFFF;" d="M218,53.1h0.7v6H218V53.1z"/>
		<path style="fill:#FFFFFF;" d="M222,54v1h1.1v0.6H222v2.2c0,0.5,0.1,0.8,0.6,0.8c0.1,0,0.3,0,0.4,0v0.6c-0.2,0.1-0.4,0.1-0.7,0.1
			s-0.6-0.1-0.8-0.3c-0.2-0.3-0.3-0.7-0.3-1.1v-2.3h-0.6V55h0.6v-0.8L222,54z"/>
		<path style="fill:#FFFFFF;" d="M225.4,57.2c-0.1,0.7,0.5,1.3,1.2,1.4c0.1,0,0.1,0,0.2,0c0.4,0,0.8-0.1,1.1-0.2l0.1,0.5
			c-0.4,0.2-0.9,0.3-1.4,0.3c-1,0.1-1.9-0.7-2-1.8c0-0.1,0-0.2,0-0.3c-0.1-1.1,0.7-2.1,1.8-2.2h0.1c0.9,0,1.7,0.8,1.7,1.7
			c0,0.1,0,0.1,0,0.2c0,0.1,0,0.2,0,0.3L225.4,57.2L225.4,57.2z M227.6,56.6c0.1-0.5-0.2-1.1-0.8-1.2c-0.1,0-0.1,0-0.2,0
			c-0.6,0-1.1,0.6-1.1,1.2H227.6z"/>
		<path style="fill:#FFFFFF;" d="M230.4,56.1c0-0.4,0-0.8,0-1.1h0.7v0.7l0,0c0.3-0.5,0.8-0.8,1.3-0.8c0.6,0,1.4,0.3,1.4,1.7V59h-0.7
			v-2.3c0-0.7-0.3-1.2-0.9-1.2c-0.5,0-0.9,0.3-1,0.8c0,0.1-0.1,0.2-0.1,0.3V59h-0.7V56.1z"/>
		<path style="fill:#FFFFFF;" d="M236.2,58.3c0.3,0.2,0.6,0.3,1,0.3c0.5,0,0.8-0.3,0.8-0.6s-0.2-0.5-0.8-0.7
			c-0.7-0.3-1.1-0.7-1.1-1.2c0-0.7,0.6-1.2,1.3-1.2h0.1c0.3,0,0.7,0.1,1,0.3l-0.2,0.5c-0.2-0.2-0.5-0.2-0.8-0.2
			c-0.4,0-0.7,0.3-0.7,0.5s0.2,0.5,0.8,0.7c0.7,0.3,1.1,0.6,1.1,1.2s-0.6,1.2-1.5,1.2c-0.4,0-0.8-0.1-1.1-0.3L236.2,58.3z"/>
		<path style="fill:#FFFFFF;" d="M241.7,54v1h1.1v0.6h-1.1v2.2c0,0.5,0.1,0.8,0.6,0.8c0.1,0,0.3,0,0.4,0v0.6
			c-0.2,0.1-0.4,0.1-0.7,0.1s-0.6-0.1-0.8-0.3c-0.2-0.3-0.3-0.7-0.3-1.1v-2.3h-0.6V55h0.6v-0.8L241.7,54z"/>
		<path style="fill:#FFFFFF;" d="M245.1,57.2c-0.1,0.7,0.5,1.3,1.2,1.4c0.1,0,0.2,0,0.2,0c0.4,0,0.8-0.1,1.1-0.2l0.1,0.5
			c-0.4,0.2-0.9,0.3-1.4,0.3c-1,0.1-1.9-0.7-2-1.8c0-0.1,0-0.2,0-0.3c-0.1-1.1,0.7-2.1,1.8-2.2h0.1c0.9,0,1.7,0.8,1.7,1.7
			c0,0.1,0,0.1,0,0.2c0,0.1,0,0.2,0,0.3L245.1,57.2L245.1,57.2z M247.3,56.6c0.1-0.6-0.3-1.1-0.9-1.2h-0.1c-0.6,0-1.1,0.6-1.1,1.2
			H247.3z"/>
		<path style="fill:#FFFFFF;" d="M250.1,56.3c0-0.5,0-0.9,0-1.3h0.6v0.8l0,0c0.1-0.5,0.6-0.9,1.1-0.9h0.2v0.7h-0.3
			c-0.5,0-1,0.4-1,0.9c0,0.1,0,0.2,0,0.3V59H250L250.1,56.3z"/>
		<path style="fill:#FFFFFF;" d="M254,56.1c0-0.4,0-0.8,0-1.1h0.7v0.7l0,0c0.3-0.5,0.8-0.8,1.4-0.8s1.4,0.3,1.4,1.7V59h-0.7v-2.3
			c0-0.7-0.3-1.2-0.9-1.2c-0.5,0-0.9,0.3-1,0.8c0,0.1-0.1,0.2-0.1,0.3V59h-0.7L254,56.1z"/>
	</g>
</g>
</svg>
