<?xml version="1.0" encoding="utf-8"?>
<!-- Generator: Adobe Illustrator 23.0.1, SVG Export Plug-In . SVG Version: 6.00 Build 0)  -->
<svg version="1.1" id="Layer_1" xmlns="http://www.w3.org/2000/svg" xmlns:xlink="http://www.w3.org/1999/xlink" x="0px" y="0px"
	 viewBox="0 0 81 57.2" style="enable-background:new 0 0 81 57.2;" xml:space="preserve">
<style type="text/css">
	.st0{fill:none;stroke:#D1D1D1;stroke-width:2;stroke-miterlimit:10;}
</style>
<g>
	<g>
		<path class="st0" d="M63.4,41.5c3.6,0,6.7,2.8,7.2,6.3v0.1c0.1,0.4,0.1,0.7,0.1,1c0,4-3.3,7.3-7.3,7.3s-7.3-3.3-7.3-7.3
			C56.1,44.8,59.3,41.6,63.4,41.5z"/>
		<circle class="st0" cx="19" cy="48.9" r="7.3"/>
		<circle class="st0" cx="19" cy="48.9" r="7.3"/>
		<polyline class="st0" points="70.6,47.4 80,47.4 80,1 33.2,1 33.2,47.4 56.2,47.4 		"/>
		<polyline class="st0" points="12.2,47.4 1,47.4 1,29.1 19.4,15.2 33.2,15.2 33.2,47.4 26.3,47.4 		"/>
		<line class="st0" x1="34" y1="35.2" x2="80" y2="35.2"/>
		<path class="st0" d="M71.7,35.2"/>
		<path class="st0" d="M71.7,10.7"/>
	</g>
	<polygon class="st0" points="9.2,35.2 9.2,30.3 18.2,23.5 25,23.5 25,35.2 	"/>
</g>
</svg>
