<?xml version="1.0" encoding="utf-8"?>
<!-- Generator: Adobe Illustrator 23.0.1, SVG Export Plug-In . SVG Version: 6.00 Build 0)  -->
<svg version="1.1" id="Layer_1" xmlns="http://www.w3.org/2000/svg" xmlns:xlink="http://www.w3.org/1999/xlink" x="0px" y="0px"
	 viewBox="0 0 68 56.7" style="enable-background:new 0 0 68 56.7;" xml:space="preserve">
<style type="text/css">
	.st0{fill:none;stroke:#C69967;stroke-width:2;stroke-miterlimit:10;}
</style>
<g>
	<path class="st0" d="M67,1v13c0,3-2.4,5.4-5.4,5.4S56.2,17,56.2,14H56c0,3-2.4,5.4-5.4,5.4S45.1,17,45.1,14h-0.2
		c0,3-2.4,5.4-5.4,5.4S34.1,17,34.1,14h-0.2c0,3-2.4,5.4-5.4,5.4S23.1,17,23.1,14h-0.2c0,3-2.4,5.4-5.4,5.4S12,17,12,14h-0.2
		c0,3-2.4,5.4-5.4,5.4S1,17,1,14V1H67z"/>
	<polyline class="st0" points="5,19.7 5,55.7 14,55.7 14,34.7 26,34.7 26,55.7 63,55.7 63,19.7 	"/>
	<rect x="33.8" y="30.7" class="st0" width="20" height="16"/>
</g>
</svg>
