<?xml version="1.0" encoding="utf-8"?>
<!-- Generator: Adobe Illustrator 23.0.1, SVG Export Plug-In . SVG Version: 6.00 Build 0)  -->
<svg version="1.1" id="Layer_1" xmlns="http://www.w3.org/2000/svg" xmlns:xlink="http://www.w3.org/1999/xlink" x="0px" y="0px"
	 viewBox="0 0 42.9 45.7" style="enable-background:new 0 0 42.9 45.7;" xml:space="preserve" width="42.9px" height="45.7px">
<style type="text/css">
	.st0{fill:none;stroke:#8E8E8E;stroke-width:2;stroke-linecap:round;stroke-linejoin:round;stroke-miterlimit:10;}
	.st1{fill:#8E8E8E;}
</style>
<g>
	<path class="st0" d="M24.8,6c8.5,1.6,15,9.1,15,18.1c0,10.2-8.2,18.4-18.4,18.4S3.1,34.3,3.1,24.1c0-7.9,5-14.7,12.1-17.3"/>
	<polygon class="st1" points="27.1,11.1 29.3,2.2 20.6,4.7 	"/>
</g>
<g>
	<g>
		<path class="st1" d="M18.7,35.5c-0.2,0-0.5-0.1-0.7-0.2c-0.6-0.4-0.9-1.2-0.5-1.8l8.4-14.7H15.1c-0.7,0-1.3-0.6-1.3-1.3
			c0-0.7,0.6-1.3,1.3-1.3h13.1c0.5,0,0.9,0.3,1.2,0.7c0.2,0.4,0.2,0.9,0,1.3l-9.5,16.7C19.6,35.3,19.2,35.5,18.7,35.5z"/>
	</g>
</g>
</svg>
