<?xml version="1.0" encoding="utf-8"?>
<!-- Generator: Adobe Illustrator 23.0.1, SVG Export Plug-In . SVG Version: 6.00 Build 0)  -->
<svg version="1.1" id="Layer_1" xmlns="http://www.w3.org/2000/svg" xmlns:xlink="http://www.w3.org/1999/xlink" x="0px" y="0px"
	 viewBox="0 0 48 51.9" style="enable-background:new 0 0 48 51.9;" xml:space="preserve" width="48px" height="51.9px">
<style type="text/css">
	.st0{fill:none;stroke:#8E8E8E;stroke-width:2;stroke-miterlimit:10;}
	.st1{fill:#8E8E8E;}
</style>
<g>
	<polygon class="st0" points="24,1.2 1.2,17.8 9.9,44.6 38.1,44.6 46.8,17.8 	"/>
	<polygon class="st0" points="24,50.6 46.8,34.1 38.1,7.2 9.9,7.2 1.2,34.1 	"/>
</g>
<path class="st1" d="M29.5,33.8c-0.3-0.3-0.7-0.5-1.2-0.5h-2.4V17c0-0.6-0.3-1.2-0.9-1.4c-0.4-0.2-1-0.3-1.7,0.3l-4.7,4
	c-0.3,0.3-0.5,0.7-0.6,1.1c0,0.4,0.1,0.8,0.4,1.1c0.3,0.3,0.7,0.5,1.1,0.6c0.4,0,0.8-0.1,1.1-0.4l2.1-1.8v12.8h-2.4
	c-0.9,0-1.6,0.7-1.6,1.6s0.7,1.6,1.6,1.6h7.9c0.9,0,1.6-0.7,1.6-1.5C29.8,34.5,29.7,34.1,29.5,33.8z"/>
</svg>
