<?xml version="1.0" encoding="utf-8"?>
<!-- Generator: Adobe Illustrator 23.0.1, SVG Export Plug-In . SVG Version: 6.00 Build 0)  -->
<svg version="1.1" id="Layer_1" xmlns="http://www.w3.org/2000/svg" xmlns:xlink="http://www.w3.org/1999/xlink" x="0px" y="0px"
	 viewBox="0 0 81 57.2" style="enable-background:new 0 0 81 57.2;" xml:space="preserve">
<style type="text/css">
	.st0{fill:none;stroke:#8E8E8E;stroke-width:2;stroke-miterlimit:10;}
</style>
<g>
	<g>
		<path class="st0" d="M24.9,48.9c0,4-3.3,7.3-7.3,7.3s-7.3-3.3-7.3-7.3c0-0.3,0-0.6,0.1-1c0,0,0-0.1,0-0.1c0.5-3.5,3.6-6.3,7.2-6.3
			C21.7,41.6,24.9,44.8,24.9,48.9z"/>
		<circle class="st0" cx="62" cy="48.9" r="7.3"/>
		<circle class="st0" cx="62" cy="48.9" r="7.3"/>
		<polyline class="st0" points="24.8,47.4 47.8,47.4 47.8,1 1,1 1,47.4 10.4,47.4 		"/>
		<polyline class="st0" points="54.7,47.4 47.8,47.4 47.8,15.2 61.6,15.2 80,29.1 80,47.4 68.8,47.4 		"/>
		<line class="st0" x1="1" y1="35.2" x2="47" y2="35.2"/>
		<path class="st0" d="M9.3,35.2"/>
		<path class="st0" d="M9.3,10.7"/>
	</g>
	<polygon class="st0" points="56,35.2 56,23.5 62.8,23.5 71.8,30.3 71.8,35.2 	"/>
</g>
</svg>
