<svg xmlns="http://www.w3.org/2000/svg" viewBox="0 0 281.25 45.07"><defs><style>.cls-1{fill:#6d6e71;}</style></defs><title>Asset 11</title><g id="Layer_2" data-name="Layer 2"><g id="Layer_1-2" data-name="Layer 1"><path class="cls-1" d="M45,41.31V34.13L38.3,24h1.4a.66.66,0,0,1,.38.11,1.23,1.23,0,0,1,.24.26l5.1,7.83a5.39,5.39,0,0,1,.31.56l.09.18.09-.18a4.31,4.31,0,0,1,.3-.55l5.09-7.83a1,1,0,0,1,.23-.26.6.6,0,0,1,.38-.12h1.42L46.59,34.21l0,7.1Z"/><path class="cls-1" d="M77.85,41.51a7.35,7.35,0,0,1-3.1-.61,7.5,7.5,0,0,1-2.28-1.67l-.07-.08.41-.63a.61.61,0,0,1,.48-.25.62.62,0,0,1,.39.18l.43.36q.26.21.6.45a4.19,4.19,0,0,0,.79.44,6.46,6.46,0,0,0,1,.35,6,6,0,0,0,1.33.14,5.26,5.26,0,0,0,1.84-.3,4,4,0,0,0,1.35-.81,3.26,3.26,0,0,0,.84-1.2,3.8,3.8,0,0,0,.29-1.51A2.54,2.54,0,0,0,81.84,35a3.09,3.09,0,0,0-1-.93,6.37,6.37,0,0,0-1.39-.64c-.54-.17-1.08-.35-1.64-.51s-1.13-.37-1.66-.57a5.84,5.84,0,0,1-1.47-.83,3.92,3.92,0,0,1-1.06-1.26,4.13,4.13,0,0,1-.4-1.89,4.36,4.36,0,0,1,.35-1.71,4.25,4.25,0,0,1,1-1.45,4.94,4.94,0,0,1,1.67-1,6.32,6.32,0,0,1,2.25-.38,7.29,7.29,0,0,1,2.55.43,6.17,6.17,0,0,1,2.06,1.33l.08.07-.35.65a.51.51,0,0,1-.47.29.87.87,0,0,1-.52-.26,4.87,4.87,0,0,0-.68-.48,5.49,5.49,0,0,0-1.08-.49,5.05,5.05,0,0,0-1.58-.22,4.94,4.94,0,0,0-1.66.26,3.41,3.41,0,0,0-1.18.69,2.84,2.84,0,0,0-.72,1,2.91,2.91,0,0,0-.25,1.21,2.36,2.36,0,0,0,.36,1.35,3.17,3.17,0,0,0,1,.92,6,6,0,0,0,1.39.65l1.65.54c.56.18,1.12.37,1.65.59a5.81,5.81,0,0,1,1.47.82,3.92,3.92,0,0,1,1.06,1.23,3.86,3.86,0,0,1,.4,1.82,5.3,5.3,0,0,1-.4,2.07A4.81,4.81,0,0,1,82.17,40a5.34,5.34,0,0,1-1.84,1.13A6.86,6.86,0,0,1,77.85,41.51Z"/><polygon class="cls-1" points="109.08 41.31 109.08 25.32 102.78 25.32 102.78 23.97 116.92 23.97 116.92 25.32 110.67 25.32 110.67 41.31 109.08 41.31"/><rect class="cls-1" x="136" y="23.97" width="1.61" height="17.34"/><path class="cls-1" d="M173.46,45.07A1.7,1.7,0,0,1,173,45a.94.94,0,0,1-.41-.28l-3.73-3.85a8.62,8.62,0,0,1-1.6.45,9.73,9.73,0,0,1-1.9.17,9.38,9.38,0,0,1-3.49-.63,7.9,7.9,0,0,1-2.74-1.79,8.08,8.08,0,0,1-1.78-2.8,10.74,10.74,0,0,1,0-7.25,8.08,8.08,0,0,1,1.78-2.8,7.92,7.92,0,0,1,2.74-1.8,10,10,0,0,1,7,0,7.92,7.92,0,0,1,2.74,1.8A8.2,8.2,0,0,1,173.34,29a10.18,10.18,0,0,1,.63,3.62,10.78,10.78,0,0,1-.28,2.46,9,9,0,0,1-.79,2.13,7.78,7.78,0,0,1-2.75,3l4.75,4.86Zm-8.15-19.93a7.63,7.63,0,0,0-2.84.51,6.23,6.23,0,0,0-2.21,1.48,6.64,6.64,0,0,0-1.44,2.35,9.86,9.86,0,0,0,0,6.32,6.64,6.64,0,0,0,1.44,2.35,6.08,6.08,0,0,0,2.21,1.47,7.63,7.63,0,0,0,2.84.51,7.81,7.81,0,0,0,2.88-.51,6,6,0,0,0,2.2-1.47,6.6,6.6,0,0,0,1.42-2.35,10,10,0,0,0,0-6.32,6.65,6.65,0,0,0-1.42-2.36,6.3,6.3,0,0,0-2.2-1.47A7.81,7.81,0,0,0,165.31,25.14Z"/><path class="cls-1" d="M200.87,41.52A7.58,7.58,0,0,1,198,41a6.38,6.38,0,0,1-2.18-1.46,6.6,6.6,0,0,1-1.37-2.19,7.59,7.59,0,0,1-.47-2.68V24h1.6V34.65a6.33,6.33,0,0,0,.37,2.17,4.78,4.78,0,0,0,1,1.74,4.69,4.69,0,0,0,1.65,1.16,6.18,6.18,0,0,0,4.48,0,4.67,4.67,0,0,0,1.66-1.15,5.05,5.05,0,0,0,1-1.73,6.43,6.43,0,0,0,.36-2.18V24h1.59V34.66a7.59,7.59,0,0,1-.47,2.68,6.47,6.47,0,0,1-1.38,2.19A6.24,6.24,0,0,1,203.75,41,7.58,7.58,0,0,1,200.87,41.52Z"/><polygon class="cls-1" points="226.84 41.31 226.84 23.97 237.83 23.97 237.83 25.29 228.45 25.29 228.45 31.89 236.25 31.89 236.25 33.18 228.45 33.18 228.45 39.99 237.83 39.99 237.83 41.31 226.84 41.31"/><path class="cls-1" d="M17.36,24a.53.53,0,0,0-.13.13l-4.3,8.55L9.16,24h-.8l-3,6.9L2,24.14A.43.43,0,0,0,1.84,24a.4.4,0,0,0-.17,0H0V41.37H1.43a.27.27,0,0,0,.29-.21l3.45-8,4,8a.39.39,0,0,0,.33.21h.18a.36.36,0,0,0,.31-.21L13.14,35l2.65,6.15a.29.29,0,0,0,.28.21h.61l-3.11-7.2.5-1,3.44,8a.29.29,0,0,0,.28.21h1.44V24H17.54A.48.48,0,0,0,17.36,24ZM1.52,39.81V25.92l3.24,6.41ZM5.8,31.7l2.68-6.24.28-.63.27.63.23.55L6.34,32.77Zm3.82,7.57L6.76,33.6l2.88-6.71,2.87,6.65Zm8.11.54-3.24-7.48,3.24-6.41Z"/><path class="cls-1" d="M256.28,7.75h23.34V9.18h.62v-2l0,0a14.71,14.71,0,0,0-1-1.57c-.12-.17-.42-.53-.43-.54a13.85,13.85,0,0,0-22,.87h.77a13.23,13.23,0,0,1,20.79-.42l.13.17a13.1,13.1,0,0,1,.92,1.29s.1.13.14.2H268.3l0-1.4h-.65v1.4h-12V9.18h.63Z"/><polygon class="cls-1" points="259.15 9.32 255.52 12.62 255.52 13.51 259.15 10.19 259.15 9.32"/><path class="cls-1" d="M278.73,20.62H268.44V17h-.62v3.65H257V17.91h-.62v3.33h0l.17.27a13.84,13.84,0,0,0,20.26,3.11l0,0c.17-.13.33-.27.49-.41a13,13,0,0,0,1.12-1.11h-.86c-.31.31-.62.61-1,.89l-.17.14a13.22,13.22,0,0,1-19.16-2.59l-.18-.27h22.2V17.82h-.63Z"/><path class="cls-1" d="M277.4,10.69l3.85,3.69v-.86L277.56,10a2.25,2.25,0,0,0-2.24-.52l-5.45,1.76-1.81-1.91h-.88l2,2.12-7.12,2.29a4.07,4.07,0,0,1-1-2.81V9.32h-.62V10.9a4.63,4.63,0,0,0,1,3L254.93,16v.65l7-2.25a6.48,6.48,0,0,0,4.5,1.42H279.7v-.62H266.43a6.31,6.31,0,0,1-3.8-1l12.53-4A2.22,2.22,0,0,1,277.4,10.69Z"/></g></g></svg>