<svg xmlns="http://www.w3.org/2000/svg" viewBox="0 0 172.99 61.17"><defs><style>.cls-1{fill:#6d6e71;}</style></defs><title>Asset 16</title><g id="Layer_2" data-name="Layer 2"><g id="Layer_1-2" data-name="Layer 1"><path class="cls-1" d="M0,43.9V26.81H5a9.87,9.87,0,0,1,2.52.29A4.74,4.74,0,0,1,9.29,28a3.52,3.52,0,0,1,1.07,1.41,4.74,4.74,0,0,1,.35,1.86,3.73,3.73,0,0,1-.24,1.33,4,4,0,0,1-.69,1.18,4.61,4.61,0,0,1-1.11.94,5.43,5.43,0,0,1-.91.43,5.21,5.21,0,0,1,2.53,1.25,3.68,3.68,0,0,1,1.11,2.8,4.86,4.86,0,0,1-.39,2,4,4,0,0,1-1.15,1.5A5,5,0,0,1,8,43.57a8.28,8.28,0,0,1-2.44.33Zm5.57-1.27a4.94,4.94,0,0,0,3.25-.92A3.2,3.2,0,0,0,9.9,39.13a3.15,3.15,0,0,0-.29-1.36,2.77,2.77,0,0,0-.83-1,3.79,3.79,0,0,0-1.35-.66,6.93,6.93,0,0,0-1.85-.23H1.5v6.78Zm-.57-8a5.79,5.79,0,0,0,1.94-.29,3.58,3.58,0,0,0,1.3-.76,2.69,2.69,0,0,0,.74-1,3.18,3.18,0,0,0,.24-1.21,3,3,0,0,0-1-2.46A5.06,5.06,0,0,0,5,28.06H1.5v6.61Z"/><polygon class="cls-1" points="25.79 43.9 25.79 26.81 27.29 26.81 27.29 42.57 35.25 42.57 35.25 43.9 25.79 43.9"/><path class="cls-1" d="M57.78,44.08a8.57,8.57,0,0,1-3.29-.62,7.42,7.42,0,0,1-2.58-1.77,8.09,8.09,0,0,1-1.68-2.76,11.13,11.13,0,0,1,0-7.15A8,8,0,0,1,51.91,29a7.5,7.5,0,0,1,2.57-1.78,8.66,8.66,0,0,1,3.3-.62,8.47,8.47,0,0,1,3.32.62A7.38,7.38,0,0,1,63.68,29a8.07,8.07,0,0,1,1.67,2.76,11.13,11.13,0,0,1,0,7.15,8.07,8.07,0,0,1-1.67,2.76,7.52,7.52,0,0,1-2.58,1.77A8.65,8.65,0,0,1,57.78,44.08Zm0-16.12a6.88,6.88,0,0,0-2.68.51A5.83,5.83,0,0,0,53,29.92a6.65,6.65,0,0,0-1.36,2.32,10.15,10.15,0,0,0,0,6.23A6.54,6.54,0,0,0,53,40.78a5.71,5.71,0,0,0,2.08,1.45,7.06,7.06,0,0,0,2.68.5,7.15,7.15,0,0,0,2.71-.5,5.64,5.64,0,0,0,2.08-1.44,6.87,6.87,0,0,0,1.34-2.32,10.35,10.35,0,0,0,0-6.23,6.77,6.77,0,0,0-1.34-2.32,5.66,5.66,0,0,0-2.08-1.45A7,7,0,0,0,57.78,28Z"/><path class="cls-1" d="M88.47,44.08a8.66,8.66,0,0,1-3.3-.62,7.61,7.61,0,0,1-2.58-1.77,8.22,8.22,0,0,1-1.67-2.76,11,11,0,0,1,0-7.15A8.18,8.18,0,0,1,82.59,29a7.64,7.64,0,0,1,2.58-1.78,8.66,8.66,0,0,1,3.3-.62,8.5,8.5,0,0,1,3.32.62A7.48,7.48,0,0,1,94.37,29,8.22,8.22,0,0,1,96,31.78a11.13,11.13,0,0,1,0,7.15,8.22,8.22,0,0,1-1.67,2.76,7.61,7.61,0,0,1-2.58,1.77A8.69,8.69,0,0,1,88.47,44.08Zm0-16.12a6.81,6.81,0,0,0-2.68.51,5.87,5.87,0,0,0-2.09,1.45,6.81,6.81,0,0,0-1.36,2.32,10.35,10.35,0,0,0,0,6.23,6.7,6.7,0,0,0,1.36,2.31,5.75,5.75,0,0,0,2.09,1.45,7,7,0,0,0,2.68.5,7.15,7.15,0,0,0,2.71-.5,5.81,5.81,0,0,0,2.08-1.44,6.87,6.87,0,0,0,1.34-2.32,10.35,10.35,0,0,0,0-6.23,6.77,6.77,0,0,0-1.34-2.32,5.66,5.66,0,0,0-2.08-1.45A7,7,0,0,0,88.47,28Z"/><path class="cls-1" d="M127.38,26.82a.29.29,0,0,0-.13.12l-4,8.43-3.55-8.59h-.75l-2.82,6.8-3.2-6.64a.46.46,0,0,0-.13-.12.43.43,0,0,0-.17,0H111V43.92h1.34a.26.26,0,0,0,.28-.21l3.25-7.88,3.82,7.88a.35.35,0,0,0,.3.21h.18a.35.35,0,0,0,.29-.21l2.93-6.06,2.49,6.06a.29.29,0,0,0,.27.21h.58l-2.94-7.1.47-1,3.25,7.87a.27.27,0,0,0,.26.21h1.36V26.78h-1.6A.38.38,0,0,0,127.38,26.82ZM112.44,42.38V28.7l3,6.31Zm4-8L119,28.23l.25-.61.26.61.22.55L117,35.44Zm3.61,7.46-2.7-5.59,2.72-6.61,2.7,6.55Zm7.64.53-3-7.37,3-6.31Z"/><path class="cls-1" d="M172,19.85V16.36H150v3.49h-.92v.62H173v-.62Zm-.62,0h-7V17h7Zm-7.63,0h-6.36V17h6.36ZM150.59,17h6.16v2.87h-6.16Z"/><polygon class="cls-1" points="167.44 4.32 166.66 4.32 167.35 5.22 168.13 5.22 167.44 4.32"/><path class="cls-1" d="M160.13,27.14a13.26,13.26,0,1,1,10.75-21h-5.21l-1.41-1.81h-.79l1.41,1.81H150.73l-1.6,8.32h.63l1-5.06h9l-.16,1.65a3.15,3.15,0,0,1-3.44,2.65l0,.62a3.77,3.77,0,0,0,4.06-3.21l.25-2.33h-9.61l.39-2h14.13L169,11.36l-1.14,2.48h.69l.88-1.93,1.49,1.91h.79l-2-2.54.94-2.06h-.68l-.69,1.51-3.08-3.95h5.78l-.2-.43h0c0-.06,0-.12-.08-.17a13.89,13.89,0,1,0-.18,15.67h-.77A13.24,13.24,0,0,1,160.13,27.14Z"/><path class="cls-1" d="M51.29,54.76h.57v2h0A1.18,1.18,0,0,1,53,56.18c.79,0,1.34.65,1.34,1.61a1.51,1.51,0,0,1-1.43,1.69,1.13,1.13,0,0,1-1.06-.59h0l0,.52h-.49c0-.21,0-.54,0-.82Zm.57,3.38a.71.71,0,0,0,0,.21.9.9,0,0,0,.87.68c.61,0,1-.5,1-1.22s-.33-1.18-1-1.18a.92.92,0,0,0-.87.71.88.88,0,0,0,0,.24Z"/><path class="cls-1" d="M56.09,56.24l.69,1.88a6,6,0,0,1,.21.64h0c.06-.19.12-.43.2-.66l.63-1.86h.61l-.86,2.26a5,5,0,0,1-1.09,2,1.55,1.55,0,0,1-.71.36l-.14-.48a1.35,1.35,0,0,0,.5-.28,1.73,1.73,0,0,0,.49-.64.51.51,0,0,0,0-.14.47.47,0,0,0,0-.15l-1.17-2.92Z"/><path class="cls-1" d="M64.64,53.83A6.09,6.09,0,0,1,66,53.7a2.34,2.34,0,0,1,1.55.41,1.19,1.19,0,0,1,.48,1,1.34,1.34,0,0,1-1,1.24v0a1.44,1.44,0,0,1,1.17,1.41,1.47,1.47,0,0,1-.49,1.13,2.79,2.79,0,0,1-2,.53,9.48,9.48,0,0,1-1.13-.06Zm.73,2.32H66c.77,0,1.22-.41,1.22-1s-.49-.92-1.23-.92a2.85,2.85,0,0,0-.65,0Zm0,2.71a4.82,4.82,0,0,0,.61,0c.76,0,1.46-.28,1.46-1.1S66.77,56.7,66,56.7h-.6Z"/><path class="cls-1" d="M70.8,57.51a1.29,1.29,0,0,0,1.39,1.41,2.63,2.63,0,0,0,1.13-.21l.13.53a3.26,3.26,0,0,1-1.36.26,1.9,1.9,0,0,1-2-2.06A2,2,0,0,1,72,55.26a1.71,1.71,0,0,1,1.68,1.91,2.68,2.68,0,0,1,0,.34ZM73,57a1.06,1.06,0,0,0-1-1.19A1.2,1.2,0,0,0,70.81,57Z"/><path class="cls-1" d="M75.78,53.44h.74v6h-.74Z"/><path class="cls-1" d="M79.77,54.2a.44.44,0,0,1-.47.45.44.44,0,0,1-.45-.45.46.46,0,0,1,.92,0Zm-.83,5.21V55.34h.74v4.07Z"/><path class="cls-1" d="M82.09,56.44c0-.42,0-.76,0-1.1h.65l0,.68h0a1.5,1.5,0,0,1,1.35-.76c.56,0,1.43.33,1.43,1.73v2.42h-.74V57.07c0-.66-.24-1.21-.94-1.21a1.08,1.08,0,0,0-1,.76,1.18,1.18,0,0,0,0,.35v2.44h-.74Z"/><path class="cls-1" d="M91.44,53.44v4.92c0,.36,0,.77,0,1h-.66l0-.7h0a1.46,1.46,0,0,1-1.37.79,1.86,1.86,0,0,1-1.75-2.06,2,2,0,0,1,1.83-2.18,1.37,1.37,0,0,1,1.23.61h0V53.44ZM90.71,57a1.63,1.63,0,0,0,0-.31,1.09,1.09,0,0,0-1.07-.85c-.76,0-1.22.67-1.22,1.56s.41,1.51,1.2,1.51A1.13,1.13,0,0,0,90.68,58a1.58,1.58,0,0,0,0-.32Z"/><path class="cls-1" d="M96.72,58.44a7.1,7.1,0,0,0,.06,1h-.66l-.06-.51h0a1.51,1.51,0,0,1-1.24.6,1.16,1.16,0,0,1-1.25-1.16c0-1,.88-1.53,2.45-1.52v-.08a.83.83,0,0,0-.92-.93,1.89,1.89,0,0,0-1.07.3l-.17-.5a2.61,2.61,0,0,1,1.34-.35c1.25,0,1.55.85,1.55,1.65ZM96,57.33c-.81,0-1.73.13-1.73.92A.65.65,0,0,0,95,59a1,1,0,0,0,1-.68A.75.75,0,0,0,96,58Z"/><path class="cls-1" d="M106,59.24a3.67,3.67,0,0,1-1.49.26,2.64,2.64,0,0,1-2.79-2.87,2.82,2.82,0,0,1,3-3,3.08,3.08,0,0,1,1.34.25l-.18.6a2.7,2.7,0,0,0-1.14-.23,2.1,2.1,0,0,0-2.21,2.33,2.05,2.05,0,0,0,2.17,2.28,3,3,0,0,0,1.2-.23Z"/><path class="cls-1" d="M108.12,53.44h.74V56h0a1.47,1.47,0,0,1,1.29-.73c.55,0,1.42.33,1.42,1.73v2.42h-.74V57.07c0-.65-.24-1.2-.94-1.2a1.07,1.07,0,0,0-1,.73,1,1,0,0,0,0,.36v2.45h-.74Z"/><path class="cls-1" d="M116.82,58.44a7.1,7.1,0,0,0,.06,1h-.66l-.06-.51h0a1.49,1.49,0,0,1-1.24.6,1.16,1.16,0,0,1-1.24-1.16c0-1,.87-1.53,2.44-1.52v-.08a.83.83,0,0,0-.92-.93,1.91,1.91,0,0,0-1.07.3l-.17-.5a2.65,2.65,0,0,1,1.35-.35c1.24,0,1.54.85,1.54,1.65Zm-.71-1.11c-.81,0-1.72.13-1.72.92a.64.64,0,0,0,.68.71,1,1,0,0,0,1-.68.75.75,0,0,0,0-.24Z"/><path class="cls-1" d="M119.2,56.44c0-.42,0-.76,0-1.1h.65l0,.68h0a1.5,1.5,0,0,1,1.35-.76c.56,0,1.43.33,1.43,1.73v2.42h-.74V57.07c0-.66-.24-1.21-.94-1.21a1.07,1.07,0,0,0-1,.76,1.18,1.18,0,0,0,0,.35v2.44h-.74Z"/><path class="cls-1" d="M128.53,58.82a2.36,2.36,0,0,1-.58,1.86,2.27,2.27,0,0,1-1.49.49,2.6,2.6,0,0,1-1.35-.34l.18-.57a2.2,2.2,0,0,0,1.2.33c.75,0,1.31-.4,1.31-1.43v-.45h0a1.44,1.44,0,0,1-1.29.69,1.83,1.83,0,0,1-1.74-2,1.94,1.94,0,0,1,1.85-2.15,1.37,1.37,0,0,1,1.27.7h0l0-.62h.65c0,.29,0,.62,0,1.11ZM127.79,57a1.08,1.08,0,0,0-1.08-1.12c-.7,0-1.21.6-1.21,1.54s.41,1.46,1.2,1.46a1.06,1.06,0,0,0,1-.76,1.27,1.27,0,0,0,.06-.39Z"/></g></g></svg>