<svg xmlns="http://www.w3.org/2000/svg" viewBox="0 0 236.47 60.5"><defs><style>.cls-1{fill:#6d6e71;}</style></defs><title>Asset 18</title><g id="Layer_2" data-name="Layer 2"><g id="Layer_1-2" data-name="Layer 1"><polygon class="cls-1" points="0 42.88 0 26.29 10.36 26.29 10.36 27.55 1.51 27.55 1.51 33.86 8.87 33.86 8.87 35.1 1.51 35.1 1.51 41.62 10.36 41.62 10.36 42.88 0 42.88"/><path class="cls-1" d="M62.09,42.88V26.29h5a9.92,9.92,0,0,1,2.53.28,5,5,0,0,1,1.79.84,3.62,3.62,0,0,1,1.07,1.36,4.53,4.53,0,0,1,.35,1.81,3.56,3.56,0,0,1-.24,1.29,3.9,3.9,0,0,1-.7,1.15,4.36,4.36,0,0,1-1.11.91,4.76,4.76,0,0,1-.91.42,5.26,5.26,0,0,1,2.53,1.21,3.54,3.54,0,0,1,1.12,2.72,4.58,4.58,0,0,1-.4,1.92A3.87,3.87,0,0,1,72,41.66a5.41,5.41,0,0,1-1.83.91,9.14,9.14,0,0,1-2.44.31Zm5.57-1.23a5.08,5.08,0,0,0,3.25-.89A3.09,3.09,0,0,0,72,38.25a3,3,0,0,0-.28-1.32,2.68,2.68,0,0,0-.84-1,3.85,3.85,0,0,0-1.35-.64,6.8,6.8,0,0,0-1.84-.23H63.59v6.59Zm-.57-7.73A6.05,6.05,0,0,0,69,33.64a4,4,0,0,0,1.31-.73,3,3,0,0,0,.74-1,3.08,3.08,0,0,0,.24-1.19,2.88,2.88,0,0,0-1-2.38,5.23,5.23,0,0,0-3.23-.82H63.59v6.42Z"/><path class="cls-1" d="M101,42.88a.8.8,0,0,1-.39-.09.94.94,0,0,1-.32-.26l-5.37-6.62a1.1,1.1,0,0,0-.38-.32,1.79,1.79,0,0,0-.66-.09h-2v7.38h-1.5V26.29h4.43a7.27,7.27,0,0,1,4.43,1.12,3.91,3.91,0,0,1,1.49,3.31,4.42,4.42,0,0,1-.34,1.76,4.16,4.16,0,0,1-1,1.4,5.27,5.27,0,0,1-1.54,1,6.69,6.69,0,0,1-1.68.46,1.39,1.39,0,0,1,.26.28l6,7.28Zm-6.4-8.54a6.91,6.91,0,0,0,2-.25A4.28,4.28,0,0,0,98,33.37a3.06,3.06,0,0,0,.89-1.11,3.48,3.48,0,0,0,.31-1.47,2.85,2.85,0,0,0-1.12-2.47,5.74,5.74,0,0,0-3.33-.82H91.79v6.84Z"/><path class="cls-1" d="M133.35,42.88a.54.54,0,0,1-.36-.12.67.67,0,0,1-.21-.28l-1.95-4.65h-8.05l-1.93,4.65a.69.69,0,0,1-.21.28.62.62,0,0,1-.38.12h-1.14l7-16.59h1.41l7,16.59Zm-3-6.21-3.35-8-.17-.46,0-.08s0,.06,0,.08-.12.32-.17.47l-3.35,8Z"/><path class="cls-1" d="M159.35,43.06a8.6,8.6,0,0,1-3.26-.6,7.23,7.23,0,0,1-2.54-1.72,7.82,7.82,0,0,1-1.65-2.68,9.89,9.89,0,0,1-.59-3.48,9.28,9.28,0,0,1,.61-3.44,7.58,7.58,0,0,1,4.36-4.42,9.14,9.14,0,0,1,3.4-.62,9.82,9.82,0,0,1,1.7.14,7.78,7.78,0,0,1,1.44.39,6.54,6.54,0,0,1,1.27.63,8.89,8.89,0,0,1,1.16.86l.09.08-.44.63a.46.46,0,0,1-.41.2.61.61,0,0,1-.36-.15l-.42-.3c-.17-.12-.37-.25-.61-.39a5.53,5.53,0,0,0-.84-.38,7.52,7.52,0,0,0-1.12-.29,8.06,8.06,0,0,0-1.46-.12,7.49,7.49,0,0,0-2.76.5,6.38,6.38,0,0,0-2.15,1.43,6.69,6.69,0,0,0-1.42,2.26,8.52,8.52,0,0,0-.5,3,8.73,8.73,0,0,0,.5,3,6.46,6.46,0,0,0,1.38,2.25,6,6,0,0,0,2.08,1.41,7,7,0,0,0,2.61.49,9.32,9.32,0,0,0,1.58-.12,5.9,5.9,0,0,0,1.27-.33,6.08,6.08,0,0,0,1.08-.55,7.77,7.77,0,0,0,1-.77l.14-.1a.42.42,0,0,1,.2,0,.47.47,0,0,1,.3.12l.57.6-.09.1a7.79,7.79,0,0,1-1.16,1,7,7,0,0,1-1.38.75,7.77,7.77,0,0,1-1.63.48A9.73,9.73,0,0,1,159.35,43.06Z"/><polygon class="cls-1" points="182.35 42.88 182.35 26.29 192.71 26.29 192.71 27.55 183.87 27.55 183.87 33.86 191.23 33.86 191.23 35.1 183.87 35.1 183.87 41.62 192.71 41.62 192.71 42.88 182.35 42.88"/><path class="cls-1" d="M43.53,26.29a.27.27,0,0,0-.13.13l-4,8.18-3.56-8.34H35l-2.81,6.6L29,26.42a.27.27,0,0,0-.13-.13.38.38,0,0,0-.16,0H27.16V42.9H28.5a.26.26,0,0,0,.28-.2L32,35l3.81,7.66a.35.35,0,0,0,.31.2h.17a.32.32,0,0,0,.29-.2l2.93-5.89L42,42.7a.28.28,0,0,0,.27.2h.58L40,36l.47-.95,3.24,7.64a.28.28,0,0,0,.27.2h1.35V26.26H43.69A.38.38,0,0,0,43.53,26.29ZM28.59,41.41V28.12l3.06,6.13Zm4-7.76,2.54-6,.25-.6.26.6.22.53-2.76,6.47Zm3.61,7.24-2.7-5.42L36.25,29,39,35.4Zm7.64.52-3-7.16,3-6.13Z"/><path class="cls-1" d="M236.47,19.32h-5V16.88h4.22v-.59h-4.22V14h4.22v-.59h-4.22v-2.2h4.22v-.59h-4.22V9.06h-.59v1.58h-4.22V9.05l-1.2,1.28v.87l.61-.65v9.36l9.46,0a13.25,13.25,0,0,1-25-4.65v0l2.86-.58v5.6H214V14.58l3.12-.64v-.59L214,14V9.73h3.12V9.13H214V4.91a13.21,13.21,0,0,1,20.6,1.39h-7.7V4.8h-.59V6.3h-8.82v.59h2.15l-2.14,5.05h2.24l-2.29,4.5h2.9l-2.15,3.87h.66l3.6-6.44-.68,0-1.11,2h-2.24l2.25-4.5h-2.29l1.89-4.46,15.34,0-.13-.31-.06-.13h0a.36.36,0,0,1-.07-.1l0,0h0a13.88,13.88,0,1,0,1,13.32h0ZM213.37,9.14h-2a13.17,13.17,0,0,1,2-3.55Zm-2.26.59h2.26V14.1l-2.89.58c0-.26,0-.53,0-.8A13.26,13.26,0,0,1,211.11,9.73Zm19.75,6.56h-4.22V14h4.22Zm0-5.06v2.2h-4.22v-2.2Zm-4.22,5.65h4.22v2.44h-4.22Z"/><path class="cls-1" d="M99,54.41h.57v2h0a1.15,1.15,0,0,1,1.08-.58c.79,0,1.34.65,1.34,1.61a1.51,1.51,0,0,1-1.43,1.69,1.14,1.14,0,0,1-1.07-.59h0l0,.52h-.49c0-.21,0-.53,0-.82Zm.57,3.38a.71.71,0,0,0,0,.21.88.88,0,0,0,.86.68c.61,0,1-.49,1-1.22s-.32-1.18-.94-1.18a.94.94,0,0,0-.88.71,1.57,1.57,0,0,0,0,.24Z"/><path class="cls-1" d="M103.77,55.89l.68,1.88c.08.21.16.45.21.64h0c.06-.19.12-.43.2-.66l.63-1.86h.61l-.87,2.26a4.92,4.92,0,0,1-1.08,2,1.59,1.59,0,0,1-.71.36l-.15-.48a1.31,1.31,0,0,0,.51-.28,1.62,1.62,0,0,0,.48-.64.34.34,0,0,0,0-.14.35.35,0,0,0,0-.15l-1.16-2.92Z"/><path class="cls-1" d="M117.09,56.57c0-.79-.09-1.75-.09-2.44h0c-.2.65-.43,1.37-.72,2.15l-1,2.75h-.55l-.93-2.7c-.27-.81-.48-1.53-.64-2.2h0c0,.7-.06,1.65-.11,2.5l-.15,2.43h-.7l.4-5.66h.93l1,2.74c.23.69.42,1.32.57,1.9h0c.15-.57.35-1.19.6-1.9l1-2.74h.93l.36,5.66h-.73Z"/><path class="cls-1" d="M123.14,58.09a7.1,7.1,0,0,0,.06,1h-.66l-.06-.51h0a1.51,1.51,0,0,1-1.24.61A1.17,1.17,0,0,1,120,58c0-1,.88-1.53,2.45-1.52v-.08a.83.83,0,0,0-.93-.93,1.88,1.88,0,0,0-1.06.3l-.17-.5a2.61,2.61,0,0,1,1.34-.35c1.25,0,1.55.85,1.55,1.66Zm-.71-1.1c-.81,0-1.73.12-1.73.91a.65.65,0,0,0,.69.71,1,1,0,0,0,1-.68.75.75,0,0,0,0-.24Z"/><path class="cls-1" d="M125.52,56.26c0-.48,0-.89,0-1.27h.65l0,.81h0a1.22,1.22,0,0,1,1.13-.89l.21,0v.69h-.26a1,1,0,0,0-1,.94,1.88,1.88,0,0,0,0,.34v2.17h-.74Z"/><path class="cls-1" d="M130.3,53.85a.44.44,0,0,1-.47.45.43.43,0,0,1-.44-.45.45.45,0,0,1,.46-.46A.44.44,0,0,1,130.3,53.85Zm-.82,5.21V55h.74v4.07Z"/><path class="cls-1" d="M133,57.16a1.3,1.3,0,0,0,1.39,1.41,2.63,2.63,0,0,0,1.13-.21l.14.53a3.32,3.32,0,0,1-1.37.27,1.9,1.9,0,0,1-2-2.07,2,2,0,0,1,1.91-2.18,1.71,1.71,0,0,1,1.68,1.91,2.68,2.68,0,0,1,0,.34Zm2.17-.53a1.05,1.05,0,0,0-1-1.19,1.2,1.2,0,0,0-1.13,1.19Z"/><path class="cls-1" d="M141,53.48a6.09,6.09,0,0,1,1.33-.13,2.26,2.26,0,0,1,1.55.42,1.16,1.16,0,0,1,.48,1,1.34,1.34,0,0,1-1,1.24v0a1.44,1.44,0,0,1,1.17,1.41,1.46,1.46,0,0,1-.49,1.13,2.79,2.79,0,0,1-2,.53,9.48,9.48,0,0,1-1.13-.06Zm.73,2.32h.66c.77,0,1.22-.41,1.22-1s-.49-.92-1.23-.92a2.85,2.85,0,0,0-.65,0Zm0,2.71a4.82,4.82,0,0,0,.61,0c.76,0,1.46-.28,1.46-1.1s-.67-1.09-1.47-1.09h-.6Z"/><path class="cls-1" d="M150.44,57a2,2,0,0,1-2,2.17,1.94,1.94,0,0,1-1.95-2.1,2,2,0,0,1,2-2.15A1.92,1.92,0,0,1,150.44,57Zm-3.22,0c0,.89.5,1.56,1.23,1.56s1.23-.66,1.23-1.58c0-.69-.34-1.56-1.22-1.56S147.22,56.27,147.22,57Z"/><path class="cls-1" d="M152.55,53.09h.74v6h-.74Z"/><path class="cls-1" d="M156.61,54v1h1.06v.57h-1.06v2.19c0,.51.14.79.55.79a1.48,1.48,0,0,0,.43,0l0,.56a2,2,0,0,1-.66.11,1.05,1.05,0,0,1-.8-.32,1.56,1.56,0,0,1-.28-1.06V55.56h-.63V55h.63v-.75Z"/><path class="cls-1" d="M160,57.16a1.3,1.3,0,0,0,1.4,1.41,2.55,2.55,0,0,0,1.12-.21l.14.53a3.26,3.26,0,0,1-1.36.27,1.9,1.9,0,0,1-2-2.07,2,2,0,0,1,1.9-2.18,1.72,1.72,0,0,1,1.69,1.91,1.46,1.46,0,0,1,0,.34Zm2.17-.53a1,1,0,0,0-1-1.19,1.21,1.21,0,0,0-1.14,1.19Z"/><path class="cls-1" d="M165,56.09c0-.42,0-.76,0-1.1h.66l0,.68h0a1.5,1.5,0,0,1,1.34-.76c.56,0,1.44.33,1.44,1.73v2.42h-.74V56.72c0-.66-.25-1.21-.94-1.21a1.09,1.09,0,0,0-1,.76,1.18,1.18,0,0,0-.05.35v2.44H165Z"/><path class="cls-1" d="M170.77,58.31a2.07,2.07,0,0,0,1,.29c.53,0,.78-.26.78-.61s-.21-.53-.75-.74c-.74-.26-1.09-.66-1.09-1.15a1.26,1.26,0,0,1,1.41-1.19,1.92,1.92,0,0,1,1,.25l-.18.54a1.57,1.57,0,0,0-.83-.24c-.44,0-.67.25-.67.55s.23.49.76.7c.7.26,1.07.61,1.07,1.22s-.56,1.23-1.51,1.23a2.33,2.33,0,0,1-1.15-.29Z"/><path class="cls-1" d="M176.27,54v1h1.06v.57h-1.06v2.19c0,.51.15.79.56.79a1.53,1.53,0,0,0,.43,0l0,.56a2,2,0,0,1-.66.11,1,1,0,0,1-.79-.32,1.51,1.51,0,0,1-.29-1.06V55.56h-.63V55h.63v-.75Z"/><path class="cls-1" d="M179.71,57.16a1.29,1.29,0,0,0,1.39,1.41,2.63,2.63,0,0,0,1.13-.21l.13.53a3.22,3.22,0,0,1-1.36.27,1.9,1.9,0,0,1-2-2.07,2,2,0,0,1,1.91-2.18,1.71,1.71,0,0,1,1.68,1.91,2.68,2.68,0,0,1,0,.34Zm2.17-.53a1.06,1.06,0,0,0-1-1.19,1.2,1.2,0,0,0-1.13,1.19Z"/><path class="cls-1" d="M184.69,56.26c0-.48,0-.89,0-1.27h.64l0,.81h0a1.23,1.23,0,0,1,1.14-.89l.2,0v.69h-.25a1,1,0,0,0-1,.94,1.87,1.87,0,0,0,0,.34v2.17h-.74Z"/><path class="cls-1" d="M188.65,56.09c0-.42,0-.76,0-1.1h.66l0,.68h0a1.53,1.53,0,0,1,1.35-.76c.56,0,1.44.33,1.44,1.73v2.42h-.74V56.72c0-.66-.25-1.21-.94-1.21a1.09,1.09,0,0,0-1,.76,1.18,1.18,0,0,0-.05.35v2.44h-.74Z"/></g></g></svg>