<svg xmlns="http://www.w3.org/2000/svg" viewBox="0 0 242.31 44.53"><defs><style>.cls-1{fill:#6d6e71;}</style></defs><title>Asset 15</title><g id="Layer_2" data-name="Layer 2"><g id="Layer_1-2" data-name="Layer 1"><polygon class="cls-1" points="11.74 44.36 11.74 36.31 1.51 36.31 1.51 44.36 0 44.36 0 27.27 1.51 27.27 1.51 35.1 11.74 35.1 11.74 27.27 13.25 27.27 13.25 44.36 11.74 44.36"/><path class="cls-1" d="M43.35,44.36a.55.55,0,0,1-.36-.13.74.74,0,0,1-.21-.28l-2-4.79h-8l-1.93,4.78a.66.66,0,0,1-.21.29.65.65,0,0,1-.38.13H29.12l7-17.09h1.41l7,17.09Zm-3-6.4L37,29.68c-.06-.14-.11-.29-.17-.47l0-.08,0,.08c-.05.18-.11.33-.16.48L33.27,38Z"/><path class="cls-1" d="M71.05,44.36a.82.82,0,0,1-.4-.09,1,1,0,0,1-.31-.28L65,37.18a1,1,0,0,0-.38-.33,1.72,1.72,0,0,0-.66-.09H61.87v7.6h-1.5V27.27H64.8a7.2,7.2,0,0,1,4.44,1.15,4.09,4.09,0,0,1,1.49,3.41,4.6,4.6,0,0,1-.35,1.81,4.23,4.23,0,0,1-1,1.45,5.26,5.26,0,0,1-1.55,1,6.5,6.5,0,0,1-1.67.47,2.43,2.43,0,0,1,.26.29l6,7.5Zm-6.4-8.79a7,7,0,0,0,2-.26,4.35,4.35,0,0,0,1.44-.74,3.19,3.19,0,0,0,.89-1.15,3.56,3.56,0,0,0,.31-1.52,2.94,2.94,0,0,0-1.12-2.54,5.54,5.54,0,0,0-3.33-.84H61.87v7.05Z"/><path class="cls-1" d="M130.41,44.53a8.44,8.44,0,0,1-3.3-.62,7.48,7.48,0,0,1-2.58-1.77,8.08,8.08,0,0,1-1.67-2.75,11,11,0,0,1,0-7.15,8.22,8.22,0,0,1,1.67-2.76,7.61,7.61,0,0,1,2.58-1.77,8.47,8.47,0,0,1,3.3-.63,8.69,8.69,0,0,1,3.32.62,7.5,7.5,0,0,1,2.58,1.78A8,8,0,0,1,138,32.24a11,11,0,0,1,0,7.15,7.91,7.91,0,0,1-1.66,2.75,7.48,7.48,0,0,1-2.58,1.77A8.5,8.5,0,0,1,130.41,44.53Zm0-16.11a7,7,0,0,0-2.68.5,5.81,5.81,0,0,0-2.09,1.46,6.65,6.65,0,0,0-1.36,2.32,10.32,10.32,0,0,0,0,6.22,6.65,6.65,0,0,0,1.36,2.32,5.87,5.87,0,0,0,2.09,1.45,7,7,0,0,0,2.68.5,7.15,7.15,0,0,0,2.71-.5,5.83,5.83,0,0,0,2.08-1.45,6.77,6.77,0,0,0,1.34-2.32,10.32,10.32,0,0,0,0-6.22,6.91,6.91,0,0,0-1.34-2.33,5.87,5.87,0,0,0-2.08-1.45A7.15,7.15,0,0,0,130.41,28.42Z"/><path class="cls-1" d="M167,44.36a.67.67,0,0,1-.56-.3L155.78,29.88V44.36h-1.35V27.27h.74a1,1,0,0,1,.32.05.77.77,0,0,1,.26.23l10.58,14.16a1.48,1.48,0,0,1,0-.21V27.27h1.36V44.36Z"/><path class="cls-1" d="M189.87,44.36V37.28l-6.32-10h1.32a.56.56,0,0,1,.35.11.94.94,0,0,1,.23.25l4.81,7.72a4.85,4.85,0,0,1,.29.54l.09.19c0-.06.05-.12.08-.19s.18-.35.29-.54l4.8-7.71a.75.75,0,0,1,.21-.26.61.61,0,0,1,.36-.11h1.33l-6.35,10.09,0,7Z"/><path class="cls-1" d="M104.64,27.09a.32.32,0,0,0-.13.13l-4.05,8.42-3.55-8.58h-.75l-2.82,6.8-3.21-6.64a.38.38,0,0,0-.12-.13.43.43,0,0,0-.17,0H88.27V44.2h1.34a.26.26,0,0,0,.28-.21l3.25-7.89L97,44a.37.37,0,0,0,.31.21h.17a.35.35,0,0,0,.3-.21l2.93-6.06L103.15,44a.29.29,0,0,0,.27.21H104l-2.94-7.11.47-1L104.78,44a.27.27,0,0,0,.26.21h1.36V27.06h-1.6A.38.38,0,0,0,104.64,27.09ZM89.7,42.66V29l3,6.32Zm4-8,2.54-6.16.25-.62.26.62.22.54-2.76,6.67Zm3.61,7.46-2.7-5.59,2.72-6.62,2.7,6.55Zm7.64.53-3-7.37L105,29Z"/><path class="cls-1" d="M239,15.44V12.5H218.42v7.69h15.65A4.86,4.86,0,0,0,239,15.44Zm-20-2.32h19.37v2.32a4.24,4.24,0,0,1-4.34,4.12H219Z"/><path class="cls-1" d="M228.56,0a13.9,13.9,0,0,0-13.74,11.92h0l.1.49,4.45-2.27h18.47l4.29,2.27.18-.4A13.9,13.9,0,0,0,228.56,0Zm-8,9.51,5.8-3a5.12,5.12,0,0,1,4.81.06l5.5,2.91Zm10.9-3.45A5.72,5.72,0,0,0,226.06,6l-10.52,5.4a13.26,13.26,0,0,1,26.05,0Z"/><path class="cls-1" d="M228.56,27.14a13.27,13.27,0,0,1-11.69-7h-.7a13.87,13.87,0,0,0,24.78,0h-.7A13.27,13.27,0,0,1,228.56,27.14Z"/></g></g></svg>