<svg xmlns="http://www.w3.org/2000/svg" viewBox="0 0 273.6 44.49"><defs><style>.cls-1{fill:#6d6e71;}</style></defs><title>Asset 13</title><g id="Layer_2" data-name="Layer 2"><g id="Layer_1-2" data-name="Layer 1"><polygon class="cls-1" points="6.29 44.29 6.29 28.3 0 28.3 0 26.95 14.15 26.95 14.15 28.3 7.89 28.3 7.89 44.29 6.29 44.29"/><rect class="cls-1" x="34.31" y="26.95" width="1.61" height="17.34"/><polygon class="cls-1" points="95.48 44.29 95.48 26.95 106.47 26.95 106.47 28.27 97.09 28.27 97.09 34.87 104.89 34.87 104.89 36.16 97.09 36.16 97.09 42.97 106.47 42.97 106.47 44.29 95.48 44.29"/><polygon class="cls-1" points="126.63 44.29 126.63 26.95 128.23 26.95 128.23 42.95 136.68 42.95 136.68 44.29 126.63 44.29"/><polygon class="cls-1" points="156.84 44.29 156.84 26.95 167.83 26.95 167.83 28.27 158.45 28.27 158.45 34.87 166.25 34.87 166.25 36.16 158.45 36.16 158.45 42.97 167.83 42.97 167.83 44.29 156.84 44.29"/><path class="cls-1" d="M193.45,44.49a7.2,7.2,0,0,1-3.1-.62,7.31,7.31,0,0,1-2.28-1.66l-.08-.09.42-.62a.61.61,0,0,1,.48-.25.62.62,0,0,1,.39.18l.43.36q.25.21.6.45a4.19,4.19,0,0,0,.79.44,5.65,5.65,0,0,0,2.38.49,5.26,5.26,0,0,0,1.84-.3,4,4,0,0,0,1.35-.81,3.26,3.26,0,0,0,.84-1.2,3.83,3.83,0,0,0,.29-1.51,2.54,2.54,0,0,0-.36-1.41,3.09,3.09,0,0,0-1-.93,6.59,6.59,0,0,0-1.39-.64l-1.64-.52a15.46,15.46,0,0,1-1.66-.57,5.81,5.81,0,0,1-1.47-.82,3.92,3.92,0,0,1-1.06-1.26,4.13,4.13,0,0,1-.4-1.89,4.36,4.36,0,0,1,.35-1.71,4.13,4.13,0,0,1,1-1.45,4.94,4.94,0,0,1,1.67-1,6.28,6.28,0,0,1,2.25-.38,7.29,7.29,0,0,1,2.55.43,6.24,6.24,0,0,1,2.06,1.32l.08.08-.35.65a.51.51,0,0,1-.47.29.87.87,0,0,1-.52-.26,4.87,4.87,0,0,0-.68-.48,5.49,5.49,0,0,0-1.08-.49,4.77,4.77,0,0,0-1.58-.22,4.9,4.9,0,0,0-1.66.26,3.41,3.41,0,0,0-1.18.69,3,3,0,0,0-.73,1,3.1,3.1,0,0,0-.24,1.2,2.37,2.37,0,0,0,.36,1.36,3.17,3.17,0,0,0,1,.92,6.35,6.35,0,0,0,1.39.65l1.65.54c.56.17,1.11.37,1.65.58a6.16,6.16,0,0,1,1.47.83,3.92,3.92,0,0,1,1.06,1.23,3.86,3.86,0,0,1,.4,1.82,5.3,5.3,0,0,1-.4,2.07,4.81,4.81,0,0,1-1.14,1.7,5.34,5.34,0,0,1-1.84,1.13A6.9,6.9,0,0,1,193.45,44.49Z"/><path class="cls-1" d="M224.93,44.49a7.2,7.2,0,0,1-3.1-.62,7.31,7.31,0,0,1-2.28-1.66l-.07-.09.41-.62a.61.61,0,0,1,.48-.25.62.62,0,0,1,.39.18l.43.36q.26.21.6.45a4.53,4.53,0,0,0,.79.44,5.65,5.65,0,0,0,2.38.49,5.26,5.26,0,0,0,1.84-.3,4,4,0,0,0,1.35-.81,3.26,3.26,0,0,0,.84-1.2,3.83,3.83,0,0,0,.29-1.51,2.54,2.54,0,0,0-.36-1.41,3.09,3.09,0,0,0-1-.93,6.37,6.37,0,0,0-1.39-.64l-1.64-.52a16.25,16.25,0,0,1-1.66-.57,5.81,5.81,0,0,1-1.47-.82,3.92,3.92,0,0,1-1.06-1.26,4.13,4.13,0,0,1-.4-1.89,4.36,4.36,0,0,1,.35-1.71,4.25,4.25,0,0,1,1-1.45,5,5,0,0,1,1.67-1,6.28,6.28,0,0,1,2.25-.38,7.29,7.29,0,0,1,2.55.43,6.14,6.14,0,0,1,2.06,1.32l.08.08-.35.65a.51.51,0,0,1-.47.29.87.87,0,0,1-.52-.26,4.87,4.87,0,0,0-.68-.48,5.49,5.49,0,0,0-1.08-.49,4.77,4.77,0,0,0-1.58-.22,4.9,4.9,0,0,0-1.66.26,3.41,3.41,0,0,0-1.18.69,2.84,2.84,0,0,0-.72,1,2.93,2.93,0,0,0-.25,1.2,2.37,2.37,0,0,0,.36,1.36,3.17,3.17,0,0,0,1,.92,6,6,0,0,0,1.39.65l1.65.54c.56.17,1.12.37,1.65.58a6.16,6.16,0,0,1,1.47.83,3.92,3.92,0,0,1,1.06,1.23,3.86,3.86,0,0,1,.4,1.82,5.3,5.3,0,0,1-.4,2.07,4.94,4.94,0,0,1-1.14,1.7,5.34,5.34,0,0,1-1.84,1.13A6.86,6.86,0,0,1,224.93,44.49Z"/><path class="cls-1" d="M73.45,27a.33.33,0,0,0-.14.13L69,35.65l-3.77-8.71h-.8l-3,6.89L58.06,27.1a.27.27,0,0,0-.13-.13.48.48,0,0,0-.18,0H56.09V44.33h1.42a.28.28,0,0,0,.3-.22l3.44-8,4,8a.36.36,0,0,0,.32.22h.19a.37.37,0,0,0,.31-.22L69.23,38l2.64,6.15a.3.3,0,0,0,.29.22h.61l-3.12-7.21.5-1,3.44,8a.3.3,0,0,0,.29.22h1.43V26.94H73.62A.43.43,0,0,0,73.45,27ZM57.6,42.76V28.88l3.24,6.41Zm4.28-8.11,2.69-6.24.27-.63.27.63.24.55-2.93,6.76Zm3.83,7.58-2.87-5.67,2.89-6.72,2.86,6.65Zm8.1.53-3.23-7.48,3.23-6.4Z"/><polygon class="cls-1" points="254.78 6.65 254.19 6.65 254.19 12.57 251.63 11.85 251.63 8.23 251.04 8.23 251.04 17.72 251.63 17.72 251.63 12.46 254.19 13.2 254.19 20.49 254.78 20.49 254.78 13.36 256.11 13.78 256.11 13.15 254.78 12.74 254.78 6.65"/><path class="cls-1" d="M272.93,19.62l-2.6.05,2.35-4.55a2.55,2.55,0,0,0,.1-2.33A3.25,3.25,0,0,0,270.5,11L260,8.27l.4-.78,12.72.1v0h.53a13.55,13.55,0,1,0,0,12h-.63Zm-2.35-1.72-11.57-3a2,2,0,0,1-1.34-1,1.44,1.44,0,0,1,0-1.25l.43-.81,13.71,3.71Zm-.22-6.34A2.68,2.68,0,0,1,272.24,13a2,2,0,0,1-.08,1.81l-.06.12-13.72-3.7,1.29-2.46Zm-8.91,15A13,13,0,1,1,272.66,7l-15.73-.12v.59h2.76l-2.53,4.85a2,2,0,0,0,0,1.77,2.56,2.56,0,0,0,1.73,1.35l11.43,3-.63,1.22-12.74-.1v.59l15.67.06A13,13,0,0,1,261.45,26.55Z"/></g></g></svg>