<svg xmlns="http://www.w3.org/2000/svg" viewBox="0 0 267.25 44.97"><defs><style>.cls-1{fill:#6d6e71;}</style></defs><title>Asset 14</title><g id="Layer_2" data-name="Layer 2"><g id="Layer_1-2" data-name="Layer 1"><path class="cls-1" d="M5.46,45a7.4,7.4,0,0,1-3.11-.61A7.34,7.34,0,0,1,.08,42.69L0,42.61.42,42a.59.59,0,0,1,.48-.25.67.67,0,0,1,.39.18l.43.36a6.89,6.89,0,0,0,.59.45,4.63,4.63,0,0,0,.8.44,6,6,0,0,0,1,.35,6,6,0,0,0,1.34.14,5.2,5.2,0,0,0,1.83-.3,4.22,4.22,0,0,0,1.36-.8,3.66,3.66,0,0,0,.84-1.21,4,4,0,0,0,.29-1.51,2.54,2.54,0,0,0-.36-1.41,3.32,3.32,0,0,0-1-.93,6.68,6.68,0,0,0-1.4-.64c-.53-.17-1.08-.35-1.64-.51S4.32,36,3.78,35.77a6,6,0,0,1-1.47-.83,3.79,3.79,0,0,1-1-1.26,4,4,0,0,1-.4-1.89,4.36,4.36,0,0,1,.35-1.71,4.28,4.28,0,0,1,1-1.45,5,5,0,0,1,1.67-1,6.37,6.37,0,0,1,2.26-.38,7.19,7.19,0,0,1,2.54.43A6.21,6.21,0,0,1,10.78,29l.08.07-.36.65A.5.5,0,0,1,10,30a.92.92,0,0,1-.53-.26,4.34,4.34,0,0,0-.68-.48,5.13,5.13,0,0,0-1.07-.49,5.17,5.17,0,0,0-1.59-.22,4.88,4.88,0,0,0-1.65.26,3.55,3.55,0,0,0-1.19.69,3,3,0,0,0-.72,1,3.12,3.12,0,0,0-.25,1.21,2.36,2.36,0,0,0,.36,1.35,3.17,3.17,0,0,0,1,.92,6.23,6.23,0,0,0,1.4.65l1.64.54c.57.18,1.12.37,1.66.59a6,6,0,0,1,1.47.82,3.89,3.89,0,0,1,1.05,1.23,3.74,3.74,0,0,1,.4,1.82,5.48,5.48,0,0,1-.39,2.07,4.83,4.83,0,0,1-1.15,1.7,5.34,5.34,0,0,1-1.84,1.13A6.8,6.8,0,0,1,5.46,45Z"/><path class="cls-1" d="M34.79,44.77V37.59L28.08,27.43h1.4a.66.66,0,0,1,.38.11,1.54,1.54,0,0,1,.24.26l5.1,7.83a5.39,5.39,0,0,1,.31.56l.09.18.09-.18a4.44,4.44,0,0,1,.31-.55l5.08-7.83a1,1,0,0,1,.23-.26.6.6,0,0,1,.38-.12h1.42L36.37,37.67l0,7.1Z"/><path class="cls-1" d="M89.85,44.77V27.43H94.6a7.5,7.5,0,0,1,4.83,1.35,4.75,4.75,0,0,1,1.65,3.86,4.94,4.94,0,0,1-.45,2.12,4.67,4.67,0,0,1-1.29,1.67,6.12,6.12,0,0,1-2,1.09,8.71,8.71,0,0,1-2.7.39H91.45v6.86Zm4.75-8.14a6.58,6.58,0,0,0,2.07-.31,4.51,4.51,0,0,0,1.53-.84,3.62,3.62,0,0,0,1-1.25,3.81,3.81,0,0,0,.34-1.59,3.58,3.58,0,0,0-1.22-2.91,5.62,5.62,0,0,0-3.67-1H91.45v7.92Z"/><polygon class="cls-1" points="130.83 44.77 130.83 36.61 119.98 36.61 119.98 44.77 118.37 44.77 118.37 27.43 119.98 27.43 119.98 35.38 130.83 35.38 130.83 27.43 132.43 27.43 132.43 44.77 130.83 44.77"/><path class="cls-1" d="M155.33,45a9.38,9.38,0,0,1-3.49-.64,7.9,7.9,0,0,1-2.74-1.79,8.06,8.06,0,0,1-1.77-2.8,10.59,10.59,0,0,1,0-7.25,8.06,8.06,0,0,1,1.77-2.8,7.92,7.92,0,0,1,2.74-1.8,10,10,0,0,1,7,0,7.92,7.92,0,0,1,2.74,1.8,8.2,8.2,0,0,1,1.77,2.81,10.74,10.74,0,0,1,0,7.25,8.06,8.06,0,0,1-1.77,2.8,7.9,7.9,0,0,1-2.74,1.79A9.47,9.47,0,0,1,155.33,45Zm0-16.36a7.63,7.63,0,0,0-2.84.51,6.23,6.23,0,0,0-2.21,1.48,6.64,6.64,0,0,0-1.44,2.35,9.86,9.86,0,0,0,0,6.32,6.64,6.64,0,0,0,1.44,2.35,6.08,6.08,0,0,0,2.21,1.47,7.63,7.63,0,0,0,2.84.51,7.81,7.81,0,0,0,2.88-.51,6,6,0,0,0,2.2-1.47,6.6,6.6,0,0,0,1.42-2.35,10,10,0,0,0,0-6.32,6.74,6.74,0,0,0-1.42-2.36,6.21,6.21,0,0,0-2.2-1.47A7.81,7.81,0,0,0,155.33,28.6Z"/><path class="cls-1" d="M191.53,44.77a.71.71,0,0,1-.59-.3L179.67,30.08c0,.07,0,14.69,0,14.69h-1.43V27.43H179a.83.83,0,0,1,.34.06.92.92,0,0,1,.28.23l11.22,14.37a1.48,1.48,0,0,1,0-.21V27.43h1.44V44.77Z"/><path class="cls-1" d="M214.41,44.77V37.59L207.7,27.43h1.4a.66.66,0,0,1,.38.11,1.54,1.54,0,0,1,.24.26l5.1,7.83a5.39,5.39,0,0,1,.31.56l.09.18.09-.18a4.44,4.44,0,0,1,.31-.55l5.08-7.83a1,1,0,0,1,.23-.26.6.6,0,0,1,.38-.12h1.42L216,37.67l0,7.1Z"/><path class="cls-1" d="M73.28,27.61a.42.42,0,0,0-.14.13l-4.3,8.55-3.76-8.71h-.8l-3,6.9-3.41-6.74a.32.32,0,0,0-.13-.13.48.48,0,0,0-.18,0H55.92V45h1.42a.28.28,0,0,0,.3-.21l3.44-8,4,8a.36.36,0,0,0,.32.21h.19a.37.37,0,0,0,.31-.21l3.11-6.15,2.64,6.15A.31.31,0,0,0,72,45h.61l-3.12-7.21.5-1,3.44,8a.31.31,0,0,0,.29.21h1.43V27.58H73.45A.43.43,0,0,0,73.28,27.61ZM57.43,43.41V29.52l3.24,6.41Zm4.28-8.11,2.69-6.25.27-.62.27.62.24.55-2.93,6.77Zm3.83,7.57L62.67,37.2l2.89-6.71,2.86,6.64Zm8.1.54-3.23-7.48,3.23-6.41Z"/><path class="cls-1" d="M253.36,0a13.9,13.9,0,0,0-13.53,10.8h.64a13.25,13.25,0,0,1,23.1-5.37H251.93v.62H257l-1.31,2.39h-2.35l-.14,0V19h.62L253,20.8h.67l.82-1.78,4.11,0A4.66,4.66,0,0,0,261.88,18l1.24,2.86h.68l-1.45-3.35A5.92,5.92,0,0,0,263.43,14V8.44h-7l1.32-2.39H264a13.25,13.25,0,0,1-20.77,16.42h-.81A13.88,13.88,0,1,0,253.36,0Zm5.28,18.43h-4.8V12H259l-1.63,2.22h0v0l-.44.59h5.83a4.7,4.7,0,0,1-1.06,2.47A4,4,0,0,1,258.64,18.43Zm4.17-4.37a1.24,1.24,0,0,1,0,.15h-4.68L259.74,12h0v0l.44-.61h-6.36V9.06h9v5Z"/><polygon class="cls-1" points="242.46 12.5 240.25 19.43 250.87 19.43 248.56 12.59 247.9 12.59 249.99 18.8 241.13 18.8 243.11 12.5 242.46 12.5"/><polygon class="cls-1" points="250.44 10.73 248.72 5.97 248.12 5.97 248.06 5.99 249.78 10.73 250.44 10.73"/></g></g></svg>