<?xml version="1.0" encoding="utf-8"?>
<!-- Generator: Adobe Illustrator 23.0.1, SVG Export Plug-In . SVG Version: 6.00 Build 0)  -->
<svg version="1.1" id="Layer_1" xmlns="http://www.w3.org/2000/svg" xmlns:xlink="http://www.w3.org/1999/xlink" x="0px" y="0px"
	 viewBox="0 0 324.3 62.6" style="enable-background:new 0 0 324.3 62.6;" xml:space="preserve">
<style type="text/css">
	.st0{fill:#6D6E71;}
</style>
<title>Asset 12</title>
<g>
	<g id="Layer_1-2">
		<path class="st0" d="M255.9,7.7v4.4h9.6c1,0.1,2-0.3,2.7-1c0.6-0.7,0.9-1.6,0.9-2.6V7.7H255.9z M267.8,10.7
			c-0.6,0.6-1.4,0.9-2.2,0.8h-9V8.3h12v0.2C268.6,9.3,268.3,10.1,267.8,10.7L267.8,10.7z"/>
		<polygon class="st0" points="262.6,20.2 262.6,17.2 266,17.2 266,16.6 258.7,16.6 258.7,17.2 262,17.2 262,20.2 		"/>
		<path class="st0" d="M280.1,19L280.1,19l-4.6,0.4V16h4.2V7.9l0,0V7.8c-3.3-6.9-11.6-9.8-18.5-6.5c-2.2,1.1-4.1,2.7-5.5,4.8h13.6
			V5.5H257c4.6-5.6,12.9-6.5,18.6-1.9c1.4,1.2,2.6,2.6,3.4,4.2h-3.5V5.3h-0.6v2.6h-3.5V16h3.5v3.4l0,0V20l4.2-0.4
			c-3.2,6.6-11.1,9.3-17.7,6.1c-2.4-1.2-4.4-3.1-5.7-5.4v-6.1h2.2l-0.5,0.8h0.7l0.5-0.8h7.9l0.3,0.8h0.7l-0.3-0.8h2.3v2.2
			c0,1.1-0.3,2.1-1,2.9c-0.7,0.7-1.7,1.1-2.7,1.1V21c1.2,0,2.3-0.4,3.1-1.3c0.7-1,1.2-2.2,1.2-3.4v-2.8h-15V19l0,0v1.4
			c3.7,6.7,12.1,9.2,18.8,5.6C276.7,24.6,278.9,22.1,280.1,19L280.1,19z M279.1,8.5v6.9h-3.5V8.5H279.1z M272,15.4V8.5h2.9v6.9H272z
			"/>
		<path class="st0" d="M104.6,27.3c-0.1,0-0.1,0.1-0.1,0.1l-4.4,8.6l-3.8-8.8h-0.8l-3,6.9l-3.3-6.7c0-0.1-0.1-0.1-0.1-0.1
			c-0.1,0-0.1,0-0.2,0h-1.7v17.4h1.4c0.1,0,0.3-0.1,0.3-0.2l3.5-8l4,8c0.1,0.1,0.2,0.2,0.3,0.2h0.2c0.1,0,0.3-0.1,0.3-0.2l3.1-6.2
			l2.6,6.2c0,0.1,0.2,0.2,0.3,0.2h0.6l-3.1-7.2l0.5-1l3.4,8c0,0.1,0.2,0.2,0.3,0.2h1.4V27.3H104.6C104.7,27.2,104.6,27.3,104.6,27.3
			z M88.7,43.1V29.2l3.2,6.4L88.7,43.1z M93,35l2.7-6.3l0.3-0.6l0.3,0.6l0.2,0.5l-3,6.8L93,35z M96.8,42.6l-2.9-5.7l2.9-6.7l2.9,6.6
			L96.8,42.6z M104.9,43.1l-3.2-7.5l3.2-6.4V43.1z"/>
		<path class="st0" d="M139,44.2c-0.1,0-0.3,0-0.4-0.1c-0.1-0.1-0.2-0.2-0.2-0.3l-1.9-4.7h-8.1l-1.9,4.7c0,0.1-0.1,0.2-0.2,0.3
			s-0.2,0.1-0.4,0.1h-1.2l7-16.6h1.5l7,16.6H139z M136,38l-3.3-8c-0.1-0.1-0.1-0.3-0.2-0.5v-0.1v0.1c0,0.2-0.1,0.3-0.2,0.5l-3.4,8
			H136z"/>
		<path class="st0" d="M198.2,44.7c-1.1,0-2.2-0.2-3.3-0.6c-1-0.4-1.9-1-2.6-1.8c-0.7-0.8-1.3-1.7-1.7-2.8c-0.8-2.3-0.8-4.8,0-7.2
			c0.4-1,0.9-2,1.7-2.8c0.7-0.8,1.6-1.4,2.6-1.8c2.1-0.8,4.5-0.8,6.6,0c1,0.4,1.9,1,2.6,1.8c0.7,0.8,1.3,1.7,1.7,2.8
			c0.8,2.3,0.8,4.8,0,7.2c-0.4,1-0.9,2-1.7,2.8c-0.7,0.8-1.6,1.4-2.6,1.8S199.3,44.7,198.2,44.7z M198.2,28.5
			c-0.9,0-1.8,0.2-2.7,0.5c-0.8,0.3-1.5,0.8-2.1,1.5s-1.1,1.5-1.4,2.3c-0.7,2-0.7,4.2,0,6.2c0.3,0.9,0.8,1.6,1.4,2.3
			c0.6,0.6,1.3,1.1,2.1,1.4c0.9,0.3,1.8,0.5,2.7,0.5s1.8-0.2,2.7-0.5c0.8-0.3,1.5-0.8,2.1-1.4c0.6-0.7,1-1.5,1.3-2.3
			c0.6-2,0.6-4.2,0-6.2c-0.3-0.9-0.7-1.6-1.3-2.3c-0.6-0.6-1.3-1.1-2.1-1.5C200,28.7,199.1,28.5,198.2,28.5z"/>
		<path class="st0" d="M237.2,44.2c-0.2,0-0.4-0.1-0.6-0.3L226,29.7v14.5h-1.4V27.1h0.7c0.1,0,0.2,0,0.3,0s0.2,0.1,0.3,0.2
			l10.6,14.2V27.1h1.4v17.1H237.2z"/>
		<path class="st0" d="M171,44.3c-0.2,0-0.4-0.1-0.6-0.3l-10.6-14.2c0,0.1,0,14.5,0,14.5h-1.3V27.2h0.7c0.1,0,0.2,0,0.3,0
			c0.1,0.1,0.2,0.1,0.3,0.2l10.6,14.2V27.2h1.4v17.1C171.8,44.3,171,44.3,171,44.3z"/>
		<path class="st0" d="M162.1,56.5h0.6v2l0,0c0.2-0.4,0.7-0.6,1.1-0.5c0.8,0,1.4,0.7,1.3,1.5v0.1c0.1,0.8-0.5,1.6-1.3,1.7h-0.1
			c-0.4,0-0.8-0.2-1.1-0.6l0,0v0.5h-0.5c0-0.2,0-0.5,0-0.8V56.5z M162.7,59.9c0,0.1,0,0.1,0,0.2c0.1,0.4,0.5,0.7,0.9,0.7
			c0.6,0,1-0.5,1-1.2s-0.3-1.2-1-1.2c-0.4,0-0.8,0.3-0.9,0.7c0,0.1,0,0.2,0,0.2V59.9z"/>
		<path class="st0" d="M166.9,58l0.7,1.9c0.1,0.2,0.2,0.5,0.2,0.7l0,0l0.2-0.7l0.6-1.9h0.6l-0.9,2.3c-0.2,0.7-0.6,1.4-1.1,2
			c-0.2,0.2-0.4,0.3-0.7,0.4l-0.1-0.5c0.2-0.1,0.4-0.2,0.5-0.3c0.2-0.2,0.4-0.4,0.5-0.6v-0.1c0,0,0-0.1,0-0.2l-1.1-2.9h0.6V58z"/>
		<path class="st0" d="M176.7,61.2l-1.9-5.7h0.8l0.9,2.8c0.2,0.8,0.4,1.5,0.6,2.1l0,0c0.2-0.7,0.4-1.4,0.7-2.1l1-2.8h0.8l-2,5.7
			H176.7z"/>
		<path class="st0" d="M183.9,60.2c0,0.3,0,0.7,0.1,1h-0.7l-0.1-0.5l0,0c-0.3,0.4-0.8,0.6-1.3,0.6c-0.6,0-1.2-0.4-1.2-1.1v-0.1
			c0-1,0.9-1.5,2.4-1.5v-0.1c0.1-0.5-0.3-0.9-0.7-0.9c-0.1,0-0.1,0-0.2,0c-0.4,0-0.7,0.1-1.1,0.3l-0.2-0.5c0.4-0.2,0.9-0.4,1.3-0.4
			c1.3,0,1.6,0.8,1.6,1.7L183.9,60.2z M183.2,59.1c-0.8,0-1.7,0.1-1.7,0.9c0,0.4,0.2,0.7,0.6,0.7h0.1c0.4,0,0.9-0.3,1-0.7
			c0-0.1,0-0.2,0-0.2L183.2,59.1z"/>
		<path class="st0" d="M186.2,58.2c0-0.4,0-0.8,0-1.1h0.7v0.7l0,0c0.3-0.5,0.8-0.8,1.4-0.8c0.6,0,1.4,0.3,1.4,1.7v2.4H189v-2.4
			c0-0.7-0.3-1.2-0.9-1.2c-0.5,0-0.9,0.3-1,0.8c0,0.1,0,0.2,0,0.3v2.5h-0.9V58.2z"/>
		<path class="st0" d="M192.5,59.3c-0.1,0.7,0.5,1.3,1.2,1.4c0.1,0,0.1,0,0.2,0c0.4,0,0.8-0.1,1.1-0.2l0.2,0.5
			c-0.4,0.2-0.9,0.3-1.4,0.3c-1,0.1-1.9-0.7-2-1.8c0-0.1,0-0.2,0-0.3c-0.1-1.1,0.7-2.1,1.8-2.2c0,0,0,0,0.1,0c0.9,0,1.7,0.8,1.7,1.7
			c0,0.1,0,0.1,0,0.2c0,0.1,0,0.2,0,0.3L192.5,59.3z M194.7,58.8c0.1-0.5-0.2-1.1-0.8-1.2c-0.1,0-0.1,0-0.2,0
			c-0.6,0-1.1,0.6-1.1,1.2H194.7z"/>
		<path class="st0" d="M197.4,60.4c0.3,0.2,0.6,0.3,1,0.3c0.5,0,0.8-0.3,0.8-0.6s-0.2-0.5-0.8-0.7c-0.7-0.3-1.1-0.7-1.1-1.2
			c0-0.7,0.6-1.2,1.3-1.2h0.1c0.4,0,0.7,0.1,1,0.3l-0.2,0.5c-0.3-0.2-0.5-0.2-0.8-0.2c-0.4,0-0.7,0.3-0.7,0.5s0.2,0.5,0.8,0.7
			c0.7,0.3,1.1,0.6,1.1,1.2s-0.6,1.2-1.5,1.2c-0.4,0-0.8-0.1-1.2-0.3L197.4,60.4z"/>
		<path class="st0" d="M201.9,60.4c0.3,0.2,0.6,0.3,1,0.3c0.5,0,0.8-0.3,0.8-0.6s-0.2-0.5-0.8-0.7c-0.7-0.3-1.1-0.7-1.1-1.2
			c0-0.7,0.6-1.2,1.3-1.2c0,0,0,0,0.1,0c0.4,0,0.7,0.1,1,0.3l-0.2,0.5c-0.3-0.2-0.5-0.2-0.8-0.2c-0.4,0-0.7,0.3-0.7,0.5
			s0.2,0.5,0.8,0.7c0.7,0.3,1.1,0.6,1.1,1.2s-0.6,1.2-1.5,1.2c-0.4,0-0.8-0.1-1.1-0.3L201.9,60.4z"/>
		<path class="st0" d="M209.4,60.2c0,0.3,0,0.7,0.1,1h-0.7l-0.1-0.5l0,0c-0.3,0.4-0.8,0.6-1.3,0.6c-0.6,0-1.2-0.4-1.2-1.1v-0.1
			c0-1,0.9-1.5,2.4-1.5v-0.1c0.1-0.5-0.3-0.9-0.7-0.9c-0.1,0-0.1,0-0.2,0c-0.4,0-0.7,0.1-1.1,0.3l-0.2-0.5c0.4-0.2,0.9-0.4,1.3-0.4
			c1.2,0,1.5,0.8,1.5,1.7L209.4,60.2z M208.7,59.1c-0.8,0-1.7,0.1-1.7,0.9c0,0.4,0.2,0.7,0.6,0.7h0.1c0.5,0,1-0.3,1-0.8
			c0,0,0,0,0-0.1L208.7,59.1z"/>
		<path class="st0" d="M218.7,61c-0.5,0.2-1,0.3-1.5,0.3c-1.5,0.1-2.7-1-2.8-2.5c0-0.1,0-0.3,0-0.4c-0.1-1.5,1.1-2.9,2.6-3
			c0.1,0,0.3,0,0.4,0c0.5,0,0.9,0.1,1.4,0.3l-0.2,0.6c-0.4-0.2-0.7-0.2-1.1-0.2c-1.2-0.1-2.2,0.8-2.2,2c0,0.1,0,0.3,0,0.4
			c-0.1,1.1,0.7,2.1,1.8,2.3c0.1,0,0.2,0,0.3,0c0.4,0,0.8-0.1,1.2-0.2L218.7,61z"/>
		<path class="st0" d="M220.8,55.2h0.7v2.5l0,0c0.1-0.2,0.3-0.4,0.5-0.5s0.5-0.2,0.8-0.2c0.6,0,1.4,0.3,1.4,1.7v2.4h-0.8v-2.3
			c0-0.7-0.2-1.2-0.9-1.2c-0.5,0-0.9,0.3-1,0.7c0,0.1,0,0.2,0,0.3v2.5h-0.7V55.2z"/>
		<path class="st0" d="M230.3,59.1c0.1,1.1-0.7,2.1-1.8,2.2c-0.1,0-0.1,0-0.2,0c-1.1,0-2-0.8-2-1.9c0-0.1,0-0.1,0-0.2
			c-0.1-1.1,0.7-2.1,1.8-2.2c0.1,0,0.1,0,0.2,0c1.1,0,2,0.8,2,1.9C230.3,59,230.3,59,230.3,59.1z M227.1,59.1c0,0.9,0.5,1.6,1.2,1.6
			s1.2-0.7,1.2-1.6c0-0.7-0.3-1.5-1.2-1.5S227.1,58.4,227.1,59.1L227.1,59.1z"/>
		<path class="st0" d="M232.6,57.1l0.6,2.1c0.1,0.5,0.2,0.9,0.3,1.3l0,0c0.1-0.4,0.2-0.8,0.4-1.3l0.7-2.1h0.7l0.6,2
			c0.1,0.5,0.3,0.9,0.4,1.3l0,0c0.1-0.4,0.2-0.8,0.3-1.3l0.6-2h0.7l-1.3,4.1h-0.7l-0.6-2c-0.1-0.4-0.3-0.9-0.4-1.3l0,0
			c-0.1,0.5-0.2,0.9-0.4,1.3l-0.6,1.9h-0.7L232,57L232.6,57.1L232.6,57.1z"/>
	</g>
</g>
</svg>
