<?xml version="1.0" encoding="utf-8"?>
<!-- Generator: Adobe Illustrator 23.0.1, SVG Export Plug-In . SVG Version: 6.00 Build 0)  -->
<svg version="1.1" id="Layer_1" xmlns="http://www.w3.org/2000/svg" xmlns:xlink="http://www.w3.org/1999/xlink" x="0px" y="0px"
	 viewBox="0 0 324.3 62.6" style="enable-background:new 0 0 324.3 62.6;" xml:space="preserve">
<style type="text/css">
	.st0{fill:#6D6E71;}
</style>
<title>Asset 19</title>
<g>
	<g id="Layer_1-2">
		<path class="st0" d="M186.9,8.7h0.6V7.3h22.8v1.4h0.6v-2h-0.1c-4-6.5-12.6-8.6-19.2-4.5c-1.3,0.8-2.4,1.7-3.3,2.9h0.8
			c4.9-5.4,13.3-5.8,18.8-0.9c0.8,0.7,1.6,1.6,2.2,2.5h-23.2V8.7z"/>
		<rect x="188.2" y="9.7" class="st0" width="8.3" height="0.6"/>
		<path class="st0" d="M194.4,13.2V16c0,0,0.4,5.5,5.5,5.5H211v-2.7h-0.6v2.1h-10.5c-1.7,0.1-3.4-0.9-4.1-2.4
			c-0.4-0.8-0.7-1.6-0.8-2.4v-2.8h2.9v-0.6h-11.4v0.6h3.7l-3.4,6.9l0,0c3.5,6.9,11.8,9.6,18.7,6.2c1.9-0.9,3.5-2.3,4.8-3.9h-0.8
			c-4.7,5.6-13.1,6.4-18.7,1.7c-1.3-1.1-2.4-2.4-3.2-3.9l3.4-6.9L194.4,13.2z"/>
		
			<rect x="201.9" y="12.7" transform="matrix(0.9772 -0.2123 0.2123 0.9772 1.6255 43.2468)" class="st0" width="0.6" height="2.7"/>
		<path class="st0" d="M209.1,9.2h-0.6V11h-9v0.6h9V14c0,1.1-0.4,2.2-1.1,3s-1.8,1.2-2.9,1.2v0.6c1.3,0,2.5-0.5,3.3-1.4
			c0.8-1,1.3-2.2,1.3-3.4v-2.3h2.4V11h-2.4V9.2z"/>
		<path class="st0" d="M172,24.2l-0.1,0.1l-4,8l-3.5-8.2h-0.7l-2.9,6.5l-3.2-6.3l-0.1-0.1c-0.1,0-0.1,0-0.2,0h-1.5v16.2h1.3
			c0.1,0,0.2-0.1,0.3-0.2l3.2-7.5l3.8,7.5c0.1,0.1,0.2,0.2,0.3,0.2h0.1c0.1,0,0.2-0.1,0.3-0.2l2.9-5.7l2.5,5.7
			c0,0.1,0.1,0.2,0.3,0.2h0.6l-2.9-6.7l0.5-0.9l3.2,7.4c0,0.1,0.1,0.2,0.3,0.2h1.3V24.1h-1.6C172.1,24.1,172,24.2,172,24.2z
			 M157.2,38.9V26l3,6L157.2,38.9z M161.2,31.3l2.5-5.8l0.3-0.6l0.3,0.6l0.2,0.5l-2.7,6.3L161.2,31.3z M164.8,38.4l-2.7-5.3l2.7-6.3
			l2.7,6.2L164.8,38.4z M172.3,38.9l-3-7l3-6V38.9z"/>
	</g>
</g>
</svg>
