<svg xmlns="http://www.w3.org/2000/svg" viewBox="0 0 237.83 21.29"><defs><style>.cls-1{fill:#6d6e71;}</style></defs><title>Asset 2</title><g id="Layer_2" data-name="Layer 2"><g id="Layer_1-2" data-name="Layer 1"><path class="cls-1" d="M45,17.53V10.35L38.3.19h1.4a.66.66,0,0,1,.38.11,1.23,1.23,0,0,1,.24.26l5.1,7.83a4.53,4.53,0,0,1,.31.56l.09.18L45.91,9a4.41,4.41,0,0,1,.3-.56L51.3.56a1.09,1.09,0,0,1,.23-.25.6.6,0,0,1,.38-.12h1.42L46.59,10.43l0,7.1Z"/><path class="cls-1" d="M77.85,17.73a7.2,7.2,0,0,1-3.1-.62,7.31,7.31,0,0,1-2.28-1.66l-.07-.09.41-.62a.61.61,0,0,1,.48-.25.62.62,0,0,1,.39.18l.43.36q.26.21.6.45a4.83,4.83,0,0,0,.79.44,6.46,6.46,0,0,0,1,.35,6,6,0,0,0,1.33.14,5.26,5.26,0,0,0,1.84-.3,4,4,0,0,0,1.35-.81,3.26,3.26,0,0,0,.84-1.2,3.83,3.83,0,0,0,.29-1.51,2.54,2.54,0,0,0-.36-1.41,3.09,3.09,0,0,0-1-.93,6.37,6.37,0,0,0-1.39-.64l-1.64-.52c-.57-.17-1.13-.36-1.66-.57a5.81,5.81,0,0,1-1.47-.82,3.92,3.92,0,0,1-1.06-1.26,4.14,4.14,0,0,1-.4-1.9,4.35,4.35,0,0,1,.35-1.7,4.39,4.39,0,0,1,1-1.46,5.08,5.08,0,0,1,1.67-1A6.32,6.32,0,0,1,78.56,0a7.29,7.29,0,0,1,2.55.43,6.14,6.14,0,0,1,2.06,1.32l.08.08-.35.65a.51.51,0,0,1-.47.29.84.84,0,0,1-.52-.27A6,6,0,0,0,81.23,2a5.49,5.49,0,0,0-1.08-.49,4.77,4.77,0,0,0-1.58-.22,4.94,4.94,0,0,0-1.66.26,3.26,3.26,0,0,0-1.18.69,2.84,2.84,0,0,0-.72,1,2.9,2.9,0,0,0-.25,1.2,2.37,2.37,0,0,0,.36,1.36,3.17,3.17,0,0,0,1,.92,6.88,6.88,0,0,0,1.39.65L79.13,8c.56.17,1.12.37,1.65.58a6.16,6.16,0,0,1,1.47.83,3.81,3.81,0,0,1,1.06,1.23,3.86,3.86,0,0,1,.4,1.82,5.3,5.3,0,0,1-.4,2.07,4.81,4.81,0,0,1-1.14,1.7,5.49,5.49,0,0,1-1.84,1.13A6.86,6.86,0,0,1,77.85,17.73Z"/><polygon class="cls-1" points="109.08 17.53 109.08 1.54 102.78 1.54 102.78 0.19 116.92 0.19 116.92 1.54 110.67 1.54 110.67 17.53 109.08 17.53"/><rect class="cls-1" x="136" y="0.19" width="1.61" height="17.34"/><path class="cls-1" d="M173.46,21.29a1.7,1.7,0,0,1-.51-.07,1,1,0,0,1-.41-.28l-3.73-3.85a9.47,9.47,0,0,1-1.6.45,9.73,9.73,0,0,1-1.9.17,9.38,9.38,0,0,1-3.49-.63,7.9,7.9,0,0,1-2.74-1.79,8.08,8.08,0,0,1-1.78-2.8,10,10,0,0,1-.63-3.63,10.06,10.06,0,0,1,.63-3.63,8.14,8.14,0,0,1,1.78-2.79,7.92,7.92,0,0,1,2.74-1.8A9.19,9.19,0,0,1,165.31,0a9.47,9.47,0,0,1,3.52.63,7.92,7.92,0,0,1,2.74,1.8,8.25,8.25,0,0,1,1.77,2.8A10.28,10.28,0,0,1,174,8.86a10.84,10.84,0,0,1-.28,2.46,9.17,9.17,0,0,1-.79,2.13,7.78,7.78,0,0,1-2.75,3l4.75,4.86ZM165.31,1.36a7.63,7.63,0,0,0-2.84.51,6.21,6.21,0,0,0-2.21,1.47,6.69,6.69,0,0,0-1.44,2.36,9.18,9.18,0,0,0-.52,3.16,9.18,9.18,0,0,0,.52,3.16,6.64,6.64,0,0,0,1.44,2.35,6.21,6.21,0,0,0,2.21,1.47,7.63,7.63,0,0,0,2.84.51,7.81,7.81,0,0,0,2.88-.51,6.17,6.17,0,0,0,2.2-1.47A6.6,6.6,0,0,0,171.81,12a9.15,9.15,0,0,0,.51-3.16,9.19,9.19,0,0,0-.51-3.16,6.65,6.65,0,0,0-1.42-2.36,6.17,6.17,0,0,0-2.2-1.47A7.81,7.81,0,0,0,165.31,1.36Z"/><path class="cls-1" d="M200.87,17.74a7.58,7.58,0,0,1-2.88-.53,6.29,6.29,0,0,1-3.55-3.65,7.59,7.59,0,0,1-.47-2.68V.19h1.6V10.87a6.38,6.38,0,0,0,.37,2.17,4.78,4.78,0,0,0,1,1.74,4.69,4.69,0,0,0,1.65,1.16,6.18,6.18,0,0,0,4.48,0,4.67,4.67,0,0,0,1.66-1.15,5.1,5.1,0,0,0,1-1.74,6.37,6.37,0,0,0,.36-2.17V.19h1.59V10.88a7.59,7.59,0,0,1-.47,2.68,6.37,6.37,0,0,1-3.55,3.65A7.58,7.58,0,0,1,200.87,17.74Z"/><polygon class="cls-1" points="226.84 17.53 226.84 0.19 237.83 0.19 237.83 1.51 228.45 1.51 228.45 8.11 236.25 8.11 236.25 9.4 228.45 9.4 228.45 16.21 237.83 16.21 237.83 17.53 226.84 17.53"/><path class="cls-1" d="M17.36.23a.4.4,0,0,0-.13.13l-4.3,8.55L9.16.2h-.8l-3,6.9L2,.36A.34.34,0,0,0,1.84.23a.4.4,0,0,0-.17,0H0V17.59H1.43a.27.27,0,0,0,.29-.21l3.45-8,4,8a.39.39,0,0,0,.33.21h.18a.36.36,0,0,0,.31-.21l3.11-6.15,2.65,6.15a.29.29,0,0,0,.28.21h.61l-3.11-7.21.5-1,3.44,8a.29.29,0,0,0,.28.21h1.44V.2H17.54A.48.48,0,0,0,17.36.23ZM1.52,16V2.14L4.75,8.55ZM5.8,7.92,8.48,1.67l.28-.62L9,1.67l.23.55L6.34,9Zm3.82,7.57L6.76,9.82,9.64,3.11l2.87,6.64Zm8.11.54L14.49,8.55l3.24-6.41Z"/></g></g></svg>