<svg xmlns="http://www.w3.org/2000/svg" viewBox="0 0 222.73 17.73"><defs><style>.cls-1{fill:#6d6e71;}</style></defs><title>Asset 5</title><g id="Layer_2" data-name="Layer 2"><g id="Layer_1-2" data-name="Layer 1"><path class="cls-1" d="M5.46,17.73a7.25,7.25,0,0,1-3.11-.62A7.16,7.16,0,0,1,.08,15.45L0,15.36l.42-.62a.59.59,0,0,1,.48-.25.67.67,0,0,1,.39.18l.43.36c.16.13.36.29.59.45a5.42,5.42,0,0,0,.8.44,6,6,0,0,0,1,.35,6,6,0,0,0,1.34.14,5.2,5.2,0,0,0,1.83-.3,4.06,4.06,0,0,0,1.36-.81,3.52,3.52,0,0,0,.84-1.2,4,4,0,0,0,.29-1.51,2.54,2.54,0,0,0-.36-1.41,3.2,3.2,0,0,0-1-.93,6.68,6.68,0,0,0-1.4-.64C6.55,9.43,6,9.26,5.44,9.09s-1.12-.36-1.66-.57A6,6,0,0,1,2.31,7.7a3.89,3.89,0,0,1-1-1.26,4,4,0,0,1-.4-1.9,4.35,4.35,0,0,1,.35-1.7,4.23,4.23,0,0,1,1-1.46,5.19,5.19,0,0,1,1.67-1A6.37,6.37,0,0,1,6.17,0,7.19,7.19,0,0,1,8.71.43a6.18,6.18,0,0,1,2.07,1.32l.08.08-.36.65a.5.5,0,0,1-.46.29.89.89,0,0,1-.53-.27A6.25,6.25,0,0,0,8.83,2a5.73,5.73,0,0,0-1.07-.48,4.88,4.88,0,0,0-1.59-.22,5.16,5.16,0,0,0-1.65.25,3.57,3.57,0,0,0-1.19.7,3,3,0,0,0-.72,1,3.07,3.07,0,0,0-.25,1.2,2.37,2.37,0,0,0,.36,1.36,3.43,3.43,0,0,0,1,.92,6.7,6.7,0,0,0,1.4.65L6.73,8c.57.17,1.12.37,1.66.58a6.36,6.36,0,0,1,1.47.83,3.78,3.78,0,0,1,1.05,1.23,3.74,3.74,0,0,1,.4,1.82,5.48,5.48,0,0,1-.39,2.07,4.83,4.83,0,0,1-1.15,1.7,5.49,5.49,0,0,1-1.84,1.13A6.8,6.8,0,0,1,5.46,17.73Z"/><path class="cls-1" d="M34.79,17.53V10.35L28.08.19h1.4a.66.66,0,0,1,.38.11,1.23,1.23,0,0,1,.24.26l5.1,7.83a4.53,4.53,0,0,1,.31.56l.09.18L35.69,9A4.53,4.53,0,0,1,36,8.39L41.08.56a.92.92,0,0,1,.23-.25.6.6,0,0,1,.38-.12h1.42L36.37,10.43l0,7.1Z"/><path class="cls-1" d="M89.85,17.53V.19H94.6a7.5,7.5,0,0,1,4.83,1.35,4.75,4.75,0,0,1,1.65,3.86,5,5,0,0,1-.45,2.12,4.76,4.76,0,0,1-1.29,1.67,6.31,6.31,0,0,1-2,1.09,8.71,8.71,0,0,1-2.7.39H91.45v6.86ZM94.6,9.38a6.59,6.59,0,0,0,2.07-.3,4.51,4.51,0,0,0,1.53-.84,3.65,3.65,0,0,0,1-1.26,3.76,3.76,0,0,0,.34-1.58,3.58,3.58,0,0,0-1.22-2.91,5.62,5.62,0,0,0-3.67-1H91.45V9.38Z"/><polygon class="cls-1" points="130.83 17.53 130.83 9.37 119.98 9.37 119.98 17.53 118.37 17.53 118.37 0.19 119.98 0.19 119.98 8.14 130.83 8.14 130.83 0.19 132.43 0.19 132.43 17.53 130.83 17.53"/><path class="cls-1" d="M155.33,17.71a9.38,9.38,0,0,1-3.49-.63,7.9,7.9,0,0,1-2.74-1.79,8.06,8.06,0,0,1-1.77-2.8,10,10,0,0,1-.64-3.63,10.06,10.06,0,0,1,.64-3.63,8.11,8.11,0,0,1,1.77-2.79,7.92,7.92,0,0,1,2.74-1.8A9.19,9.19,0,0,1,155.33,0a9.47,9.47,0,0,1,3.52.63,7.92,7.92,0,0,1,2.74,1.8,8.25,8.25,0,0,1,1.77,2.8A10.06,10.06,0,0,1,164,8.86a10,10,0,0,1-.63,3.63,8.06,8.06,0,0,1-1.77,2.8,7.9,7.9,0,0,1-2.74,1.79A9.47,9.47,0,0,1,155.33,17.71Zm0-16.35a7.63,7.63,0,0,0-2.84.51,6.21,6.21,0,0,0-2.21,1.47,6.69,6.69,0,0,0-1.44,2.36,9.18,9.18,0,0,0-.52,3.16,9.18,9.18,0,0,0,.52,3.16,6.64,6.64,0,0,0,1.44,2.35,6.21,6.21,0,0,0,2.21,1.47,7.84,7.84,0,0,0,2.84.51,8,8,0,0,0,2.88-.51,6.08,6.08,0,0,0,2.2-1.47A6.6,6.6,0,0,0,161.83,12a9.19,9.19,0,0,0,.51-3.16,9.19,9.19,0,0,0-.51-3.16,6.65,6.65,0,0,0-1.42-2.36,6.08,6.08,0,0,0-2.2-1.47A7.81,7.81,0,0,0,155.33,1.36Z"/><path class="cls-1" d="M191.53,17.53a.71.71,0,0,1-.59-.3L179.67,2.84c0,.07,0,14.69,0,14.69h-1.43V.19H179a.83.83,0,0,1,.34.06.79.79,0,0,1,.28.23l11.22,14.37a1.48,1.48,0,0,1,0-.21V.19h1.44V17.53Z"/><path class="cls-1" d="M214.41,17.53V10.35L207.7.19h1.4a.66.66,0,0,1,.38.11,1.23,1.23,0,0,1,.24.26l5.1,7.83a4.53,4.53,0,0,1,.31.56l.09.18.09-.18a4.53,4.53,0,0,1,.31-.56L220.7.56a1.09,1.09,0,0,1,.23-.25.6.6,0,0,1,.38-.12h1.42L216,10.43l0,7.1Z"/><path class="cls-1" d="M73.28.37a.33.33,0,0,0-.14.13l-4.3,8.55L65.08.34h-.8l-3,6.9L57.89.5a.27.27,0,0,0-.13-.13.48.48,0,0,0-.18,0H55.92V17.73h1.42a.28.28,0,0,0,.3-.21l3.44-8,4,8a.36.36,0,0,0,.32.21h.19a.37.37,0,0,0,.31-.21l3.11-6.15,2.64,6.15a.31.31,0,0,0,.29.21h.61l-3.12-7.21.5-1,3.44,8a.31.31,0,0,0,.29.21h1.43V.34H73.45A.43.43,0,0,0,73.28.37ZM57.43,16.17V2.28l3.24,6.41Zm4.28-8.11L64.4,1.81l.27-.62.27.62.24.55L62.25,9.13Zm3.83,7.57L62.67,10l2.89-6.72,2.86,6.65Zm8.1.54L70.41,8.69l3.23-6.41Z"/></g></g></svg>