<svg xmlns="http://www.w3.org/2000/svg" viewBox="0 0 150.73 35.49"><defs><style>.cls-1{fill:#6d6e71;}</style></defs><title>Asset 2</title><g id="Layer_2" data-name="Layer 2"><g id="Layer_1-2" data-name="Layer 1"><path class="cls-1" d="M17.36.14a.4.4,0,0,0-.13.13l-4.3,8.55L9.16.11h-.8L5.38,7,2,.27A.34.34,0,0,0,1.84.14a.4.4,0,0,0-.17,0H0V17.5H1.43a.27.27,0,0,0,.29-.21l3.45-8,4,8a.39.39,0,0,0,.33.21h.18a.36.36,0,0,0,.31-.21l3.11-6.15,2.65,6.15a.29.29,0,0,0,.28.21h.61l-3.11-7.21.5-1,3.44,8a.29.29,0,0,0,.28.21h1.44V.11H17.54A.48.48,0,0,0,17.36.14ZM1.52,15.94V2.05L4.75,8.46ZM5.8,7.83,8.48,1.58,8.76,1,9,1.58l.23.55L6.34,8.9ZM9.62,15.4,6.76,9.73,9.64,3l2.87,6.64Zm8.11.54L14.49,8.46l3.24-6.41Z"/><path class="cls-1" d="M51.79,17.05a.57.57,0,0,1-.37-.12.74.74,0,0,1-.21-.28L49.27,12H41.22l-1.94,4.65a.6.6,0,0,1-.21.27.54.54,0,0,1-.37.13H37.55l7-16.59H46l7,16.59Zm-3-6.21-3.34-8a3.28,3.28,0,0,1-.17-.45l0-.08,0,.08a4.05,4.05,0,0,1-.17.46l-3.35,8Z"/><path class="cls-1" d="M111,17.53a8.57,8.57,0,0,1-3.29-.62,7.29,7.29,0,0,1-2.58-1.77,8,8,0,0,1-1.68-2.75,10.42,10.42,0,0,1-.59-3.58,10.36,10.36,0,0,1,.59-3.57,8.09,8.09,0,0,1,1.68-2.76A7.42,7.42,0,0,1,107.7.71,8.39,8.39,0,0,1,111,.08a8.65,8.65,0,0,1,3.32.62,7.41,7.41,0,0,1,2.58,1.78,8.07,8.07,0,0,1,1.67,2.76,10.36,10.36,0,0,1,.59,3.57,10.42,10.42,0,0,1-.59,3.58,7.93,7.93,0,0,1-1.67,2.75,7.38,7.38,0,0,1-2.58,1.77A8.65,8.65,0,0,1,111,17.53Zm0-16.11a7.06,7.06,0,0,0-2.68.5,6,6,0,0,0-2.08,1.45,6.79,6.79,0,0,0-1.36,2.33,9.4,9.4,0,0,0-.49,3.11,9.4,9.4,0,0,0,.49,3.11,6.65,6.65,0,0,0,1.36,2.32,5.83,5.83,0,0,0,2.08,1.45,7.06,7.06,0,0,0,2.68.5,7.15,7.15,0,0,0,2.71-.5,5.66,5.66,0,0,0,2.08-1.45,6.77,6.77,0,0,0,1.34-2.32,9.4,9.4,0,0,0,.48-3.11,9.4,9.4,0,0,0-.48-3.11,6.91,6.91,0,0,0-1.34-2.33,5.78,5.78,0,0,0-2.08-1.45A7.15,7.15,0,0,0,111,1.42Z"/><path class="cls-1" d="M150,17.09a.68.68,0,0,1-.56-.3L138.82,2.61V17.09h-1.35V0h.74a.93.93,0,0,1,.32.05.69.69,0,0,1,.26.23l10.58,14.16V0h1.36V17.09Z"/><path class="cls-1" d="M83.79,17.13a.66.66,0,0,1-.55-.3L72.61,2.65c0,.07,0,14.48,0,14.48H71.27V0H72a1,1,0,0,1,.32,0,.77.77,0,0,1,.26.23L83.16,14.48V0h1.36V17.13Z"/><path class="cls-1" d="M74.89,29.4h.57v2h0a1.18,1.18,0,0,1,1.08-.57c.79,0,1.34.65,1.34,1.61a1.51,1.51,0,0,1-1.43,1.69,1.13,1.13,0,0,1-1.06-.59h0l0,.52h-.49c0-.22,0-.54,0-.82Zm.57,3.38a.75.75,0,0,0,0,.21.89.89,0,0,0,.87.67c.61,0,1-.49,1-1.21s-.33-1.18-1-1.18a.92.92,0,0,0-.87.7,1,1,0,0,0,0,.25Z"/><path class="cls-1" d="M79.69,30.88l.69,1.87c.08.21.16.46.21.65h0l.2-.66.63-1.86H82l-.86,2.26a4.89,4.89,0,0,1-1.09,2,1.59,1.59,0,0,1-.71.37L79.24,35a1.51,1.51,0,0,0,.5-.28,1.82,1.82,0,0,0,.49-.64.63.63,0,0,0,0-.14.41.41,0,0,0,0-.15l-1.17-2.92Z"/><path class="cls-1" d="M89.48,34.05l-1.86-5.67h.8l.89,2.79c.23.77.44,1.46.6,2.12h0a20.65,20.65,0,0,1,.65-2.11l1-2.8h.79l-2,5.67Z"/><path class="cls-1" d="M96.67,33.07a5.85,5.85,0,0,0,.06,1h-.67L96,33.54h0a1.53,1.53,0,0,1-1.25.6A1.16,1.16,0,0,1,93.49,33c0-1,.87-1.52,2.45-1.51v-.08a.84.84,0,0,0-.93-.94,1.92,1.92,0,0,0-1.07.31l-.16-.5a2.61,2.61,0,0,1,1.34-.35c1.25,0,1.55.85,1.55,1.65ZM96,32c-.8,0-1.72.13-1.72.92a.65.65,0,0,0,.69.71,1,1,0,0,0,1-.69,1,1,0,0,0,0-.23Z"/><path class="cls-1" d="M99,31.08c0-.43,0-.76,0-1.1h.66l0,.67h0a1.52,1.52,0,0,1,1.35-.75c.56,0,1.44.33,1.44,1.73v2.42h-.74V31.7c0-.65-.25-1.2-.94-1.2a1.09,1.09,0,0,0-1,.76,1.16,1.16,0,0,0,0,.34v2.45H99Z"/><path class="cls-1" d="M105.3,32.15a1.3,1.3,0,0,0,1.4,1.41,2.63,2.63,0,0,0,1.13-.21l.13.53a3.26,3.26,0,0,1-1.36.26,1.89,1.89,0,0,1-2-2.06,2,2,0,0,1,1.9-2.18,1.71,1.71,0,0,1,1.69,1.9,1.5,1.5,0,0,1,0,.35Zm2.17-.53a1,1,0,0,0-1-1.19,1.21,1.21,0,0,0-1.14,1.19Z"/><path class="cls-1" d="M110.18,33.3a2.07,2.07,0,0,0,1,.29c.53,0,.78-.26.78-.61s-.21-.54-.75-.74c-.74-.27-1.08-.66-1.08-1.15a1.25,1.25,0,0,1,1.4-1.19,1.92,1.92,0,0,1,1,.25l-.17.54a1.61,1.61,0,0,0-.84-.25.59.59,0,0,0-.67.56c0,.33.24.49.77.7.69.26,1.06.61,1.06,1.21s-.56,1.23-1.51,1.23a2.4,2.4,0,0,1-1.14-.28Z"/><path class="cls-1" d="M114.69,33.3a2.07,2.07,0,0,0,1,.29c.53,0,.78-.26.78-.61s-.21-.54-.75-.74c-.74-.27-1.08-.66-1.08-1.15A1.25,1.25,0,0,1,116,29.9a1.92,1.92,0,0,1,1,.25l-.17.54a1.61,1.61,0,0,0-.84-.25.59.59,0,0,0-.67.56c0,.33.24.49.77.7.69.26,1.06.61,1.06,1.21s-.56,1.23-1.51,1.23a2.4,2.4,0,0,1-1.14-.28Z"/><path class="cls-1" d="M122.16,33.07a7.15,7.15,0,0,0,.06,1h-.66l-.06-.51h0a1.53,1.53,0,0,1-1.25.6A1.16,1.16,0,0,1,119,33c0-1,.87-1.52,2.44-1.51v-.08a.83.83,0,0,0-.92-.94,1.92,1.92,0,0,0-1.07.31l-.17-.5a2.65,2.65,0,0,1,1.35-.35c1.24,0,1.54.85,1.54,1.65Zm-.71-1.1c-.81,0-1.72.13-1.72.92a.65.65,0,0,0,.69.71,1,1,0,0,0,1-.69,1,1,0,0,0,0-.23Z"/><path class="cls-1" d="M131.48,33.87a3.52,3.52,0,0,1-1.5.27,2.64,2.64,0,0,1-2.79-2.87,2.81,2.81,0,0,1,3-3,3.14,3.14,0,0,1,1.35.25l-.19.6a2.64,2.64,0,0,0-1.13-.24A2.11,2.11,0,0,0,128,31.24a2.05,2.05,0,0,0,2.17,2.28,2.86,2.86,0,0,0,1.21-.24Z"/><path class="cls-1" d="M133.56,28.08h.74v2.55h0a1.35,1.35,0,0,1,.53-.53,1.48,1.48,0,0,1,.75-.2c.55,0,1.43.33,1.43,1.73v2.42h-.74V31.71c0-.65-.25-1.2-.95-1.2a1.07,1.07,0,0,0-1,.73,1,1,0,0,0,0,.35v2.46h-.74Z"/><path class="cls-1" d="M143.09,32a2,2,0,0,1-2,2.16,1.94,1.94,0,0,1-2-2.09,2,2,0,0,1,2-2.15A1.92,1.92,0,0,1,143.09,32Zm-3.22,0c0,.89.51,1.57,1.23,1.57s1.23-.67,1.23-1.58c0-.69-.34-1.56-1.21-1.56S139.87,31.26,139.87,32Z"/><path class="cls-1" d="M145.44,30l.55,2.07c.11.45.22.87.29,1.29h0c.09-.41.23-.85.36-1.28l.66-2.08H148l.63,2c.15.49.27.92.36,1.33h0c.07-.41.18-.84.31-1.32l.58-2h.74l-1.32,4.07h-.67L148,32.11c-.14-.46-.26-.86-.36-1.34h0a12.61,12.61,0,0,1-.37,1.35l-.65,1.93h-.68L144.69,30Z"/></g></g></svg>