<svg xmlns="http://www.w3.org/2000/svg" viewBox="0 0 197.71 17.47"><defs><style>.cls-1{fill:#6d6e71;}</style></defs><title>Asset 6</title><g id="Layer_2" data-name="Layer 2"><g id="Layer_1-2" data-name="Layer 1"><polygon class="cls-1" points="11.74 17.29 11.74 9.25 1.51 9.25 1.51 17.29 0 17.29 0 0.21 1.51 0.21 1.51 8.04 11.74 8.04 11.74 0.21 13.25 0.21 13.25 17.29 11.74 17.29"/><path class="cls-1" d="M43.35,17.29a.54.54,0,0,1-.36-.12.7.7,0,0,1-.21-.29l-2-4.78h-8l-1.93,4.78a.66.66,0,0,1-.21.29.64.64,0,0,1-.38.12H29.12l7-17.08h1.41l7,17.08Zm-3-6.39L37,2.62c-.06-.14-.11-.3-.17-.47l0-.09,0,.09c-.05.17-.11.33-.16.48L33.27,10.9Z"/><path class="cls-1" d="M71.05,17.29a1,1,0,0,1-.4-.08,1,1,0,0,1-.31-.28L65,10.12a1,1,0,0,0-.38-.33,1.72,1.72,0,0,0-.66-.09H61.87v7.59h-1.5V.21H64.8a7.2,7.2,0,0,1,4.44,1.15,4.08,4.08,0,0,1,1.49,3.41,4.6,4.6,0,0,1-.35,1.81A4.33,4.33,0,0,1,69.4,8a5.26,5.26,0,0,1-1.55,1,6.5,6.5,0,0,1-1.67.47,2.43,2.43,0,0,1,.26.29l6,7.49ZM64.65,8.5a6.64,6.64,0,0,0,2-.26,4.17,4.17,0,0,0,1.44-.74,3.08,3.08,0,0,0,.89-1.14,3.56,3.56,0,0,0,.31-1.52A2.93,2.93,0,0,0,68.13,2.3a5.54,5.54,0,0,0-3.33-.84H61.87v7Z"/><path class="cls-1" d="M130.41,17.47a8.62,8.62,0,0,1-3.3-.62,7.48,7.48,0,0,1-2.58-1.77,8.18,8.18,0,0,1-1.67-2.75,10.22,10.22,0,0,1-.6-3.58,10.09,10.09,0,0,1,.6-3.57,8.13,8.13,0,0,1,1.67-2.76A7.48,7.48,0,0,1,127.11.65a8.47,8.47,0,0,1,3.3-.63,8.69,8.69,0,0,1,3.32.62,7.48,7.48,0,0,1,2.58,1.77A8.19,8.19,0,0,1,138,5.18a10.09,10.09,0,0,1,.6,3.57,10.22,10.22,0,0,1-.6,3.58,8,8,0,0,1-1.66,2.75,7.48,7.48,0,0,1-2.58,1.77A8.69,8.69,0,0,1,130.41,17.47Zm0-16.12a6.81,6.81,0,0,0-2.68.51,5.78,5.78,0,0,0-2.09,1.45,6.7,6.7,0,0,0-1.36,2.33,9.4,9.4,0,0,0-.48,3.11,9.4,9.4,0,0,0,.48,3.11,6.65,6.65,0,0,0,1.36,2.32,5.72,5.72,0,0,0,2.09,1.44,6.84,6.84,0,0,0,2.68.5,7,7,0,0,0,2.71-.5,5.68,5.68,0,0,0,2.08-1.44,6.77,6.77,0,0,0,1.34-2.32A9.67,9.67,0,0,0,137,8.75a9.67,9.67,0,0,0-.48-3.11,6.82,6.82,0,0,0-1.34-2.33,5.75,5.75,0,0,0-2.08-1.45A7,7,0,0,0,130.41,1.35Z"/><path class="cls-1" d="M167,17.29a.66.66,0,0,1-.56-.29L155.78,2.82V17.29h-1.35V.21h.74a1,1,0,0,1,.32.05.77.77,0,0,1,.26.23l10.58,14.16a1.48,1.48,0,0,1,0-.21V.21h1.36V17.29Z"/><path class="cls-1" d="M189.87,17.29V10.22l-6.32-10h1.32a.51.51,0,0,1,.35.11.94.94,0,0,1,.23.25l4.81,7.72a4.85,4.85,0,0,1,.29.54l.09.19a1.08,1.08,0,0,1,.08-.19c.08-.17.18-.35.29-.54l4.8-7.72A.82.82,0,0,1,196,.32a.61.61,0,0,1,.36-.11h1.33l-6.35,10.08,0,7Z"/><path class="cls-1" d="M104.64,0a.27.27,0,0,0-.13.13l-4.05,8.42L96.91,0h-.75L93.34,6.8,90.13.16A.31.31,0,0,0,90,0a.43.43,0,0,0-.17,0H88.27V17.14h1.34a.26.26,0,0,0,.28-.21L93.14,9,97,16.93a.37.37,0,0,0,.31.21h.17a.35.35,0,0,0,.3-.21l2.93-6.07,2.49,6.07a.29.29,0,0,0,.27.21H104L101.06,10l.47-1,3.25,7.87a.27.27,0,0,0,.26.21h1.36V0h-1.6A.38.38,0,0,0,104.64,0ZM89.7,15.6V1.91l3,6.32Zm4-8,2.54-6.16.25-.62.26.62L97,2,94.24,8.66Zm3.61,7.46-2.7-5.59,2.72-6.62,2.7,6.55Zm7.64.53-3-7.37,3-6.32Z"/></g></g></svg>