<svg xmlns="http://www.w3.org/2000/svg" viewBox="0 0 192.71 34.4"><defs><style>.cls-1{fill:#6d6e71;}</style></defs><title>Asset 4</title><g id="Layer_2" data-name="Layer 2"><g id="Layer_1-2" data-name="Layer 1"><polygon class="cls-1" points="0 16.78 0 0.18 10.36 0.18 10.36 1.45 1.51 1.45 1.51 7.76 8.87 7.76 8.87 9 1.51 9 1.51 15.51 10.36 15.51 10.36 16.78 0 16.78"/><path class="cls-1" d="M62.09,16.78V.18h5a9.89,9.89,0,0,1,2.53.29,5,5,0,0,1,1.79.83,3.58,3.58,0,0,1,1.07,1.37,4.53,4.53,0,0,1,.35,1.81,3.56,3.56,0,0,1-.24,1.29,4,4,0,0,1-.7,1.15,4.36,4.36,0,0,1-1.11.91,5.46,5.46,0,0,1-.91.42,5.17,5.17,0,0,1,2.53,1.21,3.54,3.54,0,0,1,1.12,2.71,4.62,4.62,0,0,1-.4,1.93A4,4,0,0,1,72,15.56a5.41,5.41,0,0,1-1.83.91,9.14,9.14,0,0,1-2.44.31Zm5.57-1.23a5,5,0,0,0,3.25-.9A3.07,3.07,0,0,0,72,12.15a3,3,0,0,0-.28-1.33,2.76,2.76,0,0,0-.84-1,3.84,3.84,0,0,0-1.35-.63A6.8,6.8,0,0,0,67.67,9H63.59v6.59Zm-.57-7.74A5.78,5.78,0,0,0,69,7.53a3.83,3.83,0,0,0,1.31-.73,2.9,2.9,0,0,0,.74-1,3,3,0,0,0,.24-1.18,2.87,2.87,0,0,0-1-2.38,5.23,5.23,0,0,0-3.23-.82H63.59V7.81Z"/><path class="cls-1" d="M101,16.78a.8.8,0,0,1-.39-.09,1,1,0,0,1-.32-.27L94.88,9.81a1.1,1.1,0,0,0-.38-.32,1.79,1.79,0,0,0-.66-.09h-2v7.38h-1.5V.18h4.43A7.34,7.34,0,0,1,99.15,1.3a3.92,3.92,0,0,1,1.49,3.31,4.38,4.38,0,0,1-.34,1.76,4.3,4.3,0,0,1-1,1.41,5.48,5.48,0,0,1-1.54,1,7.14,7.14,0,0,1-1.68.46,1.66,1.66,0,0,1,.26.27l6,7.29Zm-6.4-8.54a6.91,6.91,0,0,0,2-.25A4.28,4.28,0,0,0,98,7.27a3.06,3.06,0,0,0,.89-1.11,3.53,3.53,0,0,0,.31-1.48,2.86,2.86,0,0,0-1.12-2.47,5.74,5.74,0,0,0-3.33-.81H91.79V8.24Z"/><path class="cls-1" d="M133.35,16.78a.54.54,0,0,1-.36-.12.74.74,0,0,1-.21-.28l-1.95-4.65h-8.05l-1.93,4.65a.6.6,0,0,1-.21.27.62.62,0,0,1-.38.13h-1.14l7-16.6h1.41l7,16.6Zm-3-6.21-3.35-8c-.05-.13-.11-.28-.17-.45l0-.08s0,.05,0,.08l-.17.46-3.35,8Z"/><path class="cls-1" d="M159.35,17a8.6,8.6,0,0,1-3.26-.6,7.23,7.23,0,0,1-2.54-1.72A7.91,7.91,0,0,1,151.9,12a9.89,9.89,0,0,1-.59-3.48A9.28,9.28,0,0,1,151.92,5,7.58,7.58,0,0,1,156.28.62a9.14,9.14,0,0,1,3.4-.62,9.82,9.82,0,0,1,1.7.14,7.07,7.07,0,0,1,1.44.38,6.54,6.54,0,0,1,1.27.63,10,10,0,0,1,1.16.87l.09.08-.44.62a.46.46,0,0,1-.41.2.61.61,0,0,1-.36-.15l-.42-.29c-.17-.12-.37-.25-.61-.39a4.7,4.7,0,0,0-.84-.38,6.47,6.47,0,0,0-1.12-.29,8.06,8.06,0,0,0-1.46-.12,7.49,7.49,0,0,0-2.76.5,6.09,6.09,0,0,0-2.15,1.43,6.69,6.69,0,0,0-1.42,2.26,8.52,8.52,0,0,0-.5,3,8.73,8.73,0,0,0,.5,3,6.46,6.46,0,0,0,1.38,2.25,6,6,0,0,0,2.08,1.4,6.81,6.81,0,0,0,2.61.49,9.4,9.4,0,0,0,1.58-.11,5.89,5.89,0,0,0,1.27-.34,5.48,5.48,0,0,0,1.08-.55,7.77,7.77,0,0,0,1-.77l.14-.09a.43.43,0,0,1,.5.07l.57.6-.09.1a8.43,8.43,0,0,1-1.16,1,7.6,7.6,0,0,1-1.38.75,7.77,7.77,0,0,1-1.63.48A10.53,10.53,0,0,1,159.35,17Z"/><polygon class="cls-1" points="182.35 16.78 182.35 0.18 192.71 0.18 192.71 1.45 183.87 1.45 183.87 7.76 191.23 7.76 191.23 9 183.87 9 183.87 15.51 192.71 15.51 192.71 16.78 182.35 16.78"/><path class="cls-1" d="M43.53.19a.29.29,0,0,0-.13.12l-4,8.19L35.79.16H35l-2.81,6.6L29,.31a.29.29,0,0,0-.13-.12.38.38,0,0,0-.16,0H27.16V16.8H28.5a.26.26,0,0,0,.28-.2L32,8.94l3.81,7.66a.37.37,0,0,0,.31.2h.17a.34.34,0,0,0,.29-.2l2.93-5.89L42,16.6a.29.29,0,0,0,.27.2h.58L40,9.9,40.42,9l3.24,7.64a.29.29,0,0,0,.27.2h1.35V.16H43.69A.38.38,0,0,0,43.53.19ZM28.59,15.31V2l3.06,6.13Zm4-7.76,2.54-6,.25-.6.26.6.22.53L33.13,8.57Zm3.61,7.24-2.7-5.42,2.72-6.43L39,9.3Zm7.64.52-3-7.16,3-6.13Z"/><path class="cls-1" d="M99,28.31h.57v2h0a1.16,1.16,0,0,1,1.08-.57c.79,0,1.34.65,1.34,1.61A1.51,1.51,0,0,1,100.54,33a1.15,1.15,0,0,1-1.07-.59h0l0,.52h-.49c0-.22,0-.54,0-.82Zm.57,3.38a.76.76,0,0,0,0,.21.87.87,0,0,0,.86.67c.61,0,1-.49,1-1.21s-.32-1.18-.94-1.18a.93.93,0,0,0-.88.7,1.71,1.71,0,0,0,0,.25Z"/><path class="cls-1" d="M103.77,29.79l.68,1.87c.08.21.16.46.21.65h0c.06-.19.12-.43.2-.66l.63-1.86h.61l-.87,2.26a4.79,4.79,0,0,1-1.08,2,1.64,1.64,0,0,1-.71.37l-.15-.48a1.45,1.45,0,0,0,.51-.28,1.7,1.7,0,0,0,.48-.64.39.39,0,0,0,0-.14.32.32,0,0,0,0-.15l-1.16-2.92Z"/><path class="cls-1" d="M117.09,30.47c0-.79-.09-1.75-.09-2.45h0c-.2.66-.43,1.38-.72,2.16l-1,2.75h-.55l-.93-2.7c-.27-.81-.48-1.53-.64-2.21h0c0,.71-.06,1.65-.11,2.51L112.86,33h-.7l.4-5.67h.93l1,2.74c.23.7.42,1.32.57,1.91h0c.15-.57.35-1.19.6-1.91l1-2.74h.93L118,33h-.73Z"/><path class="cls-1" d="M123.14,32a7.15,7.15,0,0,0,.06,1h-.66l-.06-.51h0a1.51,1.51,0,0,1-1.24.6A1.16,1.16,0,0,1,120,31.88c0-1,.88-1.52,2.45-1.51v-.08a.84.84,0,0,0-.93-.94,1.89,1.89,0,0,0-1.06.31l-.17-.5a2.61,2.61,0,0,1,1.34-.35c1.25,0,1.55.85,1.55,1.65Zm-.71-1.1c-.81,0-1.73.13-1.73.92a.65.65,0,0,0,.69.71,1,1,0,0,0,1-.69.66.66,0,0,0,0-.23Z"/><path class="cls-1" d="M125.52,30.16c0-.48,0-.89,0-1.27h.65l0,.81h0a1.22,1.22,0,0,1,1.13-.89h.21v.7a1.06,1.06,0,0,0-.26,0,1,1,0,0,0-1,.95,1.83,1.83,0,0,0,0,.34V33h-.74Z"/><path class="cls-1" d="M130.3,27.75a.44.44,0,0,1-.47.45.43.43,0,0,1-.44-.45.46.46,0,1,1,.91,0ZM129.48,33V28.89h.74V33Z"/><path class="cls-1" d="M133,31.06a1.3,1.3,0,0,0,1.39,1.41,2.63,2.63,0,0,0,1.13-.21l.14.53a3.35,3.35,0,0,1-1.37.26,1.9,1.9,0,0,1-2-2.06,2,2,0,0,1,1.91-2.18,1.71,1.71,0,0,1,1.68,1.9,2.74,2.74,0,0,1,0,.35Zm2.17-.53a1.05,1.05,0,0,0-1-1.19,1.21,1.21,0,0,0-1.13,1.19Z"/><path class="cls-1" d="M141,27.38a6.09,6.09,0,0,1,1.33-.13,2.32,2.32,0,0,1,1.55.41,1.19,1.19,0,0,1,.48,1,1.34,1.34,0,0,1-1,1.25v0a1.45,1.45,0,0,1,1.17,1.42,1.47,1.47,0,0,1-.49,1.13,2.79,2.79,0,0,1-2,.53,7.42,7.42,0,0,1-1.13-.07Zm.73,2.32h.66c.77,0,1.22-.41,1.22-1s-.49-.93-1.23-.93a3.61,3.61,0,0,0-.65.05Zm0,2.7a3.3,3.3,0,0,0,.61,0c.76,0,1.46-.28,1.46-1.1s-.67-1.1-1.47-1.1h-.6Z"/><path class="cls-1" d="M150.44,30.89a2,2,0,0,1-2,2.16A1.94,1.94,0,0,1,146.46,31a2,2,0,0,1,2-2.15A1.92,1.92,0,0,1,150.44,30.89Zm-3.22,0c0,.89.5,1.57,1.23,1.57s1.23-.67,1.23-1.58c0-.69-.34-1.56-1.22-1.56S147.22,30.17,147.22,30.93Z"/><path class="cls-1" d="M152.55,27h.74v6h-.74Z"/><path class="cls-1" d="M156.61,27.91v1h1.06v.56h-1.06v2.2c0,.5.14.79.55.79a1.48,1.48,0,0,0,.43,0l0,.56a2.08,2.08,0,0,1-.66.1,1.08,1.08,0,0,1-.8-.31,1.61,1.61,0,0,1-.28-1.07V29.45h-.63v-.56h.63v-.76Z"/><path class="cls-1" d="M160,31.06a1.3,1.3,0,0,0,1.4,1.41,2.55,2.55,0,0,0,1.12-.21l.14.53a3.29,3.29,0,0,1-1.36.26,1.89,1.89,0,0,1-2-2.06,2,2,0,0,1,1.9-2.18,1.71,1.71,0,0,1,1.69,1.9,1.5,1.5,0,0,1,0,.35Zm2.17-.53a1,1,0,0,0-1-1.19,1.21,1.21,0,0,0-1.14,1.19Z"/><path class="cls-1" d="M165,30c0-.43,0-.76,0-1.1h.66l0,.67h0a1.49,1.49,0,0,1,1.34-.75c.56,0,1.44.33,1.44,1.73V33h-.74V30.61c0-.65-.25-1.2-.94-1.2a1.09,1.09,0,0,0-1,.76,1.16,1.16,0,0,0-.05.34V33H165Z"/><path class="cls-1" d="M170.77,32.21a2.07,2.07,0,0,0,1,.29c.53,0,.78-.26.78-.61s-.21-.54-.75-.74c-.74-.27-1.09-.66-1.09-1.15a1.26,1.26,0,0,1,1.41-1.19,1.92,1.92,0,0,1,1,.25l-.18.54a1.57,1.57,0,0,0-.83-.25c-.44,0-.67.26-.67.56s.23.49.76.7c.7.26,1.07.61,1.07,1.21s-.56,1.23-1.51,1.23a2.44,2.44,0,0,1-1.15-.28Z"/><path class="cls-1" d="M176.27,27.91v1h1.06v.56h-1.06v2.2c0,.5.15.79.56.79a1.53,1.53,0,0,0,.43,0l0,.56a2,2,0,0,1-.66.1,1,1,0,0,1-.79-.31,1.56,1.56,0,0,1-.29-1.07V29.45h-.63v-.56h.63v-.76Z"/><path class="cls-1" d="M179.71,31.06a1.29,1.29,0,0,0,1.39,1.41,2.63,2.63,0,0,0,1.13-.21l.13.53a3.26,3.26,0,0,1-1.36.26A1.9,1.9,0,0,1,179,31a2,2,0,0,1,1.91-2.18,1.71,1.71,0,0,1,1.68,1.9,2.74,2.74,0,0,1,0,.35Zm2.17-.53a1.06,1.06,0,0,0-1-1.19,1.2,1.2,0,0,0-1.13,1.19Z"/><path class="cls-1" d="M184.69,30.16c0-.48,0-.89,0-1.27h.64l0,.81h0a1.23,1.23,0,0,1,1.14-.89h.2v.7a1,1,0,0,0-.25,0,1,1,0,0,0-1,.95,1.79,1.79,0,0,0,0,.34V33h-.74Z"/><path class="cls-1" d="M188.65,30c0-.43,0-.76,0-1.1h.66l0,.67h0a1.52,1.52,0,0,1,1.35-.75c.56,0,1.44.33,1.44,1.73V33h-.74V30.61c0-.65-.25-1.2-.94-1.2a1.09,1.09,0,0,0-1,.76,1.16,1.16,0,0,0-.05.34V33h-.74Z"/></g></g></svg>