<svg xmlns="http://www.w3.org/2000/svg" viewBox="0 0 18.07 16.34"><defs><style>.cls-1{fill:#6d6e71;}</style></defs><title>Asset 10</title><g id="Layer_2" data-name="Layer 2"><g id="Layer_1-2" data-name="Layer 1"><path class="cls-1" d="M16.32,0a.29.29,0,0,0-.13.12l-4,8L8.61,0H7.86L5.06,6.48,1.86.15A.29.29,0,0,0,1.73,0a.38.38,0,0,0-.16,0H0V16.34H1.34a.26.26,0,0,0,.28-.2L4.86,8.62l3.8,7.52a.34.34,0,0,0,.3.2h.18a.33.33,0,0,0,.29-.2l2.92-5.78,2.49,5.78a.26.26,0,0,0,.26.2h.58L12.75,9.57l.47-.93,3.23,7.5a.28.28,0,0,0,.27.2h1.35V0H16.48A.38.38,0,0,0,16.32,0ZM1.43,14.87v-13l3.05,6Zm4-7.62L8,1.38,8.23.79l.25.59.23.52L6,8.26ZM9,14.37,6.35,9,9.06,2.73,11.75,9Zm7.62.5-3-7,3-6Z"/></g></g></svg>