<svg xmlns="http://www.w3.org/2000/svg" viewBox="0 0 230.79 17.73"><defs><style>.cls-1{fill:#6d6e71;}</style></defs><title>Asset 4</title><g id="Layer_2" data-name="Layer 2"><g id="Layer_1-2" data-name="Layer 1"><polygon class="cls-1" points="6.29 17.53 6.29 1.54 0 1.54 0 0.19 14.15 0.19 14.15 1.54 7.89 1.54 7.89 17.53 6.29 17.53"/><rect class="cls-1" x="34.31" y="0.19" width="1.61" height="17.34"/><polygon class="cls-1" points="95.48 17.53 95.48 0.19 106.47 0.19 106.47 1.51 97.09 1.51 97.09 8.11 104.89 8.11 104.89 9.4 97.09 9.4 97.09 16.21 106.47 16.21 106.47 17.53 95.48 17.53"/><polygon class="cls-1" points="126.63 17.53 126.63 0.19 128.23 0.19 128.23 16.19 136.68 16.19 136.68 17.53 126.63 17.53"/><polygon class="cls-1" points="156.84 17.53 156.84 0.19 167.83 0.19 167.83 1.51 158.45 1.51 158.45 8.11 166.25 8.11 166.25 9.4 158.45 9.4 158.45 16.21 167.83 16.21 167.83 17.53 156.84 17.53"/><path class="cls-1" d="M193.45,17.73a7.2,7.2,0,0,1-3.1-.62,7.31,7.31,0,0,1-2.28-1.66l-.08-.09.42-.62a.61.61,0,0,1,.48-.25.62.62,0,0,1,.39.18l.43.36c.17.13.37.29.6.45a4.83,4.83,0,0,0,.79.44,5.65,5.65,0,0,0,2.38.49,5.26,5.26,0,0,0,1.84-.3,4,4,0,0,0,1.35-.81,3.26,3.26,0,0,0,.84-1.2,3.83,3.83,0,0,0,.29-1.51,2.54,2.54,0,0,0-.36-1.41,3.09,3.09,0,0,0-1-.93,6.59,6.59,0,0,0-1.39-.64l-1.64-.52c-.57-.16-1.12-.36-1.66-.57a5.81,5.81,0,0,1-1.47-.82,3.92,3.92,0,0,1-1.06-1.26,4.17,4.17,0,0,1-.4-1.9,4.35,4.35,0,0,1,.35-1.7,4.25,4.25,0,0,1,1-1.46,5.08,5.08,0,0,1,1.67-1A6.28,6.28,0,0,1,194.16,0a7.29,7.29,0,0,1,2.55.43,6.24,6.24,0,0,1,2.06,1.32l.08.08-.35.65a.51.51,0,0,1-.47.29.84.84,0,0,1-.52-.27,7.44,7.44,0,0,0-.68-.48,6.18,6.18,0,0,0-1.08-.48,4.77,4.77,0,0,0-1.58-.22,5.18,5.18,0,0,0-1.66.25,3.42,3.42,0,0,0-1.18.7,3,3,0,0,0-.73,1,3.06,3.06,0,0,0-.24,1.2,2.37,2.37,0,0,0,.36,1.36,3.43,3.43,0,0,0,1,.92,6.85,6.85,0,0,0,1.39.65l1.65.54c.56.17,1.11.37,1.65.58a6.16,6.16,0,0,1,1.47.83,3.81,3.81,0,0,1,1.06,1.23,3.86,3.86,0,0,1,.4,1.82,5.3,5.3,0,0,1-.4,2.07,4.81,4.81,0,0,1-1.14,1.7,5.49,5.49,0,0,1-1.84,1.13A6.9,6.9,0,0,1,193.45,17.73Z"/><path class="cls-1" d="M224.93,17.73a7.2,7.2,0,0,1-3.1-.62,7.31,7.31,0,0,1-2.28-1.66l-.07-.09.41-.62a.61.61,0,0,1,.48-.25.62.62,0,0,1,.39.18l.43.36c.17.13.37.29.6.45a5.29,5.29,0,0,0,.79.44,5.65,5.65,0,0,0,2.38.49,5.26,5.26,0,0,0,1.84-.3,4,4,0,0,0,1.35-.81,3.26,3.26,0,0,0,.84-1.2,3.83,3.83,0,0,0,.29-1.51,2.54,2.54,0,0,0-.36-1.41,3.09,3.09,0,0,0-1-.93,6.37,6.37,0,0,0-1.39-.64l-1.64-.52c-.56-.16-1.12-.36-1.66-.57a5.81,5.81,0,0,1-1.47-.82,3.92,3.92,0,0,1-1.06-1.26,4.17,4.17,0,0,1-.4-1.9,4.35,4.35,0,0,1,.35-1.7,4.39,4.39,0,0,1,1-1.46,5.19,5.19,0,0,1,1.67-1A6.28,6.28,0,0,1,225.64,0a7.29,7.29,0,0,1,2.55.43,6.14,6.14,0,0,1,2.06,1.32l.08.08-.35.65a.51.51,0,0,1-.47.29A.84.84,0,0,1,229,2.5a7.44,7.44,0,0,0-.68-.48,6.18,6.18,0,0,0-1.08-.48,4.77,4.77,0,0,0-1.58-.22,5.18,5.18,0,0,0-1.66.25,3.42,3.42,0,0,0-1.18.7,2.84,2.84,0,0,0-.72,1,2.9,2.9,0,0,0-.25,1.2,2.37,2.37,0,0,0,.36,1.36,3.43,3.43,0,0,0,1,.92,6.38,6.38,0,0,0,1.39.65l1.65.54c.56.17,1.12.37,1.65.58a6.16,6.16,0,0,1,1.47.83,3.81,3.81,0,0,1,1.06,1.23,3.86,3.86,0,0,1,.4,1.82,5.3,5.3,0,0,1-.4,2.07,4.94,4.94,0,0,1-1.14,1.7,5.49,5.49,0,0,1-1.84,1.13A6.86,6.86,0,0,1,224.93,17.73Z"/><path class="cls-1" d="M73.45.21a.33.33,0,0,0-.14.13L69,8.88,65.25.17h-.8l-3,6.9L58.06.34a.27.27,0,0,0-.13-.13.48.48,0,0,0-.18,0H56.09V17.56h1.42a.28.28,0,0,0,.3-.21l3.44-8,4,8a.36.36,0,0,0,.32.21h.19a.37.37,0,0,0,.31-.21l3.11-6.15,2.64,6.15a.31.31,0,0,0,.29.21h.61l-3.12-7.2.5-1,3.44,8a.31.31,0,0,0,.29.21h1.43V.17H73.62A.43.43,0,0,0,73.45.21ZM57.6,16V2.12l3.24,6.4Zm4.28-8.11,2.69-6.24L64.84,1l.27.63.24.55L62.42,9Zm3.83,7.58L62.84,9.79l2.89-6.71,2.86,6.65Zm8.1.53L70.58,8.52l3.23-6.4Z"/></g></g></svg>