<svg xmlns="http://www.w3.org/2000/svg" viewBox="0 0 163.62 17.47"><defs><style>.cls-1{fill:#6d6e71;}</style></defs><title>Asset 8</title><g id="Layer_2" data-name="Layer 2"><g id="Layer_1-2" data-name="Layer 1"><path class="cls-1" d="M8,17.47a8.27,8.27,0,0,1-3.26-.63,7.2,7.2,0,0,1-2.54-1.76A8.13,8.13,0,0,1,.59,12.31,10.42,10.42,0,0,1,0,8.73,10,10,0,0,1,.61,5.19,7.87,7.87,0,0,1,2.33,2.43,7.74,7.74,0,0,1,5,.63,9,9,0,0,1,8.37,0a9.82,9.82,0,0,1,1.7.14,8.12,8.12,0,0,1,1.45.4,6.25,6.25,0,0,1,1.26.65,9.2,9.2,0,0,1,1.16.89l.1.08-.45.64a.45.45,0,0,1-.41.21.63.63,0,0,1-.36-.15l-.42-.31-.61-.4A5,5,0,0,0,11,1.76a6.8,6.8,0,0,0-1.13-.3,8.06,8.06,0,0,0-1.46-.12,7.29,7.29,0,0,0-2.76.51A6.22,6.22,0,0,0,3.46,3.33,6.77,6.77,0,0,0,2,5.65a9,9,0,0,0-.5,3.08A9.22,9.22,0,0,0,2,11.86a6.85,6.85,0,0,0,1.38,2.32A6.29,6.29,0,0,0,5.5,15.63a6.82,6.82,0,0,0,2.61.5A9.32,9.32,0,0,0,9.69,16,5.89,5.89,0,0,0,11,15.67,6.15,6.15,0,0,0,12,15.1a8.78,8.78,0,0,0,1-.79l.14-.1a.42.42,0,0,1,.2-.05.39.39,0,0,1,.3.13l.57.61-.09.1A7.5,7.5,0,0,1,13,16a8,8,0,0,1-1.37.78,8.05,8.05,0,0,1-1.64.49A9.77,9.77,0,0,1,8,17.47Z"/><path class="cls-1" d="M37.85,17.46a8.66,8.66,0,0,1-3.3-.62A7.34,7.34,0,0,1,32,15.07a8,8,0,0,1-1.68-2.75,10.48,10.48,0,0,1-.59-3.59,10.4,10.4,0,0,1,.59-3.57A8,8,0,0,1,32,2.41,7.5,7.5,0,0,1,34.55.63a9.15,9.15,0,0,1,6.62,0A7.38,7.38,0,0,1,43.75,2.4a8.22,8.22,0,0,1,1.67,2.76A10.4,10.4,0,0,1,46,8.73a10.38,10.38,0,0,1-.59,3.58,8.13,8.13,0,0,1-1.67,2.76,7.38,7.38,0,0,1-2.58,1.77A8.65,8.65,0,0,1,37.85,17.46Zm0-16.12a6.88,6.88,0,0,0-2.68.51A5.83,5.83,0,0,0,33.09,3.3a6.65,6.65,0,0,0-1.36,2.32,9.48,9.48,0,0,0-.49,3.11,9.41,9.41,0,0,0,.49,3.12,6.5,6.5,0,0,0,1.36,2.32,5.81,5.81,0,0,0,2.08,1.44,7.06,7.06,0,0,0,2.68.5,7.15,7.15,0,0,0,2.71-.5,5.64,5.64,0,0,0,2.08-1.44A6.77,6.77,0,0,0,44,11.85a9.42,9.42,0,0,0,.48-3.12A9.44,9.44,0,0,0,44,5.62,6.77,6.77,0,0,0,42.64,3.3a5.66,5.66,0,0,0-2.08-1.45A7,7,0,0,0,37.85,1.34Z"/><path class="cls-1" d="M66.61,17.47a6.59,6.59,0,0,1-2.92-.61,6.84,6.84,0,0,1-2.15-1.64l-.07-.08.39-.62a.57.57,0,0,1,.46-.24.58.58,0,0,1,.36.18l.41.35c.16.13.34.28.56.44a4.79,4.79,0,0,0,.75.44,5.6,5.6,0,0,0,1,.34,5.4,5.4,0,0,0,1.26.14,4.65,4.65,0,0,0,1.73-.3,3.65,3.65,0,0,0,1.28-.79,3.35,3.35,0,0,0,.79-1.19,4.06,4.06,0,0,0,.28-1.48A2.62,2.62,0,0,0,70.38,11a3,3,0,0,0-.92-.92,5.9,5.9,0,0,0-1.31-.63L66.6,9c-.54-.17-1.06-.36-1.56-.56a5.45,5.45,0,0,1-1.39-.81,3.71,3.71,0,0,1-1-1.25,4.1,4.1,0,0,1-.38-1.86,4.38,4.38,0,0,1,.33-1.68,4.22,4.22,0,0,1,1-1.43,4.79,4.79,0,0,1,1.58-1A5.87,5.87,0,0,1,67.29,0a6.33,6.33,0,0,1,2.4.43,5.81,5.81,0,0,1,1.94,1.3l.08.07-.34.64a.46.46,0,0,1-.44.28.79.79,0,0,1-.49-.25A5.09,5.09,0,0,0,69.8,2a4.87,4.87,0,0,0-1-.48,4.3,4.3,0,0,0-1.49-.22,4.6,4.6,0,0,0-1.56.25,3.36,3.36,0,0,0-1.12.68,2.82,2.82,0,0,0-.68,1,3.15,3.15,0,0,0-.23,1.19A2.35,2.35,0,0,0,64,5.75a3,3,0,0,0,.91.91,6.22,6.22,0,0,0,1.32.64c.5.18,1,.36,1.55.53s1.05.37,1.56.58a5.39,5.39,0,0,1,1.38.81,3.9,3.9,0,0,1,1,1.21,3.93,3.93,0,0,1,.38,1.8,5.56,5.56,0,0,1-.38,2,4.67,4.67,0,0,1-1.08,1.67A5.07,5.07,0,0,1,69,17.06,6.34,6.34,0,0,1,66.61,17.47Z"/><path class="cls-1" d="M129.33,17.46a8.57,8.57,0,0,1-3.29-.62,7.42,7.42,0,0,1-2.58-1.77,8,8,0,0,1-1.68-2.75,10.48,10.48,0,0,1-.59-3.59,10.4,10.4,0,0,1,.59-3.57,8,8,0,0,1,1.68-2.75A7.45,7.45,0,0,1,126,.63a9.12,9.12,0,0,1,6.61,0,7.29,7.29,0,0,1,2.58,1.77,7.91,7.91,0,0,1,1.67,2.76,10.4,10.4,0,0,1,.59,3.57,10.38,10.38,0,0,1-.59,3.58,7.82,7.82,0,0,1-1.67,2.76,7.29,7.29,0,0,1-2.58,1.77A8.65,8.65,0,0,1,129.33,17.46Zm0-16.12a6.88,6.88,0,0,0-2.68.51,5.83,5.83,0,0,0-2.08,1.45,6.65,6.65,0,0,0-1.36,2.32,9.44,9.44,0,0,0-.48,3.11,9.42,9.42,0,0,0,.48,3.12,6.84,6.84,0,0,0,1.36,2.32,5.81,5.81,0,0,0,2.08,1.44,7.06,7.06,0,0,0,2.68.5,7.15,7.15,0,0,0,2.71-.5,5.64,5.64,0,0,0,2.08-1.44,6.61,6.61,0,0,0,1.34-2.32,9.42,9.42,0,0,0,.48-3.12,9.44,9.44,0,0,0-.48-3.11,6.61,6.61,0,0,0-1.34-2.32A5.66,5.66,0,0,0,132,1.85,7,7,0,0,0,129.33,1.34Z"/><path class="cls-1" d="M158.1,17.47a6.63,6.63,0,0,1-2.93-.61A7,7,0,0,1,153,15.22l-.07-.08.39-.62a.6.6,0,0,1,.46-.24.57.57,0,0,1,.37.18l.4.35.56.44a5.3,5.3,0,0,0,.75.44,5.91,5.91,0,0,0,1,.34,5.49,5.49,0,0,0,1.27.14,4.72,4.72,0,0,0,1.73-.3,3.7,3.7,0,0,0,1.27-.79,3.22,3.22,0,0,0,.79-1.19,3.86,3.86,0,0,0,.28-1.48,2.62,2.62,0,0,0-.34-1.39,3.07,3.07,0,0,0-.91-.92,6.2,6.2,0,0,0-1.32-.63L158.08,9c-.54-.17-1.06-.36-1.56-.56a5.63,5.63,0,0,1-1.39-.81,3.71,3.71,0,0,1-1-1.25,4.1,4.1,0,0,1-.38-1.86,4.38,4.38,0,0,1,.33-1.68,4.22,4.22,0,0,1,1-1.43,4.79,4.79,0,0,1,1.58-1A5.91,5.91,0,0,1,158.77,0a6.33,6.33,0,0,1,2.4.43,5.71,5.71,0,0,1,1.94,1.3l.08.07-.34.64a.45.45,0,0,1-.43.28.79.79,0,0,1-.5-.25,5.09,5.09,0,0,0-.64-.47,4.87,4.87,0,0,0-1-.48,4.3,4.3,0,0,0-1.49-.22,4.64,4.64,0,0,0-1.56.25,3.46,3.46,0,0,0-1.12.68,3,3,0,0,0-.68,1,3.15,3.15,0,0,0-.23,1.19,2.35,2.35,0,0,0,.34,1.33,3.16,3.16,0,0,0,.91.91,6.22,6.22,0,0,0,1.32.64c.5.18,1,.36,1.55.53s1,.37,1.56.58a5.39,5.39,0,0,1,1.38.81,3.9,3.9,0,0,1,1,1.21,3.93,3.93,0,0,1,.38,1.8,5.77,5.77,0,0,1-.37,2,4.83,4.83,0,0,1-1.09,1.67,5.07,5.07,0,0,1-1.73,1.12A6.29,6.29,0,0,1,158.1,17.47Z"/><path class="cls-1" d="M104,.2a.29.29,0,0,0-.13.12l-4,8.43L96.23.17h-.75L92.67,7,89.46.32A.34.34,0,0,0,89.34.2a.43.43,0,0,0-.17,0H87.6V17.3h1.34a.26.26,0,0,0,.28-.21l3.25-7.88,3.81,7.88a.36.36,0,0,0,.31.21h.17c.12,0,.21-.07.3-.21L100,11l2.49,6.06a.29.29,0,0,0,.27.21h.58l-2.94-7.1.47-1,3.24,7.87a.29.29,0,0,0,.27.21h1.36V.17h-1.6A.38.38,0,0,0,104,.2ZM89,15.76V2.08l3.06,6.31Zm4-8L95.6,1.62,95.85,1l.26.62.22.54L93.57,8.83Zm3.61,7.46L94,9.65,96.69,3l2.7,6.55Zm7.64.53-3-7.37,3-6.31Z"/></g></g></svg>